<svg width="40" height="40" viewBox="0 0 40 40" fill="none" xmlns="http://www.w3.org/2000/svg">
<path d="M11.3398 6.7031C12.2579 6.95349 13.176 7.12042 14.0941 7.37081C15.0122 7.6212 15.9303 7.78813 16.8484 8.03852C17.0988 8.12198 17.1823 8.03852 17.2657 7.78813C17.5996 6.36924 17.9334 5.03383 18.2673 3.61494C18.3507 3.36455 18.4342 3.28109 18.6846 3.36455C19.5192 3.61494 20.2704 3.78187 21.105 3.9488C21.3554 4.03226 21.3554 4.11572 21.272 4.28265C20.9381 5.61807 20.6043 7.03696 20.2704 8.37238C20.2704 8.45584 20.2704 8.5393 20.1869 8.70623C20.8547 8.87316 21.6058 9.04009 22.2735 9.20701C22.357 9.20701 22.4405 9.04008 22.5239 8.95662C22.7743 7.87159 23.0247 6.87003 23.3586 5.785C23.442 5.45114 23.5255 5.11729 23.609 4.78343C23.609 4.61651 23.6924 4.53304 23.8594 4.61651C24.694 4.8669 25.5286 5.03383 26.4467 5.28422C26.5302 5.28422 26.5302 5.36768 26.6137 5.36768C26.3633 6.45271 26.1129 7.45427 25.8625 8.45584C25.779 8.87316 25.6956 9.29048 25.5286 9.70779C25.4452 9.95819 25.5286 10.0416 25.779 10.1251C26.6971 10.5424 27.6152 10.9598 28.5333 11.3771C29.368 11.8779 30.1191 12.5456 30.7034 13.3802C31.4546 14.6322 31.538 15.9676 31.2042 17.303C30.9538 18.2211 30.6199 19.0557 29.9522 19.7234C29.4514 20.2242 28.7837 20.5581 28.116 20.8085C28.0325 20.8085 27.9491 20.8919 27.7821 20.8919C28.116 21.1423 28.4499 21.3093 28.7837 21.5596C29.7853 22.3108 30.453 23.2289 30.7868 24.3974C30.9538 25.3155 30.8703 26.3171 30.6199 27.2352C30.2861 28.4037 29.8687 29.4052 29.1176 30.3233C28.1995 31.4084 27.031 31.9926 25.6956 32.1595C23.9428 32.4099 22.2735 32.243 20.6043 31.9926C20.3539 31.9092 20.1869 31.9926 20.1035 32.243C19.7696 33.5784 19.4358 34.9973 19.1019 36.3327C19.0185 36.6666 19.0185 36.75 18.6011 36.5831C17.85 36.4162 17.0153 36.1658 16.2642 35.9989C16.0138 35.9154 16.0138 35.8319 16.0972 35.665C16.4311 34.2461 16.7649 32.8272 17.1823 31.4918C17.1823 31.3249 17.2657 31.2414 17.0988 31.158C16.4311 30.9911 15.7634 30.8241 15.0122 30.6572C14.8453 31.4084 14.5949 32.1595 14.4279 32.9107C14.261 33.6619 14.0106 34.4131 13.8437 35.1642C13.7602 35.3312 13.7602 35.4146 13.5098 35.3312C12.6752 35.0808 11.8406 34.9138 11.0059 34.7469C10.7555 34.6635 10.7555 34.58 10.839 34.4131C11.1729 32.9942 11.5067 31.5753 11.924 30.2399C11.924 30.1564 12.0075 30.0729 12.0075 29.906C10.0878 29.4052 8.16817 28.9045 6.16504 28.4037C6.33197 28.0698 6.41543 27.8194 6.58236 27.4856C6.91621 26.7344 7.25007 25.9832 7.50046 25.3155C7.58392 25.0651 7.66739 25.0651 7.91778 25.0651C8.50202 25.2321 9.16973 25.399 9.75398 25.4824C10.4217 25.6494 10.9225 25.3155 11.0059 24.7313C12.091 20.4746 13.176 16.218 14.1776 11.8779C14.3445 11.2101 13.9272 10.459 13.176 10.2086C12.4248 9.95819 11.6736 9.79126 11.0059 9.62433C10.839 9.62433 10.7555 9.54087 10.839 9.37394C11.0894 8.45584 11.3398 7.45427 11.5902 6.53617C11.2563 6.78656 11.2563 6.78656 11.3398 6.7031ZM15.5964 27.3186C15.6799 27.3186 15.7634 27.4021 15.7634 27.4021C17.0988 27.736 18.5177 28.1533 19.9366 28.2367C20.9381 28.3202 21.8562 28.3202 22.7743 27.9864C24.3601 27.4856 25.0278 25.399 24.1097 24.0636C23.6924 23.3958 23.0247 22.9785 22.357 22.5612C20.8547 21.7266 19.1019 21.3927 17.4326 21.0589C17.1823 20.9754 17.1823 21.0589 17.0988 21.3093C16.9319 22.1439 16.6815 22.8951 16.5145 23.7297C16.1807 24.8982 15.9303 26.0667 15.5964 27.3186ZM22.6074 18.8053C22.7743 18.8053 23.1916 18.7219 23.5255 18.6384C25.1113 18.3046 25.9459 16.4684 25.1113 15.0495C24.694 14.2983 23.9428 13.7975 23.1916 13.4637C22.0231 12.9629 20.8547 12.7125 19.6027 12.3786C19.3523 12.2952 19.2688 12.3786 19.1854 12.629C18.7681 14.3818 18.3507 16.051 17.85 17.8038C17.7665 17.9707 17.85 18.0542 18.0169 18.1376C18.3507 18.2211 18.6011 18.3046 18.935 18.388C20.1869 18.555 21.272 18.8053 22.6074 18.8053Z" fill="white"/>
</svg>
