<svg width="34" height="32" viewBox="0 0 34 32" fill="none" xmlns="http://www.w3.org/2000/svg">
<path d="M5.55923 23.0351L5.9489 24.5937C6.44247 26.6201 7.52055 27.6592 9.66371 27.6592H23.6527C25.8089 27.6592 26.874 26.646 27.3805 24.5937L27.7702 23.0351H5.55923ZM5.1306 21.2556H28.2118L30.6537 11.2542L29.5886 10.6437L23.6008 15.008C23.1591 15.3198 22.8604 15.2028 22.6136 14.8521L16.9764 6.33143L16.353 6.30545L10.6638 14.891C10.443 15.2288 10.1833 15.3327 9.74164 15.0209L3.87068 10.7347L2.62375 11.0594L5.1306 21.2556ZM3.10434 13.8519C4.81887 13.8519 6.19568 12.4622 6.19568 10.7347C6.19568 9.04611 4.81887 7.6433 3.10434 7.6433C1.38981 7.6433 0 9.03312 0 10.7347C0 12.4622 1.40279 13.8519 3.10434 13.8519ZM16.6648 8.44861C18.3662 8.44861 19.756 7.05881 19.756 5.34428C19.756 3.65572 18.3662 2.25293 16.6648 2.25293C14.9372 2.25293 13.5604 3.64274 13.5604 5.34428C13.5604 7.05881 14.9502 8.44861 16.6648 8.44861ZM30.2121 13.8519C31.9137 13.8519 33.3164 12.4622 33.3164 10.7347C33.3164 9.03312 31.9266 7.6433 30.2121 7.6433C28.5106 7.6433 27.1208 9.04611 27.1208 10.7347C27.1208 12.4622 28.5106 13.8519 30.2121 13.8519Z" fill="#FF8D28"/>
</svg>
