<svg width="311" height="184" viewBox="0 0 311 184" fill="none" xmlns="http://www.w3.org/2000/svg">
<rect width="311" height="183.998" rx="12" fill="#121212" style="mix-blend-mode:plus-lighter"/>
<path d="M222.645 67.497C223.761 64.5711 222.293 61.3034 219.367 60.1873C219.146 60.1069 218.925 60.0365 218.704 59.9862C218.985 57.6636 218.915 55.341 218.513 53.0887C218.734 53.0184 218.945 52.948 219.156 52.8474C222.012 51.5705 223.289 48.2223 222.012 45.3668C220.735 42.5112 217.377 41.2343 214.521 42.5112C214.31 42.6017 214.109 42.7123 213.908 42.833C212.5 41.0332 210.821 39.4345 208.891 38.0973C209.001 37.8962 209.092 37.685 209.182 37.4739C210.298 34.548 208.83 31.2802 205.904 30.1641C202.978 29.0481 199.701 30.506 198.585 33.4319C198.504 33.6531 198.434 33.8743 198.383 34.0855C196.051 33.8039 193.728 33.8743 191.486 34.2765C191.416 34.0553 191.345 33.8441 191.245 33.633C189.968 30.7775 186.609 29.5005 183.754 30.7775C180.898 32.0544 179.621 35.4026 180.898 38.2581C180.989 38.4693 181.099 38.6704 181.22 38.8715C179.42 40.2791 177.822 41.9582 176.484 43.8787C176.283 43.7681 176.072 43.6776 175.861 43.5871C172.935 42.471 169.657 43.929 168.541 46.8549C167.425 49.7808 168.893 53.0485 171.819 54.1646C172.04 54.245 172.261 54.3154 172.483 54.3657C172.201 56.6883 172.272 59.0109 172.674 61.2632C172.452 61.3335 172.241 61.4039 172.03 61.5045C169.175 62.7814 167.898 66.1296 169.175 68.9851C170.452 71.8406 173.81 73.1176 176.665 71.8406C176.877 71.7502 177.078 71.6395 177.279 71.5189C178.686 73.3187 180.365 74.9174 182.296 76.2546C182.185 76.4557 182.095 76.6669 182.004 76.878C180.888 79.8039 182.356 83.0717 185.282 84.1877C188.208 85.3038 191.486 83.8459 192.602 80.92C192.682 80.6988 192.753 80.4776 192.803 80.2664C195.136 80.548 197.458 80.4776 199.701 80.0754C199.771 80.2966 199.841 80.5077 199.942 80.7189C201.219 83.5744 204.577 84.8514 207.433 83.5744C210.288 82.2975 211.565 78.9493 210.288 76.0938C210.198 75.8826 210.087 75.6815 209.966 75.4804C211.766 74.0728 213.365 72.3937 214.702 70.4732C214.903 70.5838 215.114 70.6743 215.325 70.7648C218.261 71.8809 221.529 70.4229 222.645 67.497ZM205.432 60.9213C203.36 66.3508 197.277 69.0656 191.838 66.9943C186.408 64.923 183.684 58.84 185.755 53.4105C187.826 47.981 193.909 45.2662 199.349 47.3375C204.778 49.4188 207.503 55.5019 205.432 60.9213Z" fill="#1D4ED8"/>
<path d="M242.151 38.5089C244.162 37.5035 244.976 35.0602 243.971 33.0493C243.901 32.8984 243.81 32.7577 243.72 32.627C244.997 31.531 246.082 30.2742 246.967 28.8866C247.118 28.957 247.269 29.0173 247.43 29.0777C249.561 29.7915 251.864 28.6353 252.578 26.5037C253.292 24.3721 252.135 22.0696 250.004 21.3557C249.843 21.3054 249.682 21.2652 249.521 21.235C249.652 19.5961 249.531 17.9371 249.169 16.2982C249.32 16.2479 249.471 16.1776 249.622 16.1072C251.633 15.1017 252.447 12.6584 251.442 10.6475C250.436 8.63657 247.993 7.82215 245.982 8.82761C245.831 8.89799 245.69 8.98848 245.56 9.07898C244.464 7.80204 243.197 6.70608 241.819 5.83133C241.89 5.68051 241.95 5.52969 242.01 5.36881C242.724 3.23723 241.568 0.934714 239.436 0.220834C237.305 -0.493046 235.002 0.663238 234.288 2.79482C234.238 2.9557 234.198 3.11657 234.168 3.27745C232.529 3.14674 230.87 3.25734 229.231 3.62936C229.181 3.47854 229.11 3.32772 229.04 3.1769C228.034 1.16597 225.591 0.351544 223.58 1.35701C221.569 2.36247 220.755 4.80575 221.76 6.81668C221.831 6.9675 221.921 7.10827 222.012 7.23898C220.735 8.33493 219.649 9.59176 218.764 10.9793C218.613 10.9089 218.462 10.8486 218.301 10.7883C216.17 10.0744 213.867 11.2307 213.153 13.3623C212.44 15.4938 213.596 17.7964 215.727 18.5102C215.888 18.5605 216.049 18.6007 216.21 18.6309C216.079 20.2698 216.2 21.9288 216.562 23.5677C216.411 23.618 216.26 23.6884 216.11 23.7588C214.099 24.7642 213.284 27.2075 214.29 29.2184C215.295 31.2294 217.738 32.0438 219.749 31.0383C219.9 30.9679 220.041 30.8774 220.172 30.787C221.268 32.0639 222.534 33.1599 223.912 34.0346C223.842 34.1854 223.781 34.3362 223.721 34.4971C223.007 36.6287 224.163 38.9312 226.295 39.6451C228.426 40.359 230.729 39.2027 231.443 37.0711C231.493 36.9102 231.533 36.7494 231.564 36.5885C233.202 36.7192 234.861 36.6086 236.5 36.2366C236.551 36.3874 236.621 36.5382 236.691 36.689C237.697 38.7 240.14 39.5144 242.151 38.5089ZM235.817 25.8602C232.539 27.4991 228.557 26.1719 226.908 22.8941C225.259 19.6162 226.597 15.6346 229.864 13.9957C233.142 12.3568 237.124 13.684 238.773 16.9618C240.422 20.2396 239.094 24.2213 235.817 25.8602Z" fill="#1D4ED8"/>
<path d="M192.2 131.364H39.5601V35.1909C39.5601 31.893 42.2346 29.2285 45.5225 29.2285H186.237C189.535 29.2285 192.2 31.903 192.2 35.1909V131.364Z" fill="#0F172A"/>
<path d="M192.2 131.595H39.5601C39.4394 131.595 39.3389 131.495 39.3389 131.374V35.1914C39.3389 31.7829 42.1139 29.0078 45.5225 29.0078H186.237C189.646 29.0078 192.421 31.7829 192.421 35.1914V131.374C192.421 131.495 192.32 131.595 192.2 131.595ZM39.7813 131.143H191.978V35.1914C191.978 32.0242 189.404 29.4502 186.237 29.4502H45.5225C42.3553 29.4502 39.7813 32.0242 39.7813 35.1914V131.143Z" fill="white"/>
<path d="M187.484 122.395H44.2759C44.1552 122.395 44.0547 122.294 44.0547 122.174V38.4185C44.0547 38.2978 44.1552 38.1973 44.2759 38.1973H187.474C187.595 38.1973 187.695 38.2978 187.695 38.4185V122.174C187.705 122.294 187.605 122.395 187.484 122.395ZM44.4971 121.952H187.253V38.6397H44.4971V121.952Z" fill="white"/>
<path d="M194.854 143.984H37.1265C29.9073 143.984 23.2712 140.897 19.8526 135.95L18.2037 133.567C17.0474 131.898 18.2439 129.615 20.285 129.615H211.474C213.415 129.615 214.631 131.707 213.666 133.396L212.761 134.965C209.594 140.454 202.586 143.984 194.854 143.984Z" fill="#0F172A"/>
<path d="M194.854 144.215H37.1267C29.827 144.215 23.1407 141.098 19.6718 136.091L18.0229 133.708C17.4296 132.853 17.3693 131.797 17.8519 130.882C18.3346 129.947 19.2395 129.404 20.2852 129.404H211.474C212.47 129.404 213.354 129.917 213.857 130.772C214.35 131.626 214.35 132.652 213.857 133.507L212.952 135.075C209.755 140.625 202.646 144.215 194.854 144.215ZM20.2852 129.847C19.4104 129.847 18.6463 130.309 18.2441 131.083C17.8419 131.858 17.8922 132.742 18.3848 133.456L20.0338 135.839C23.4222 140.736 29.9678 143.772 37.1267 143.772H194.854C202.495 143.772 209.443 140.273 212.57 134.864L213.475 133.295C213.887 132.582 213.887 131.717 213.475 131.003C213.063 130.279 212.309 129.857 211.484 129.857H20.2852V129.847Z" fill="white"/>
<path d="M65.9635 47.498H52.3193V113.658H65.9635V47.498Z" fill="#1D4ED8"/>
<path d="M88.838 47.4983H75.1938V113.658H88.838V47.4983Z" fill="#1D4ED8"/>
<path d="M111.713 47.4983H98.0684V113.658H111.713V47.4983Z" fill="#1D4ED8"/>
<path d="M134.587 47.4983H120.942V113.658H134.587V47.4983Z" fill="#1D4ED8"/>
<path d="M157.461 47.4983H143.817V113.658H157.461V47.4983Z" fill="#1D4ED8"/>
<path d="M180.335 47.4983H166.691V113.658H180.335V47.4983Z" fill="#1D4ED8"/>
<path d="M65.9635 77.1702H52.3193V104.881H65.9635V77.1702Z" fill="#2563EB"/>
<path d="M88.838 68.7542H75.1938V104.88H88.838V68.7542Z" fill="#2563EB"/>
<path d="M111.713 56.2661H98.0684V104.88H111.713V56.2661Z" fill="#2563EB"/>
<path d="M134.587 77.1702H120.942V104.881H134.587V77.1702Z" fill="#2563EB"/>
<path d="M157.461 66.9045H143.817V104.881H157.461V66.9045Z" fill="#2563EB"/>
<path d="M180.335 75.1292H166.691V104.881H180.335V75.1292Z" fill="#2563EB"/>
<path d="M140.509 122.153H88.0541L79.9098 86.1275C78.5524 78.5363 84.3841 71.5583 92.0961 71.5583H135.894C143.546 71.5583 149.367 78.4257 148.11 85.9767L140.509 122.153Z" fill="#0F172A"/>
<path d="M143.455 74.3543C143.405 74.3543 143.365 74.3342 143.325 74.304C141.183 72.655 138.619 71.7803 135.904 71.7803H111.713C111.592 71.7803 111.492 71.6797 111.492 71.5591C111.492 71.4384 111.592 71.3379 111.713 71.3379H135.894C138.71 71.3379 141.374 72.2428 143.586 73.9521C143.687 74.0225 143.697 74.1632 143.626 74.2638C143.586 74.3342 143.526 74.3543 143.455 74.3543Z" fill="white"/>
<path d="M88.8383 72.2224C88.7377 72.2224 88.6472 72.1621 88.6271 72.0615C88.597 71.9409 88.6673 71.8202 88.7779 71.7901C89.8538 71.4985 90.9699 71.3477 92.096 71.3477H98.0684C98.1891 71.3477 98.2896 71.4482 98.2896 71.5689C98.2896 71.6895 98.1891 71.7901 98.0684 71.7901H92.106C91.0201 71.7901 89.9342 71.9308 88.8986 72.2124C88.8785 72.2124 88.8584 72.2224 88.8383 72.2224Z" fill="white"/>
<path d="M140.509 122.374H88.0543C87.9537 122.374 87.8632 122.304 87.8431 122.204L83.9419 104.93C83.9117 104.809 83.9922 104.688 84.1128 104.668C84.2335 104.638 84.3541 104.718 84.3743 104.839L88.2453 121.942H140.338L143.918 104.91C143.938 104.789 144.059 104.708 144.179 104.739C144.3 104.759 144.38 104.879 144.35 105L140.731 122.214C140.7 122.304 140.61 122.374 140.509 122.374Z" fill="white"/>
<path d="M88.9919 98.4311C90.9537 98.0775 91.7495 93.3829 90.7694 87.9455C89.7892 82.5081 87.4042 78.3869 85.4424 78.7405C83.4805 79.0942 82.6847 83.7888 83.6649 89.2262C84.6451 94.6636 87.0301 98.7848 88.9919 98.4311Z" fill="white"/>
<path d="M105.257 104.89C102.492 104.89 99.7374 103.774 97.7466 101.612L84.2935 86.9823C84.2131 86.8918 84.2131 86.7511 84.3036 86.6706C84.394 86.5902 84.5348 86.5902 84.6153 86.6807L98.0684 101.31C101.487 105.03 107.288 105.503 111.26 102.376L135.029 83.6844C135.13 83.604 135.26 83.6241 135.341 83.7246C135.421 83.8252 135.401 83.9559 135.301 84.0363L111.542 102.728C109.702 104.176 107.48 104.89 105.257 104.89Z" fill="white"/>
<path d="M143.546 86.1479C143.485 86.1479 143.435 86.1379 143.375 86.1278L136.779 84.6397C135.693 84.3984 134.758 83.7448 134.144 82.8098C134.134 82.7897 134.124 82.7796 134.114 82.7595L132.073 79.0996C131.862 78.7276 132.003 78.255 132.375 78.0439C132.747 77.8327 133.219 77.9735 133.431 78.3455L135.462 81.9752C135.854 82.5584 136.447 82.9606 137.131 83.1215L143.726 84.6095C144.149 84.7 144.41 85.1223 144.31 85.5346C144.219 85.8965 143.897 86.1479 143.546 86.1479Z" fill="white"/>
<path d="M148.282 83.2314C148.161 83.2314 148.07 83.141 148.06 83.0203C148.05 82.8996 148.141 82.789 148.271 82.789L163.635 81.8339C167.496 81.5925 170.935 79.1292 172.413 75.5598L181.492 53.5602C181.542 53.4496 181.673 53.3993 181.784 53.4395C181.894 53.4898 181.955 53.6205 181.904 53.7311L172.825 75.7307C171.287 79.461 167.697 82.0249 163.665 82.2763L148.302 83.2314C148.292 83.2314 148.292 83.2314 148.282 83.2314Z" fill="white"/>
<path d="M182.085 54.2044C181.492 54.2044 180.899 54.0737 180.336 53.8123C180.315 53.8022 180.305 53.7922 180.285 53.7922L176.756 51.8315C176.384 51.6204 176.243 51.1478 176.455 50.7758C176.666 50.4038 177.138 50.263 177.51 50.4741L181.009 52.4147C181.623 52.6862 182.296 52.7264 182.93 52.5052L189.083 50.3736C189.485 50.2328 189.928 50.444 190.069 50.8562C190.209 51.2584 189.998 51.7008 189.586 51.8416L183.432 53.9732C183 54.124 182.538 54.2044 182.085 54.2044Z" fill="white"/>
<path d="M145.033 52.2632C150.064 52.2632 154.143 46.4562 154.143 39.2928C154.143 32.1294 150.064 26.3223 145.033 26.3223C140.002 26.3223 135.924 32.1294 135.924 39.2928C135.924 46.4562 140.002 52.2632 145.033 52.2632Z" fill="#0F172A"/>
<path d="M145.033 52.4849C139.885 52.4849 135.703 46.5628 135.703 39.2933C135.703 32.0237 139.885 26.1016 145.033 26.1016C150.181 26.1016 154.364 32.0237 154.364 39.2933C154.364 46.5628 150.181 52.4849 145.033 52.4849ZM145.033 26.544C140.127 26.544 136.145 32.2651 136.145 39.2933C136.145 46.3215 140.137 52.0425 145.033 52.0425C149.94 52.0425 153.922 46.3215 153.922 39.2933C153.922 32.2651 149.94 26.544 145.033 26.544Z" fill="white"/>
<path d="M116.328 68.7432C134.564 68.7432 149.347 54.9413 149.347 37.9157C149.347 20.8901 134.564 7.08813 116.328 7.08813C98.0914 7.08813 83.3081 20.8901 83.3081 37.9157C83.3081 54.9413 98.0914 68.7432 116.328 68.7432Z" fill="#0F172A"/>
<path d="M116.328 68.9549C97.9979 68.9549 83.0869 55.0292 83.0869 37.9162C83.0869 20.8032 97.9979 6.86743 116.328 6.86743C134.657 6.86743 149.568 20.7931 149.568 37.9162C149.568 55.0392 134.657 68.9549 116.328 68.9549ZM116.328 7.30984C98.2393 7.30984 83.5293 21.0445 83.5293 37.9162C83.5293 54.7879 98.2393 68.5225 116.328 68.5225C134.416 68.5225 149.126 54.7879 149.126 37.9162C149.126 21.0445 134.416 7.30984 116.328 7.30984Z" fill="white"/>
<path d="M144.018 54.7367C147.376 49.9407 149.347 44.2095 149.387 38.046C149.397 36.6685 149.307 35.3212 149.126 33.994C143.294 37.0707 134.767 38.9912 125.276 38.9308C115.332 38.8806 106.464 36.6685 100.672 33.2701C97.0123 31.7619 96.0068 48.0906 99.2645 50.4535C104.905 54.5457 114.658 57.2806 125.759 57.3409C132.555 57.3912 138.85 56.4259 144.018 54.7367Z" fill="white"/>
<path d="M118.962 50.4744C120.006 50.4744 120.852 48.8313 120.852 46.8045C120.852 44.7776 120.006 43.1345 118.962 43.1345C117.918 43.1345 117.072 44.7776 117.072 46.8045C117.072 48.8313 117.918 50.4744 118.962 50.4744Z" fill="#2563EB"/>
<path d="M138.83 49.7713C139.874 49.7713 140.72 48.1282 140.72 46.1013C140.72 44.0745 139.874 42.4314 138.83 42.4314C137.786 42.4314 136.94 44.0745 136.94 46.1013C136.94 48.1282 137.786 49.7713 138.83 49.7713Z" fill="#2563EB"/>
<path d="M85.1984 52.2652C90.2294 52.2652 94.3079 46.4581 94.3079 39.2947C94.3079 32.1313 90.2294 26.3242 85.1984 26.3242C80.1673 26.3242 76.0889 32.1313 76.0889 39.2947C76.0889 46.4581 80.1673 52.2652 85.1984 52.2652Z" fill="#0F172A"/>
<path d="M85.1984 52.4869C80.0504 52.4869 75.8677 46.5647 75.8677 39.2952C75.8677 32.0257 80.0504 26.1035 85.1984 26.1035C90.3464 26.1035 94.5291 32.0257 94.5291 39.2952C94.5291 46.5647 90.3363 52.4869 85.1984 52.4869ZM85.1984 26.5459C80.2917 26.5459 76.3101 32.267 76.3101 39.2952C76.3101 46.3234 80.3018 52.0445 85.1984 52.0445C90.1051 52.0445 94.0867 46.3234 94.0867 39.2952C94.0867 32.267 90.095 26.5459 85.1984 26.5459Z" fill="white"/>
<path d="M83.881 46.7635C83.7603 46.7635 83.6598 46.6629 83.6598 46.5423C83.6598 46.4216 83.7603 46.3211 83.881 46.3211C84.8462 46.3211 87.0482 43.6666 87.0482 39.2929C87.0482 34.9191 84.8462 32.2647 83.881 32.2647C83.328 32.2647 82.3527 33.1294 81.6288 34.7381C81.5785 34.8487 81.4478 34.899 81.3372 34.8487C81.2266 34.7984 81.1763 34.6677 81.2266 34.5571C81.9505 32.9484 83.0465 31.8223 83.881 31.8223C85.1579 31.8223 87.4906 34.6577 87.4906 39.2929C87.4906 43.9281 85.1579 46.7635 83.881 46.7635Z" fill="white"/>
<path d="M244.927 110.339L236.149 95.6889L225.682 94.8242L224.465 100.354L231.262 114.692L244.927 110.339Z" fill="#0F172A"/>
<path d="M231.262 114.913C231.182 114.913 231.101 114.862 231.061 114.782L224.264 100.444C224.244 100.404 224.234 100.353 224.244 100.303L225.461 94.7832C225.481 94.6726 225.581 94.6022 225.692 94.6123L236.149 95.477C236.219 95.487 236.28 95.5273 236.32 95.5876L245.098 110.237C245.128 110.298 245.138 110.368 245.118 110.428C245.098 110.489 245.037 110.539 244.977 110.559L231.313 114.913C231.303 114.903 231.282 114.913 231.262 114.913ZM224.697 100.323L231.373 114.42L244.585 110.217L236.018 95.8993L225.863 95.0647L224.697 100.323Z" fill="white"/>
<path d="M217.729 80.5762L215.155 100.354C215.155 100.354 227.834 104.979 228.759 100.917C229.684 96.8546 231.956 86.5185 231.956 86.5185L217.729 80.5762Z" fill="#0F172A"/>
<path d="M225.31 102.808C221.298 102.808 215.386 100.676 215.074 100.556C214.974 100.515 214.913 100.425 214.934 100.314L217.508 80.5368C217.518 80.4664 217.558 80.4061 217.618 80.3759C217.678 80.3458 217.749 80.3357 217.809 80.3659L232.026 86.3182C232.127 86.3584 232.177 86.469 232.157 86.5696C232.137 86.6701 229.875 96.956 228.96 100.968C228.829 101.551 228.477 102.003 227.904 102.305C227.261 102.667 226.346 102.808 225.31 102.808ZM215.396 100.204C216.673 100.656 224.908 103.441 227.703 101.923C228.155 101.672 228.427 101.33 228.537 100.877C229.382 97.1571 231.393 88.0577 231.695 86.6701L217.92 80.8887L215.396 100.204Z" fill="white"/>
<path d="M243.197 89.3444C243.207 87.263 241.387 85.3527 239.306 85.2521C240.834 81.4414 239.215 76.8163 236.048 74.192C232.881 71.5677 228.497 70.7634 224.415 71.2963C222.153 71.5879 219.91 72.2816 218.05 73.6088C216.2 74.936 214.772 76.947 214.461 79.2093C214.149 81.4716 215.084 83.935 216.995 85.1717C217.256 84.4477 217.527 83.7238 217.789 82.9999C218.643 85.1516 220.584 86.7201 222.716 87.615C224.847 88.5199 227.17 88.8416 229.452 89.1533C229.01 90.5409 228.99 92.0189 228.789 93.4567C228.588 94.8945 228.145 96.3927 227.079 97.368C225.581 98.7354 223.279 98.7253 221.328 98.1723C219.377 97.6193 217.568 96.6239 215.587 96.2418C214.903 97.8405 214.209 99.4694 213.978 101.199C213.747 102.928 214.038 104.798 215.144 106.146C216.814 108.187 219.76 108.509 222.394 108.669C224.485 108.8 226.687 108.911 228.547 107.956C230.87 106.759 232.137 104.165 232.71 101.621C233.283 99.0773 233.333 96.4228 234.047 93.9092C235.234 93.8589 236.42 93.8187 237.607 93.7684C238.692 93.7282 239.356 93.6578 240.261 93.2355C241.86 92.4915 243.187 91.2447 243.197 89.3444Z" fill="white"/>
<path d="M233.675 92.9554C233.675 92.9554 236.038 87.1538 239.648 91.2762C243.257 95.3987 237.124 101.622 233.102 97.1281L233.675 92.9554Z" fill="#0F172A"/>
<path d="M236.279 98.9169C235.163 98.9169 233.997 98.4443 232.951 97.278C232.911 97.2277 232.891 97.1674 232.901 97.097L233.464 92.9243C233.464 92.9042 233.474 92.8841 233.474 92.8741C233.524 92.7534 234.691 89.9482 236.692 89.6063C237.727 89.4354 238.773 89.9482 239.819 91.1246C241.769 93.3567 240.985 96.182 239.256 97.7204C238.441 98.4443 237.385 98.9169 236.279 98.9169ZM233.343 97.0568C235.214 99.0778 237.506 98.6857 238.964 97.3987C240.573 95.9709 241.266 93.4673 239.487 91.4262C238.562 90.3604 237.647 89.8979 236.772 90.0487C235.093 90.3302 234.017 92.7434 233.896 93.0148L233.343 97.0568Z" fill="white"/>
<path d="M235.294 96.4738C235.264 96.4738 235.244 96.4738 235.214 96.4638C235.103 96.4235 235.043 96.2928 235.083 96.1822C235.555 94.9254 236.651 93.94 237.958 93.6183C238.079 93.5881 238.2 93.6585 238.23 93.7792C238.26 93.8998 238.19 94.0205 238.069 94.0506C236.903 94.3422 235.927 95.217 235.505 96.3431C235.465 96.4135 235.384 96.4738 235.294 96.4738Z" fill="white"/>
<path d="M223.54 95.9688C223.349 95.9688 223.148 95.9487 222.957 95.8984C222.152 95.7175 221.489 95.1645 221.077 94.3601C220.674 93.5658 220.574 92.6106 220.795 91.6755C221.016 90.7404 221.519 89.926 222.233 89.3931C222.957 88.8501 223.791 88.649 224.596 88.8401C226.235 89.2222 227.21 91.1124 226.757 93.063C226.345 94.7723 224.978 95.9688 223.54 95.9688ZM223.992 89.2121C223.48 89.2121 222.957 89.3931 222.494 89.745C221.871 90.2176 221.418 90.9415 221.227 91.776C221.036 92.6106 221.127 93.4552 221.479 94.159C221.821 94.8427 222.384 95.3052 223.057 95.4661C224.465 95.7878 225.923 94.6617 226.325 92.9524C226.717 91.2431 225.903 89.5942 224.495 89.2624C224.324 89.2322 224.153 89.2121 223.992 89.2121Z" fill="white"/>
<path d="M213.465 89.9859C213.043 91.8159 213.937 93.5855 215.466 93.9374C216.994 94.2893 218.573 93.0928 218.995 91.2629C219.417 89.4329 218.522 87.6633 216.994 87.3114C215.466 86.9595 213.887 88.156 213.465 89.9859Z" fill="#0F172A"/>
<path d="M215.999 94.2192C215.808 94.2192 215.607 94.1991 215.416 94.1489C213.777 93.7668 212.801 91.8765 213.254 89.9259C213.706 87.9753 215.406 86.7084 217.044 87.0804C218.683 87.4625 219.659 89.3528 219.206 91.3034C218.814 93.0328 217.447 94.2192 215.999 94.2192ZM213.686 90.0365C213.294 91.7458 214.109 93.3948 215.516 93.7266C216.924 94.0584 218.382 92.9222 218.784 91.2129C219.176 89.5036 218.362 87.8546 216.954 87.5228C215.546 87.2011 214.078 88.3272 213.686 90.0365Z" fill="white"/>
<path d="M221.006 91.9573C220.946 91.9573 220.875 91.9272 220.835 91.8769C220.805 91.8367 220.021 90.9217 219.106 91.4647C219.005 91.525 218.864 91.4948 218.804 91.3842C218.744 91.2837 218.774 91.1429 218.884 91.0826C219.88 90.4994 220.825 91.163 221.177 91.5954C221.257 91.6859 221.237 91.8266 221.147 91.9071C221.106 91.9372 221.056 91.9573 221.006 91.9573Z" fill="white"/>
<path d="M226.526 93.2344C226.406 93.2344 226.315 93.1439 226.305 93.0233C226.295 92.9026 226.385 92.792 226.516 92.792L233.665 92.3496C233.786 92.3496 233.896 92.43 233.896 92.5608C233.906 92.6814 233.816 92.792 233.685 92.792L226.536 93.2344C226.536 93.2344 226.536 93.2344 226.526 93.2344Z" fill="white"/>
<path d="M185.775 152.626L184.277 144.985C189.153 137.675 193.939 131.059 198.162 125.237C202.697 118.983 208.237 113.554 215.939 112.94C229.754 111.834 248.948 111.472 262.985 111.372C275.091 111.281 285.799 119.305 289.016 130.968C293.209 146.201 293.39 160.971 293.47 171.81C293.561 184.72 274.99 183.785 274.99 183.785H219.358L214.009 162.057L204.386 175.309C199.811 181.614 191.506 182.7 184.498 179.311C182.91 178.537 181.361 177.552 179.873 176.385C184.961 164.108 185.775 152.626 185.775 152.626Z" fill="#2563EB"/>
<path d="M161.563 146.663L178.435 154.034C180.376 150.907 182.326 147.89 184.267 144.984L185.765 152.626C185.765 152.626 197.991 172.524 179.863 176.395C169.989 168.673 162.649 153.501 161.563 146.663Z" fill="#0F172A"/>
<path d="M179.873 176.617C179.823 176.617 179.773 176.596 179.732 176.566C175.318 173.118 170.874 167.698 167.224 161.303C164.178 155.974 161.926 150.374 161.342 146.694C161.322 146.573 161.403 146.463 161.523 146.443C161.644 146.422 161.755 146.503 161.775 146.624C162.77 152.918 169.708 168.181 179.994 176.214C180.094 176.285 180.104 176.425 180.034 176.526C180.004 176.586 179.933 176.617 179.873 176.617Z" fill="white"/>
<path d="M278.499 163.094C278.459 163.094 278.409 163.084 278.369 163.054C273.341 159.424 267.58 156.468 262 153.613C260.793 153 259.546 152.356 258.34 151.733C258.229 151.672 258.189 151.542 258.249 151.431C258.31 151.32 258.44 151.28 258.551 151.341C259.757 151.964 261.004 152.607 262.211 153.221C267.801 156.076 273.593 159.042 278.64 162.692C278.741 162.763 278.761 162.903 278.69 163.004C278.64 163.064 278.57 163.094 278.499 163.094Z" fill="white"/>
<path d="M268.494 156.156C268.384 156.156 268.293 156.076 268.273 155.965L265.981 139.717C265.961 139.596 266.051 139.486 266.172 139.466C266.293 139.446 266.403 139.536 266.423 139.657L268.716 155.905C268.736 156.026 268.645 156.136 268.525 156.156C268.515 156.156 268.505 156.156 268.494 156.156Z" fill="white"/>
<path d="M213.999 162.28C213.898 162.28 213.808 162.209 213.788 162.109C213.013 158.59 211.465 152.889 209.967 147.389C209.223 144.644 208.519 142.05 207.916 139.747C207.885 139.627 207.956 139.506 208.077 139.476C208.197 139.446 208.318 139.516 208.348 139.637C208.951 141.929 209.655 144.523 210.399 147.268C211.897 152.778 213.446 158.479 214.23 162.008C214.26 162.129 214.18 162.249 214.059 162.27C214.039 162.28 214.019 162.28 213.999 162.28Z" fill="white"/>
<path d="M276.247 183.998C267.972 183.998 261.004 180.569 256.499 177.573C251.291 174.114 248.174 170.485 248.144 170.444C248.063 170.354 248.074 170.213 248.164 170.133C248.254 170.052 248.395 170.062 248.476 170.153C248.506 170.193 251.593 173.783 256.751 177.201C261.496 180.358 269.027 183.998 277.926 183.495C278.046 183.485 278.157 183.586 278.157 183.706C278.167 183.827 278.067 183.938 277.946 183.938C277.383 183.978 276.81 183.998 276.247 183.998Z" fill="white"/>
<path d="M175.378 170.826C175.278 170.826 175.187 170.755 175.157 170.645C175.137 170.524 175.207 170.404 175.328 170.383C179.42 169.539 182.859 166.08 183.694 161.988C183.714 161.867 183.834 161.787 183.955 161.817C184.076 161.837 184.156 161.958 184.126 162.078C183.261 166.341 179.672 169.941 175.419 170.826C175.409 170.826 175.399 170.826 175.378 170.826Z" fill="white"/>
<path d="M180.677 173.662C179.984 173.662 179.431 173.098 179.431 172.415C179.431 171.721 179.994 171.168 180.677 171.168C181.371 171.168 181.924 171.731 181.924 172.415C181.934 173.098 181.371 173.662 180.677 173.662ZM180.677 171.6C180.235 171.6 179.873 171.962 179.873 172.405C179.873 172.847 180.235 173.209 180.677 173.209C181.12 173.209 181.482 172.847 181.482 172.405C181.492 171.962 181.13 171.6 180.677 171.6Z" fill="white"/>
<path d="M230.87 112.076L234.52 118.963L231.202 125.197C231.202 125.197 236.28 145.578 236.099 145.447C235.918 145.307 226.537 145.447 226.537 145.447L229.412 125.197L227.361 118.963L230.87 112.076Z" fill="#1D4ED8"/>
<path d="M244.203 104.756L231.202 110.879L228.266 108.667L223.771 114.418L227.361 122.311L231.262 114.69L234.691 123.246L249.411 111.854L244.203 104.756Z" fill="#0F172A"/>
<path d="M225.592 112.297C225.541 112.297 225.491 112.277 225.451 112.247C225.35 112.167 225.34 112.036 225.411 111.935L228.075 108.527C228.145 108.436 228.286 108.416 228.387 108.487L231.222 110.608L244.102 104.545C244.203 104.505 244.313 104.525 244.374 104.616L249.582 111.714C249.652 111.815 249.632 111.955 249.532 112.026C249.431 112.096 249.29 112.076 249.22 111.976L244.122 105.028L231.283 111.071C231.212 111.111 231.122 111.101 231.051 111.05L228.286 108.979L225.752 112.217C225.722 112.277 225.662 112.297 225.592 112.297Z" fill="white"/>
<path d="M257.726 151.422C257.726 151.422 252.337 164.594 248.315 170.305C248.315 170.305 233.394 161.427 227.311 153.785C227.311 153.785 223.772 160.512 221.871 158.179C221.871 158.179 219.217 160.19 217.638 157.355C217.638 157.355 215.306 156.771 214.672 154.238C214.029 151.704 215.446 149.16 215.446 149.16C215.446 149.16 211.857 153.956 210.349 152.991C208.84 152.026 211.897 146.254 214.451 143.801C217.005 141.348 221.097 137.044 231.313 139.457C240.653 141.669 257.726 151.422 257.726 151.422Z" fill="#0F172A"/>
<path d="M221.58 158.109C221.449 158.109 221.358 158.009 221.358 157.878C221.449 154.118 222.545 150.448 224.526 147.25C224.586 147.15 224.727 147.11 224.827 147.18C224.928 147.24 224.968 147.381 224.898 147.482C222.957 150.609 221.891 154.208 221.801 157.888C221.801 158.009 221.7 158.109 221.58 158.109Z" fill="white"/>
<path d="M217.548 157.023C217.437 157.023 217.337 156.933 217.327 156.822C216.945 152.75 218.101 148.517 220.484 145.209C220.554 145.109 220.695 145.088 220.796 145.159C220.896 145.229 220.916 145.37 220.846 145.471C218.523 148.698 217.397 152.831 217.769 156.792C217.779 156.913 217.689 157.023 217.568 157.033C217.558 157.023 217.558 157.023 217.548 157.023Z" fill="white"/>
<path d="M215.597 149.3C215.577 149.3 215.567 149.3 215.547 149.29C215.426 149.26 215.356 149.139 215.386 149.029C215.808 147.209 216.693 145.51 217.93 144.102C218.01 144.012 218.151 144.001 218.241 144.082C218.332 144.162 218.342 144.303 218.261 144.394C217.065 145.741 216.22 147.37 215.808 149.119C215.788 149.23 215.698 149.3 215.597 149.3Z" fill="white"/>
<path d="M227.713 153.353C227.673 153.353 227.633 153.343 227.592 153.313C227.492 153.243 227.462 153.112 227.532 153.011L229.412 150.136C229.483 150.035 229.613 150.005 229.714 150.075C229.814 150.146 229.845 150.277 229.774 150.377L227.894 153.253C227.854 153.323 227.783 153.353 227.713 153.353Z" fill="white"/>
<path d="M240.482 164.333C240.442 164.333 240.402 164.323 240.362 164.303C240.261 164.233 240.231 164.102 240.291 164.001C243.73 158.632 246.304 152.78 247.953 146.627C247.983 146.506 248.104 146.436 248.224 146.466C248.345 146.496 248.415 146.617 248.385 146.737C246.726 152.941 244.132 158.833 240.673 164.243C240.623 164.293 240.553 164.333 240.482 164.333Z" fill="white"/>
<path d="M245.279 166.514C245.108 166.514 244.947 166.484 244.786 166.424C244.082 166.152 243.69 165.277 243.952 164.573C244.213 163.86 245.078 163.467 245.792 163.719C245.802 163.719 245.822 163.729 245.832 163.739C245.842 163.739 245.862 163.749 245.872 163.749C246.576 164.041 246.938 164.925 246.646 165.629C246.435 166.162 245.852 166.514 245.279 166.514ZM245.349 164.081C244.937 164.081 244.525 164.342 244.374 164.724C244.193 165.207 244.464 165.82 244.947 166.011C245.43 166.202 246.043 165.931 246.244 165.458C246.435 164.976 246.184 164.362 245.701 164.161C245.691 164.161 245.681 164.151 245.671 164.151C245.661 164.151 245.651 164.151 245.641 164.141C245.55 164.091 245.45 164.081 245.349 164.081Z" fill="white"/>
<path d="M154.556 133.877H178.757C179.27 133.877 179.763 134.118 180.084 134.52L199.6 159.345C200.465 160.451 199.681 162.07 198.273 162.07H174.906C174.403 162.07 173.921 161.849 173.609 161.457L153.259 136.632C152.354 135.526 153.138 133.877 154.556 133.877Z" fill="white"/>
<path d="M165.254 137.064C165.535 136.792 165.947 136.531 166.279 136.722C166.571 136.883 166.631 137.285 166.651 137.627C166.842 140.985 164.992 144.574 167.214 147.711C167.174 144.705 167.938 141.598 169.839 139.306C170.311 138.743 171.136 138.21 171.689 138.682C172.02 138.974 172.051 139.477 172.031 139.919C171.87 143.69 170.392 147.591 171.689 151.13C171.92 148.878 172.443 146.666 173.237 144.554C173.559 143.69 173.971 142.805 174.705 142.262C175.439 141.729 176.605 141.689 177.158 142.423C177.742 143.207 177.38 144.313 177.058 145.238C176.123 147.923 175.731 150.808 175.902 153.644C176.264 151.422 176.706 149.029 178.325 147.5C178.797 147.058 179.38 146.696 180.024 146.636C180.667 146.585 181.361 146.887 181.643 147.49C181.944 148.144 181.693 148.918 181.492 149.612C180.698 152.296 180.718 155.202 181.482 157.887C182.055 159.898 184.518 162.612 181.914 164.181C181.019 164.724 179.913 164.764 178.888 164.613C175.982 164.191 173.458 162.391 171.186 160.491C168.863 158.55 166.671 156.419 164.972 153.885C163.283 151.351 161.674 148.395 161.584 145.329C161.523 142.302 163.052 139.135 165.254 137.064Z" fill="#0F172A"/>
<path d="M21.6532 52.5654H66.9192L59.157 42.6817V17.0926C59.157 14.9409 57.4075 13.1914 55.2558 13.1914H21.6532C19.5015 13.1914 17.752 14.9409 17.752 17.0926V48.6642C17.752 50.8159 19.5015 52.5654 21.6532 52.5654Z" fill="#0F172A"/>
<path d="M66.9192 52.7869H21.6532C19.3808 52.7869 17.5308 50.9368 17.5308 48.6644V17.0929C17.5308 14.8205 19.3808 12.9705 21.6532 12.9705H55.2558C57.5281 12.9705 59.3782 14.8205 59.3782 17.0929V42.6116L67.0901 52.4349C67.1404 52.5053 67.1504 52.5958 67.1102 52.6662C67.0801 52.7366 66.9996 52.7869 66.9192 52.7869ZM21.6532 13.4129C19.6221 13.4129 17.9732 15.0618 17.9732 17.0929V48.6644C17.9732 50.6955 19.6221 52.3444 21.6532 52.3444H66.4567L58.976 42.8227C58.9458 42.7825 58.9257 42.7322 58.9257 42.6819V17.0929C58.9257 15.0618 57.2768 13.4129 55.2457 13.4129H21.6532Z" fill="white"/>
<path d="M26.3787 44.0721C26.3385 44.0721 26.2983 44.062 26.2581 44.0419C26.1575 43.9715 26.1274 43.8408 26.1877 43.7403L35.3274 29.4526C35.4078 29.3219 35.6189 29.3219 35.6994 29.4526L41.2898 38.1901L51.0629 22.2032C51.1232 22.1027 51.264 22.0624 51.3645 22.1328C51.4651 22.1932 51.5053 22.3339 51.4349 22.4345L41.4808 38.723C41.4406 38.7833 41.3702 38.8235 41.2898 38.8336C41.2093 38.8336 41.149 38.7934 41.0987 38.733L35.5285 29.9755L26.5698 43.9715C26.5295 44.0419 26.4592 44.0721 26.3787 44.0721Z" fill="#2563EB"/>
<path d="M52.0485 24.516L51.6061 24.6065L51.1737 22.4649L49.0723 23.048L48.9517 22.6257L51.5156 21.9119L52.0485 24.516Z" fill="#2563EB"/>
<path d="M46.6492 46.7751H24.3179C24.1972 46.7751 24.0967 46.6746 24.0967 46.5539V26.8167C24.0967 26.696 24.1972 26.5955 24.3179 26.5955C24.4385 26.5955 24.5391 26.696 24.5391 26.8167V46.3327H46.6593C46.78 46.3327 46.8805 46.4333 46.8805 46.5539C46.8704 46.6746 46.78 46.7751 46.6492 46.7751Z" fill="white"/>
<path d="M188.158 44.7834C200.525 44.7834 210.55 34.7583 210.55 22.3917C210.55 10.0251 200.525 0 188.158 0C175.792 0 165.767 10.0251 165.767 22.3917C165.767 34.7583 175.792 44.7834 188.158 44.7834Z" fill="white"/>
<path d="M188.158 41.1839C198.537 41.1839 206.95 32.7703 206.95 22.3917C206.95 12.0131 198.537 3.59961 188.158 3.59961C177.78 3.59961 169.366 12.0131 169.366 22.3917C169.366 32.7703 177.78 41.1839 188.158 41.1839Z" fill="#0F172A"/>
<path d="M181.683 33.1185V10.5056H189.435C191.989 10.5056 193.94 11.0184 195.277 12.044C196.614 13.0696 197.278 14.5979 197.278 16.6289C197.278 17.6645 196.996 18.5996 196.443 19.4241C195.88 20.2486 195.066 20.8921 193.99 21.3546C195.207 21.6864 196.152 22.3098 196.825 23.2247C197.489 24.1397 197.831 25.2457 197.831 26.5227C197.831 28.6442 197.147 30.273 195.79 31.4092C194.432 32.5454 192.482 33.1185 189.948 33.1185H181.683ZM185.614 20.0274H189.465C190.682 20.0274 191.637 19.7458 192.331 19.1928C193.015 18.6398 193.367 17.8556 193.367 16.84C193.367 15.724 193.045 14.9095 192.411 14.4169C191.778 13.9242 190.783 13.6728 189.435 13.6728H185.614V20.0274ZM185.614 22.913V29.9815H189.978C191.215 29.9815 192.17 29.6798 192.864 29.0665C193.558 28.4532 193.899 27.6086 193.899 26.5227C193.899 24.1699 192.703 22.9734 190.3 22.9231H185.614V22.913Z" fill="white"/>
<path d="M186.499 31.7729H184.689V36.5992H186.499V31.7729Z" fill="white"/>
<path d="M186.499 7.32959H184.689V12.4575H186.499V7.32959Z" fill="white"/>
<path d="M190.722 7.32959H188.912V12.3066H190.722V7.32959Z" fill="white"/>
<path d="M190.722 30.5659H188.912V36.5987H190.722V30.5659Z" fill="white"/>
<path d="M186.238 30.1636H179.099V33.18H186.238V30.1636Z" fill="white"/>
<path d="M186.288 10.5466H179.149V13.563H186.288V10.5466Z" fill="white"/>
<path d="M283.225 77.8825C288.884 77.8825 293.471 73.2953 293.471 67.6368C293.471 61.9783 288.884 57.3911 283.225 57.3911C277.567 57.3911 272.979 61.9783 272.979 67.6368C272.979 73.2953 277.567 77.8825 283.225 77.8825Z" fill="#2563EB"/>
<path d="M281.958 74.1228C281.948 74.1228 281.948 74.1228 281.958 74.1228C281.586 74.1228 281.244 73.9318 281.033 73.6302L276.981 67.5471C276.639 67.0343 276.78 66.3506 277.293 66.0087C277.806 65.6669 278.489 65.8076 278.831 66.3204L281.968 71.0361L287.991 62.1779C288.333 61.6752 289.027 61.5445 289.529 61.8863C290.032 62.2282 290.163 62.922 289.821 63.4247L282.873 73.6402C282.662 73.9419 282.32 74.1228 281.958 74.1228Z" fill="#0F172A"/>
<path d="M283.225 108.139C283.104 108.139 283.004 108.038 283.004 107.918L283.185 79.1514C283.185 79.0307 283.285 78.9302 283.406 78.9302C283.527 78.9302 283.627 79.0307 283.627 79.1514L283.446 107.918C283.446 108.038 283.346 108.139 283.225 108.139Z" fill="white"/>
<path d="M283.225 56.7588C283.104 56.7588 283.004 56.6582 283.004 56.5376L283.074 45.4976H224.576C224.456 45.4976 224.355 45.397 224.355 45.2764C224.355 45.1557 224.456 45.0552 224.576 45.0552H283.305C283.366 45.0552 283.416 45.0753 283.466 45.1155C283.506 45.1557 283.527 45.216 283.527 45.2764L283.456 56.5476C283.446 56.6582 283.346 56.7588 283.225 56.7588Z" fill="white"/>
<path d="M85.3898 172.278H30.2803C30.1596 172.278 30.0591 172.177 30.0591 172.057V147.966C30.0591 147.845 30.1596 147.744 30.2803 147.744C30.4009 147.744 30.5015 147.845 30.5015 147.966V171.835H85.3898C85.5105 171.835 85.611 171.936 85.611 172.057C85.611 172.177 85.5105 172.278 85.3898 172.278Z" fill="white"/>
<path d="M169.276 172.279H121.074C120.953 172.279 120.853 172.178 120.853 172.057C120.853 171.937 120.953 171.836 121.074 171.836H169.276C169.396 171.836 169.497 171.937 169.497 172.057C169.497 172.178 169.396 172.279 169.276 172.279Z" fill="white"/>
<path d="M113.362 175.525C115.272 175.525 116.821 173.977 116.821 172.066C116.821 170.156 115.272 168.608 113.362 168.608C111.452 168.608 109.903 170.156 109.903 172.066C109.903 173.977 111.452 175.525 113.362 175.525Z" fill="#0F172A"/>
<path d="M113.362 175.747C111.331 175.747 109.682 174.098 109.682 172.067C109.682 170.036 111.331 168.387 113.362 168.387C115.393 168.387 117.042 170.036 117.042 172.067C117.042 174.098 115.383 175.747 113.362 175.747ZM113.362 168.829C111.582 168.829 110.125 170.277 110.125 172.067C110.125 173.857 111.572 175.305 113.362 175.305C115.142 175.305 116.6 173.857 116.6 172.067C116.59 170.277 115.142 168.829 113.362 168.829Z" fill="white"/>
<path d="M103.277 175.525C105.187 175.525 106.736 173.977 106.736 172.066C106.736 170.156 105.187 168.608 103.277 168.608C101.367 168.608 99.8184 170.156 99.8184 172.066C99.8184 173.977 101.367 175.525 103.277 175.525Z" fill="#0F172A"/>
<path d="M103.277 175.747C101.246 175.747 99.5972 174.098 99.5972 172.067C99.5972 170.036 101.246 168.387 103.277 168.387C105.308 168.387 106.957 170.036 106.957 172.067C106.957 174.098 105.298 175.747 103.277 175.747ZM103.277 168.829C101.497 168.829 100.04 170.277 100.04 172.067C100.04 173.857 101.487 175.305 103.277 175.305C105.057 175.305 106.515 173.857 106.515 172.067C106.505 170.277 105.057 168.829 103.277 168.829Z" fill="white"/>
<path d="M93.1922 175.525C95.1024 175.525 96.651 173.977 96.651 172.066C96.651 170.156 95.1024 168.608 93.1922 168.608C91.282 168.608 89.7334 170.156 89.7334 172.066C89.7334 173.977 91.282 175.525 93.1922 175.525Z" fill="#0F172A"/>
<path d="M93.1922 175.747C91.1612 175.747 89.5122 174.098 89.5122 172.067C89.5122 170.036 91.1612 168.387 93.1922 168.387C95.2232 168.387 96.8722 170.036 96.8722 172.067C96.8722 174.098 95.2232 175.747 93.1922 175.747ZM93.1922 168.829C91.4125 168.829 89.9546 170.277 89.9546 172.067C89.9546 173.857 91.4025 175.305 93.1922 175.305C94.9719 175.305 96.4298 173.857 96.4298 172.067C96.4298 170.277 94.9719 168.829 93.1922 168.829Z" fill="white"/>
</svg>
