<svg width="33" height="32" viewBox="0 0 33 32" fill="none" xmlns="http://www.w3.org/2000/svg">
<path d="M6.55957 10.8972C8.35191 10.8973 9.27441 11.768 9.27441 13.4695V25.0554C9.27434 26.7567 8.35184 27.614 6.55957 27.614H2.70215C0.922746 27.614 7.41132e-05 26.7568 0 25.0554V13.4695C0 11.7679 0.922674 10.8972 2.70215 10.8972H6.55957ZM18.249 7.11792C20.0415 7.11792 20.9512 7.98864 20.9512 9.69019V25.0554C20.9512 26.7569 20.0415 27.614 18.249 27.614H14.3789C12.5994 27.614 11.6768 26.7569 11.6768 25.0554V9.69019C11.6768 7.98864 12.5994 7.11792 14.3789 7.11792H18.249ZM29.9268 3.32495C31.7188 3.32508 32.6405 4.19507 32.6406 5.89624V25.0554C32.6405 26.7566 31.7189 27.6139 29.9268 27.614H26.0557C24.2893 27.614 23.3673 26.7568 23.3672 25.0554V5.89624C23.3673 4.19495 24.2894 3.32495 26.0557 3.32495H29.9268Z" fill="#34C759"/>
</svg>
