<svg width="24" height="24" viewBox="0 0 24 24" fill="none" xmlns="http://www.w3.org/2000/svg">
<path d="M3.75049 4.54688H21.7505C21.869 4.54702 21.9856 4.57751 22.0894 4.63477C22.1932 4.69208 22.2809 4.77473 22.3442 4.875C22.4075 4.97522 22.4445 5.08972 22.4517 5.20801C22.4587 5.3265 22.4353 5.44555 22.3843 5.55273L14.8843 21.3027V21.3037C14.846 21.3892 14.7906 21.4663 14.7222 21.5303C14.6537 21.5942 14.5728 21.6444 14.4849 21.6768C14.3972 21.709 14.3038 21.723 14.2104 21.7188C14.1168 21.7145 14.0246 21.6917 13.9399 21.6514C13.8554 21.6111 13.7796 21.5543 13.7173 21.4844C13.6549 21.4143 13.6069 21.3319 13.5767 21.2432C13.5465 21.1545 13.534 21.0603 13.5405 20.9668C13.5471 20.8734 13.5724 20.7818 13.6147 20.6982L13.6157 20.6973L16.3188 15.0205L16.3511 14.9531H3.75049C3.61134 14.9532 3.47462 14.9122 3.35889 14.835C3.24332 14.7578 3.15337 14.6479 3.1001 14.5195C3.04683 14.391 3.03288 14.2488 3.06006 14.1123C3.08726 13.9761 3.15424 13.8511 3.25244 13.7529L7.22314 9.7832L7.25635 9.75L7.22314 9.7168L3.25244 5.74707C3.15424 5.64887 3.08726 5.52389 3.06006 5.3877C3.03288 5.25123 3.04683 5.10902 3.1001 4.98047C3.15337 4.85212 3.24332 4.74221 3.35889 4.66504C3.47462 4.58779 3.61134 4.54677 3.75049 4.54688ZM5.52686 6.0332L8.74756 9.25293C8.81276 9.31811 8.86455 9.39532 8.8999 9.48047C8.93529 9.56583 8.95361 9.6576 8.95361 9.75C8.95361 9.8424 8.93529 9.93417 8.8999 10.0195C8.86455 10.1047 8.81276 10.1819 8.74756 10.2471L5.52686 13.4668L5.44678 13.5469H17.02L17.0327 13.5205L20.603 6.02051L20.6343 5.95312H5.44678L5.52686 6.0332Z" fill="#94A3B8" stroke="#94A3B8" stroke-width="0.09375"/>
</svg>
