<svg width="304" height="203" viewBox="0 0 304 203" fill="none" xmlns="http://www.w3.org/2000/svg">
<path d="M293.349 202.058H134.33C134.198 202.058 134.087 201.948 134.087 201.815V131.978H0.242912C0.110415 131.978 0 131.868 0 131.735C0 131.603 0.110415 131.492 0.242912 131.492H134.33C134.463 131.492 134.573 131.603 134.573 131.735V201.572H293.349C293.482 201.572 293.592 201.683 293.592 201.815C293.592 201.948 293.482 202.058 293.349 202.058Z" fill="white"/>
<path d="M55.4053 85.2705L80.6792 82.1016L83.0973 87.8762L63.5208 97.405C63.5208 97.4161 53.8264 90.7249 55.4053 85.2705Z" fill="#2563EB"/>
<path d="M49.1012 105.44C49.1012 105.44 112.17 60.6448 131.25 65.8784C150.329 71.1121 146.023 95.7014 134.794 105.186C126.988 111.778 114.632 122.322 79.7081 130.46C44.795 138.586 49.1012 105.44 49.1012 105.44Z" fill="#0F172A"/>
<path d="M103.879 122.685C103.779 122.685 103.691 122.629 103.658 122.53C100.467 114.547 85.9253 99.0227 85.7817 98.8682C85.6934 98.7688 85.6934 98.6142 85.7928 98.5259C85.8921 98.4375 86.0467 98.4375 86.135 98.5369C86.2786 98.6915 100.886 114.282 104.111 122.353C104.166 122.475 104.099 122.618 103.978 122.674C103.945 122.685 103.912 122.685 103.879 122.685Z" fill="white"/>
<path d="M69.6172 131.982C63.71 131.982 58.9733 130.392 55.4731 127.223C47.1147 119.66 48.8482 105.549 48.8593 105.405C48.8703 105.339 48.9035 105.273 48.9587 105.24C49.0249 105.195 55.4952 100.602 64.77 94.6178C64.8804 94.5405 65.035 94.5736 65.1013 94.6951C65.1786 94.8055 65.1454 94.96 65.024 95.0263C56.3454 100.624 50.1291 104.997 49.323 105.571C49.1795 106.874 47.9981 119.814 55.7933 126.859C60.9938 131.562 69.021 132.689 79.6539 130.204C114.357 122.122 126.492 111.865 134.519 105.074L134.629 104.986C141.608 99.0896 145.571 87.6064 143.639 78.8506C142.645 74.3236 139.664 68.4274 131.173 66.0977C120.761 63.2379 96.8675 75.6375 78.6602 86.5244C78.5498 86.5906 78.3952 86.5575 78.3289 86.436C78.2627 86.3256 78.2958 86.1711 78.4173 86.1048C96.7019 75.1627 120.717 62.719 131.306 65.6229C140.029 68.0189 143.087 74.0696 144.114 78.7402C145.086 83.1678 144.655 88.3573 142.888 93.348C141.166 98.2173 138.339 102.49 134.95 105.361L134.839 105.449C130.842 108.828 125.862 113.035 117.416 117.507C107.423 122.796 95.1009 127.102 79.7643 130.679C76.0765 131.551 72.6867 131.982 69.6172 131.982Z" fill="white"/>
<path d="M62.8257 111.606C62.7594 111.606 62.6822 111.573 62.638 111.517C62.5497 111.418 62.5607 111.263 62.6711 111.175C72.3324 103.071 116.012 79.5634 116.443 79.3316C116.564 79.2653 116.708 79.3095 116.774 79.4309C116.84 79.5524 116.796 79.6959 116.675 79.7622C116.233 79.994 72.5974 103.479 62.9803 111.551C62.9361 111.584 62.8809 111.606 62.8257 111.606Z" fill="white"/>
<path d="M102.619 128.477C103.105 129.074 103.204 129.902 102.873 130.597C102.542 131.293 101.846 131.735 101.073 131.735C95.0002 131.735 79.9949 131.735 46.5834 131.735C40.9412 131.735 35.5088 129.604 31.3683 125.75C25.5053 120.296 16.6611 111.97 9.19703 104.595C0.739276 96.2364 -1.92172 83.6491 2.40653 72.5745C2.47278 72.4089 2.53903 72.2433 2.60528 72.0777C6.27104 62.7697 17.6769 59.3579 25.8255 65.1547C42.2441 76.8476 68.2467 96.0376 78.5484 107.499C78.5484 107.499 96.1595 120.572 102.619 128.477Z" fill="#0F172A"/>
<path d="M57.1291 131.979C57.0849 131.979 57.0408 131.968 57.0076 131.946C43.8021 124.173 28.6863 110.724 18.5061 97.6841C17.137 95.9285 15.7347 94.0404 14.9066 91.9094C14.8624 91.7879 14.9176 91.6444 15.0501 91.5892C15.1716 91.545 15.3151 91.6002 15.3703 91.7327C16.1763 93.8085 17.5565 95.6635 18.9036 97.386C29.0507 110.382 44.1112 123.786 57.2616 131.526C57.372 131.592 57.4162 131.747 57.3499 131.857C57.2947 131.935 57.2174 131.979 57.1291 131.979Z" fill="white"/>
<path d="M54.3684 127.619C54.3132 127.619 54.258 127.597 54.2138 127.564C54.1144 127.475 54.1034 127.321 54.1917 127.221C61.0043 119.404 68.899 112.614 77.6438 107.038C77.7542 106.96 77.9088 106.994 77.975 107.115C78.0523 107.225 78.0192 107.38 77.8977 107.446C69.1971 113 61.3356 119.757 54.5561 127.542C54.5009 127.597 54.4346 127.619 54.3684 127.619Z" fill="white"/>
<path d="M47.5771 121.657C47.5108 121.657 47.4556 121.635 47.4114 121.591C47.3121 121.502 47.3121 121.348 47.4114 121.249C54.5001 113.95 62.3064 107.259 70.5985 101.374C70.7089 101.297 70.8635 101.319 70.9408 101.429C71.0181 101.54 70.996 101.694 70.8856 101.771C62.6155 107.645 54.8423 114.314 47.7648 121.591C47.7096 121.635 47.6433 121.657 47.5771 121.657Z" fill="white"/>
<path d="M101.084 131.979H46.5948C40.8643 131.979 35.4099 129.825 31.2141 125.928C25.1855 120.308 16.4406 112.082 9.04285 104.772C0.518847 96.3367 -2.17527 83.6721 2.19715 72.4871L2.3959 71.9903C4.17357 67.4743 7.85037 64.0956 12.4988 62.7155C17.1252 61.3353 22.0386 62.1523 25.9804 64.9569C26.0909 65.0342 26.1129 65.1887 26.0357 65.2992C25.9584 65.4096 25.8038 65.4317 25.6934 65.3544C21.8841 62.6382 17.1252 61.8542 12.6313 63.1792C8.12641 64.5152 4.56002 67.7945 2.83755 72.1669L2.64985 72.6638C-1.65632 83.6721 0.99363 96.1379 9.38514 104.43C16.7829 111.74 25.5167 119.965 31.5453 125.574C35.6417 129.395 40.9858 131.493 46.5948 131.493H101.084C101.758 131.493 102.376 131.095 102.663 130.488C102.95 129.881 102.862 129.152 102.431 128.633C96.0606 120.838 78.5819 107.831 78.4053 107.698C78.3942 107.687 78.3832 107.676 78.3722 107.665C75.3689 104.32 70.7867 100.069 64.758 95.0117C64.6587 94.9234 64.6366 94.7688 64.7249 94.6694C64.8132 94.5701 64.9678 94.548 65.0672 94.6363C71.1069 99.7043 75.7001 103.966 78.7144 107.323C79.399 107.831 96.4912 120.606 102.807 128.324C103.348 128.986 103.469 129.925 103.094 130.698C102.73 131.482 101.935 131.979 101.084 131.979Z" fill="white"/>
<path d="M96.2481 37.3072C94.5698 35.0437 92.2842 33.3323 89.7005 32.3607C88.4638 31.8969 87.3266 31.7203 85.8912 31.4773C82.8879 30.9805 80.3925 30.9142 78.6701 30.9363C78.4934 30.4505 78.107 29.6445 77.323 28.9599C76.4949 28.2312 75.6226 27.9882 74.7945 27.7564C73.3481 27.3699 72.1777 27.392 71.8133 27.403C64.2499 27.5576 62.7041 27.1822 60.9817 28.6176C60.5069 29.0151 59.8334 29.6997 59.2813 30.859C58.42 30.9253 57.0288 31.0357 55.3174 31.2344C55.3174 31.2344 53.2747 31.4773 51.74 31.7203C46.3959 32.5594 41.7143 35.7393 38.8877 40.3436C33.7093 48.7903 24.7436 63.8178 24.2688 75.8971C23.4959 95.3743 55.1187 87.1152 55.1187 87.1152L90.628 83.858L111.198 67.9362C111.209 67.9142 104.805 48.8676 96.2481 37.3072Z" fill="#2563EB"/>
<path d="M55.5287 83.1629C55.2858 84.8081 56.9421 86.0668 58.4658 85.3933C61.5684 84.0242 64.925 83.3286 68.3148 83.3617L82.9778 83.5052C82.9778 83.5052 84.1261 64.6133 63.4013 66.8989C63.3903 66.9099 57.1298 72.3423 55.5287 83.1629Z" fill="#0F172A"/>
<path d="M72.1683 83.8369C72.1573 83.8369 72.1462 83.8369 72.1352 83.8369C72.0027 83.8149 71.9144 83.6934 71.9254 83.5609C72.08 82.523 71.8371 81.3747 71.2408 80.3147C70.744 79.4204 70.0042 78.5812 68.9773 77.7421C68.7896 77.5875 68.5799 77.4219 68.348 77.3225C68.2265 77.2673 68.1713 77.1237 68.2265 77.0023C68.2817 76.8808 68.4253 76.8256 68.5467 76.8808C68.8338 77.0023 69.0657 77.19 69.2865 77.3667C70.3575 78.2389 71.1304 79.1333 71.6604 80.0718C72.3008 81.2201 72.5658 82.4788 72.4002 83.6272C72.3892 83.7486 72.2898 83.8369 72.1683 83.8369Z" fill="white"/>
<path d="M76.9051 83.5641C76.7837 83.5641 76.6843 83.4757 76.6622 83.3543C76.4856 82.1066 76.2316 80.6491 75.6906 79.28C75.1275 77.8777 74.3104 76.7294 73.3167 75.9675C73.2062 75.8902 73.1952 75.7357 73.2725 75.6253C73.3498 75.5148 73.5044 75.5038 73.6148 75.5811C74.6748 76.3981 75.547 77.6127 76.1433 79.1033C76.7064 80.5166 76.9714 82.0072 77.148 83.288C77.1701 83.4205 77.0708 83.542 76.9383 83.5641C76.9272 83.5641 76.9162 83.5641 76.9051 83.5641Z" fill="white"/>
<path d="M80.7033 83.5592C80.6923 83.5592 80.6812 83.5592 80.6702 83.5592C80.5377 83.5481 80.4383 83.4267 80.4604 83.2942C81.0898 77.9832 77.6228 74.6818 77.5896 74.6487C77.4903 74.5604 77.4903 74.4058 77.5786 74.3064C77.6669 74.2071 77.8215 74.2071 77.9209 74.2954C77.954 74.3285 81.6087 77.7955 80.9462 83.3494C80.9352 83.4708 80.8248 83.5592 80.7033 83.5592Z" fill="white"/>
<path d="M118.761 86.3873H65.2874C64.9672 86.3873 64.658 86.31 64.393 86.1223C63.7857 85.7027 63.5649 84.9519 63.8078 84.3004C64.4372 82.9755 65.7401 82.5117 67.6723 82.5117H122.272L121.566 84.4329C121.124 85.6033 120.009 86.3873 118.761 86.3873Z" fill="white"/>
<path d="M119.07 86.3867C120.141 86.3867 121.102 85.7353 121.499 84.7415L130.962 60.9803C131.216 60.3509 131.139 59.6333 130.752 59.0701C130.377 58.507 129.736 58.1758 129.063 58.1758H96.1924C94.2159 58.1758 92.4493 59.4235 91.7868 61.2895L82.8984 86.3867H119.07Z" fill="white"/>
<path d="M111.719 70.4075C112.71 70.1734 113.324 69.1803 113.09 68.1892C112.856 67.1982 111.863 66.5844 110.872 66.8185C109.881 67.0525 109.267 68.0456 109.501 69.0367C109.735 70.0278 110.728 70.6415 111.719 70.4075Z" fill="#2563EB"/>
<path d="M38.4011 67.4932C38.2686 67.4932 38.1582 67.3828 38.1582 67.2503C38.1582 67.1178 38.2576 67.0074 38.4011 67.0074L62.3059 66.5547C62.4494 66.5547 62.5488 66.6541 62.5488 66.7976C62.5488 66.9301 62.4494 67.0405 62.3059 67.0405L38.4011 67.4932Z" fill="white"/>
<path d="M46.3848 66.1383C46.3628 66.1383 46.3407 66.1383 46.3186 66.1272C46.1861 66.0831 46.1198 65.9506 46.153 65.8291C47.0252 62.9252 48.2288 60.1096 49.7304 57.4818C50.0506 56.9187 50.5696 56.1789 51.3535 56.212C51.486 56.212 51.5964 56.3335 51.5854 56.466C51.5854 56.5985 51.475 56.7089 51.3314 56.6978C50.9339 56.6868 50.5585 57.007 50.15 57.7247C48.6704 60.3305 47.4779 63.1019 46.6167 65.9727C46.5836 66.072 46.4953 66.1383 46.3848 66.1383Z" fill="white"/>
<path d="M68.777 57.0967C68.7328 57.0967 68.6997 57.0857 68.6555 57.0636C68.5341 56.9974 68.4899 56.8538 68.5562 56.7324C71.438 51.4656 71.8134 44.9953 69.5499 39.4414C69.4947 39.32 69.5609 39.1765 69.6824 39.1212C69.8038 39.066 69.9474 39.1323 70.0026 39.2537C72.3103 44.9511 71.9348 51.576 68.9868 56.9642C68.9426 57.0526 68.8543 57.0967 68.777 57.0967Z" fill="white"/>
<path d="M67.683 59.4693C67.3186 59.4693 66.9653 59.2927 66.7113 58.9725C66.4243 58.6081 66.3249 58.1554 66.4684 57.769C66.612 57.3825 66.9653 57.0954 67.429 57.0071C67.8817 56.9188 68.3234 57.0513 68.5994 57.3604C68.6105 57.3825 68.6326 57.3935 68.6326 57.4156C68.6546 57.4267 68.6657 57.4488 68.6767 57.4598C68.9196 57.8021 68.9528 58.2548 68.7761 58.6854C68.5884 59.116 68.2351 59.4031 67.8265 59.4583C67.7824 59.4693 67.7272 59.4693 67.683 59.4693ZM67.694 57.4708C67.6388 57.4708 67.5726 57.4819 67.5174 57.4929C67.2303 57.5481 67.0095 57.7248 66.9211 57.9456C66.8438 58.1664 66.899 58.4535 67.0868 58.6744C67.2634 58.8952 67.5284 59.0166 67.7713 58.9835C68.0142 58.9504 68.224 58.7627 68.3455 58.4977C68.4559 58.2327 68.4449 57.9456 68.3013 57.7469C68.2903 57.7358 68.2903 57.7248 68.2792 57.7137C68.2682 57.7027 68.2571 57.6917 68.2461 57.6806C68.1026 57.5481 67.9149 57.4708 67.694 57.4708Z" fill="white"/>
<path d="M77.8545 53.1523C77.8325 53.1523 77.8104 53.1523 77.7883 53.1413C77.6558 53.1082 77.5785 52.9757 77.6227 52.8432C78.8593 48.3824 78.1747 43.3475 75.8119 39.3726C75.7456 39.2622 75.7787 39.1076 75.9002 39.0414C76.0106 38.9751 76.1652 39.0082 76.2314 39.1297C78.6716 43.215 79.3672 48.3935 78.0974 52.9757C78.0643 53.0861 77.9649 53.1523 77.8545 53.1523Z" fill="white"/>
<path d="M77.291 56.1239C76.9266 56.1239 76.5733 55.9252 76.3414 55.5939C76.0985 55.2406 76.0433 54.821 76.1979 54.4677C76.3525 54.1144 76.6948 53.8715 77.1143 53.8052C77.5339 53.75 77.9424 53.8825 78.1854 54.1806C78.2074 54.2138 78.2295 54.2358 78.2295 54.269C78.2626 54.291 78.2847 54.3131 78.2958 54.3463C78.4835 54.6775 78.4835 55.0971 78.2737 55.4725C78.0639 55.8479 77.7216 56.0908 77.3352 56.1018C77.3241 56.1239 77.3131 56.1239 77.291 56.1239ZM77.3131 54.28C77.2689 54.28 77.2358 54.28 77.1916 54.291C76.9377 54.3242 76.7279 54.4677 76.6506 54.6665C76.5623 54.8542 76.6064 55.1081 76.75 55.3179C76.8935 55.5277 77.1143 55.6491 77.3241 55.6381C77.5339 55.6271 77.7437 55.4835 77.8652 55.2627C77.9866 55.0419 77.9977 54.7879 77.8872 54.6002C77.8762 54.5781 77.8652 54.5671 77.8652 54.545C77.8431 54.534 77.832 54.5229 77.821 54.5008C77.6995 54.3573 77.5118 54.28 77.3131 54.28Z" fill="white"/>
<path d="M78.4937 10.987C78.4937 10.987 86.4987 13.3057 85.8804 4.95837C85.3173 -2.54982 82.6894 3.20278 81.6294 2.87153C80.4811 2.50716 81.4307 0.1995 79.9511 0.0117956C78.4937 -0.175909 77.3785 1.94405 75.921 1.57968C74.4635 1.21531 71.5707 -1.0261 68.7551 0.596993C66.4033 1.95509 66.2928 4.71546 66.2928 4.71546C66.2928 4.71546 63.3779 4.95837 62.7154 9.39703C62.0419 13.8247 68.0926 22.0726 68.0926 22.0726L78.4937 10.987Z" fill="white"/>
<path d="M76.8811 22.1397L73.2815 37.3659C73.2815 37.3659 63.1565 31.0612 63.0792 30.9619C63.0019 30.8625 66.9989 17.6238 66.9989 17.6238C66.9989 17.6238 68.5448 13.7924 76.8811 22.1397Z" fill="#0F172A"/>
<path d="M75.4563 28.388C75.4342 28.388 75.4232 28.388 75.4011 28.3769C75.2686 28.3438 75.1913 28.2113 75.2245 28.0788L76.6157 22.1937C71.636 17.2361 69.2179 16.8165 68.2131 17.0153C67.4954 17.1478 67.2525 17.6226 67.2194 17.6999C67.12 18.0201 65.519 23.32 64.4038 27.1182C64.3707 27.2507 64.2272 27.317 64.1057 27.2838C63.9732 27.2507 63.907 27.1072 63.9401 26.9857C65.0884 23.0881 66.7446 17.6115 66.7557 17.5563C66.7777 17.5011 67.0869 16.7613 68.0917 16.5626C69.4387 16.2865 72.0776 17.0042 77.0463 21.9729C77.1015 22.0281 77.1346 22.1164 77.1125 22.2048L75.6882 28.2224C75.6661 28.3107 75.5667 28.388 75.4563 28.388Z" fill="white"/>
<path d="M75.0378 38.8266C74.9936 38.8266 74.9384 38.8155 74.9053 38.7824L73.1386 37.5678C73.0282 37.4906 72.9951 37.336 73.0724 37.2256C73.1497 37.1151 73.3043 37.082 73.4147 37.1593L75.1813 38.3739C75.2917 38.4512 75.3249 38.6057 75.2476 38.7162C75.1924 38.7824 75.1151 38.8266 75.0378 38.8266Z" fill="white"/>
<path d="M69.0535 20.4887C69.0535 20.4887 71.1183 25.2696 76.5396 24.3863C81.961 23.503 82.0935 16.6021 81.6077 9.2816C80.8237 9.66805 79.8631 9.93304 78.4719 9.88888C76.1201 9.82263 71.2287 8.87306 70.9968 8.33203C71.8801 10.4078 72.2114 12.5278 71.1183 13.8528C70.6877 14.4269 69.8706 14.8465 68.4352 14.8796C68.4352 14.8796 67.7506 12.583 65.708 13.919C63.6653 15.244 64.4272 20.8641 69.0535 20.4887Z" fill="#0F172A"/>
<path d="M75.2482 24.7388C71.196 24.7388 69.2969 21.5037 68.9104 20.7418C66.8788 20.8523 65.3109 19.8144 64.6705 17.9484C64.0853 16.248 64.4828 14.4372 65.587 13.7084C66.2605 13.2668 66.8899 13.1453 67.4309 13.3441C68.1265 13.598 68.4798 14.2936 68.6123 14.6249C69.7385 14.5807 70.5115 14.2715 70.931 13.7084C72.0793 12.3172 71.4831 10.0648 70.7875 8.41958C70.7323 8.29812 70.7875 8.15458 70.92 8.09938C71.0414 8.04417 71.185 8.09938 71.2402 8.23187C71.5714 8.62937 76.0432 9.56789 78.4944 9.63414C79.6538 9.66726 80.6254 9.47956 81.5087 9.04894C81.586 9.01582 81.6633 9.01582 81.7406 9.05998C81.8069 9.10415 81.851 9.1704 81.8621 9.25873C82.3258 16.2038 82.3258 23.6899 76.5842 24.6174C76.1095 24.6947 75.6678 24.7388 75.2482 24.7388ZM69.054 20.245C69.1534 20.245 69.2417 20.3002 69.2748 20.3885C69.3521 20.5762 71.3396 24.9818 76.507 24.1426C81.7517 23.2924 81.8179 16.2701 81.3983 9.64518C80.5261 10.0095 79.5875 10.1641 78.4834 10.131C76.8934 10.0868 73.0951 9.51268 71.5052 8.88332C72.1235 10.5616 72.4768 12.6264 71.3285 14.0066C70.7985 14.7132 69.8269 15.0886 68.4577 15.1107C68.3473 15.1107 68.259 15.0445 68.2259 14.934C68.2259 14.923 67.9498 14.0397 67.2763 13.7968C66.8788 13.6532 66.404 13.7526 65.863 14.1059C64.9576 14.7022 64.6374 16.3142 65.1343 17.7827C65.4103 18.5998 66.3488 20.4658 69.0429 20.2339C69.0319 20.245 69.0429 20.245 69.054 20.245Z" fill="white"/>
<path d="M67.6942 17.7894C67.5948 17.7894 67.4954 17.7232 67.4623 17.6238C67.3408 17.2815 67.2304 16.9282 67.0206 16.6411C66.8109 16.3541 66.5238 16.1663 66.2588 16.1553C66.1263 16.1443 66.0269 16.0339 66.0379 15.9014C66.049 15.7689 66.1705 15.6695 66.2919 15.6805C66.7115 15.7136 67.12 15.9566 67.4181 16.3761C67.661 16.7184 67.8046 17.127 67.926 17.4803C67.9702 17.6128 67.904 17.7453 67.7715 17.7894C67.7494 17.7894 67.7273 17.7894 67.6942 17.7894Z" fill="white"/>
<path d="M296.265 84.4531H165.225C161.592 84.4531 158.633 87.4012 158.633 91.0449V184.798C158.633 188.431 161.581 191.39 165.225 191.39H302.845V91.0449C302.856 87.4012 299.908 84.4531 296.265 84.4531Z" fill="#0F172A"/>
<path d="M302.856 191.629H165.224C161.459 191.629 158.39 188.571 158.39 184.795V91.0417C158.39 87.2766 161.448 84.207 165.224 84.207H296.264C300.029 84.207 303.099 87.2655 303.099 91.0417V191.386C303.099 191.519 302.989 191.629 302.856 191.629ZM165.224 84.6929C161.724 84.6929 158.887 87.5416 158.887 91.0307V184.784C158.887 188.284 161.735 191.121 165.224 191.121H302.602V91.0417C302.602 87.5416 299.753 84.7039 296.264 84.7039H165.224V84.6929Z" fill="white"/>
<path d="M167.455 186.985C165.368 186.985 163.679 185.296 163.679 183.209V92.6358C163.679 90.549 165.368 88.8596 167.455 88.8596H294.045C296.132 88.8596 297.821 90.549 297.821 92.6358V182.701C297.821 185.064 295.9 186.985 293.537 186.985H167.455Z" fill="#0F172A"/>
<path d="M293.537 187.225H167.455C165.235 187.225 163.436 185.425 163.436 183.206V92.6326C163.436 90.4133 165.235 88.6135 167.455 88.6135H294.045C296.264 88.6135 298.064 90.4133 298.064 92.6326V182.698C298.064 185.193 296.032 187.225 293.537 187.225ZM167.455 89.0994C165.5 89.0994 163.921 90.6893 163.921 92.6326V183.206C163.921 185.16 165.511 186.739 167.455 186.739H293.537C295.767 186.739 297.578 184.928 297.578 182.698V92.6326C297.578 90.6783 295.988 89.0994 294.045 89.0994H167.455Z" fill="white"/>
<path d="M293.35 201.824H131.736C126.491 201.824 122.229 196.491 122.229 191.246H302.846V192.328C302.857 197.573 298.595 201.824 293.35 201.824Z" fill="#0F172A"/>
<path d="M293.35 202.064H131.736C126.16 202.064 121.986 196.344 121.986 191.243C121.986 191.11 122.097 191 122.229 191H302.845C302.978 191 303.088 191.11 303.088 191.243V192.325C303.099 197.691 298.727 202.064 293.35 202.064ZM122.483 191.486C122.616 196.3 126.524 201.578 131.736 201.578H293.35C298.451 201.578 302.613 197.426 302.613 192.314V191.475H122.483V191.486Z" fill="white"/>
<path d="M284.317 146.552L281.038 146.574C279.602 146.586 278.454 146.309 278.454 145.967L278.675 125.894C278.675 125.529 279.89 125.231 281.369 125.209L284.604 125.176C286.051 125.165 287.199 125.43 287.199 125.783C287.166 128.908 287.044 142.677 287.022 145.868C287.011 146.232 285.797 146.541 284.317 146.552Z" fill="#2563EB"/>
<path d="M284.494 126.129L281.215 126.162C279.779 126.173 278.631 126.007 278.631 125.775L278.785 112.846C278.785 112.614 280 112.415 281.48 112.393L284.715 112.36C286.161 112.349 287.309 112.514 287.309 112.746C287.287 114.767 287.21 123.633 287.188 125.676C287.199 125.908 285.984 126.118 284.494 126.129Z" fill="#BFDBFE"/>
<path d="M282.782 156.192L281.711 156.203L281.976 126.788L283.047 126.777L282.782 156.192Z" fill="#2563EB"/>
<path d="M283.181 119.655L282.099 119.666L282.364 103.601L283.446 103.59L283.181 119.655Z" fill="#BFDBFE"/>
<path d="M272.889 133.096L269.61 133.14C268.175 133.163 267.026 132.931 267.026 132.633L267.137 120.189C267.137 119.88 268.351 119.615 269.831 119.593L273.066 119.548C274.512 119.526 275.661 119.747 275.661 120.056C275.65 122.485 275.606 130.027 275.583 132.5C275.583 132.809 274.369 133.085 272.889 133.096Z" fill="#2563EB"/>
<path d="M272.78 143.827L269.501 143.86C268.065 143.871 266.884 143.706 266.884 143.496L267.016 132.797C267.016 132.576 268.264 132.388 269.744 132.366L272.979 132.333C274.425 132.322 275.573 132.476 275.573 132.697C275.562 134.453 275.496 141.619 275.474 143.396C275.485 143.617 274.259 143.816 272.78 143.827Z" fill="#BFDBFE"/>
<path d="M271.731 126.657L270.649 126.668L270.771 113.937L271.842 113.926L271.731 126.657Z" fill="#2563EB"/>
<path d="M271.688 153.11L270.605 153.121L270.738 138.413L271.82 138.402L271.688 153.11Z" fill="#BFDBFE"/>
<path d="M261.286 150.534L258.006 150.556C256.571 150.567 255.423 150.17 255.434 149.673L255.643 130.726C255.655 130.218 256.858 129.787 258.338 129.776L261.573 129.754C263.019 129.743 264.167 130.141 264.167 130.637C264.134 134.038 264.024 146.129 263.991 149.585C263.991 150.104 262.765 150.523 261.286 150.534Z" fill="#BFDBFE"/>
<path d="M261.274 152.092L257.995 152.114C256.559 152.125 255.411 151.882 255.411 151.562L255.555 139.394C255.555 139.063 256.769 138.787 258.249 138.776L261.484 138.743C262.93 138.732 264.079 138.974 264.079 139.295C264.057 141.481 263.99 149.243 263.968 151.462C263.979 151.805 262.754 152.081 261.274 152.092Z" fill="#2563EB"/>
<path d="M260.226 137.076L259.144 137.087L259.265 124.202L260.336 124.18L260.226 137.076Z" fill="#BFDBFE"/>
<path d="M260.192 160.161L259.11 160.183L259.243 145.476L260.325 145.465L260.192 160.161Z" fill="#2563EB"/>
<path d="M237.945 165.921L234.666 165.932C233.23 165.932 232.082 165.38 232.093 164.674L232.181 154.063C232.192 153.345 233.407 152.749 234.875 152.738L238.121 152.727C239.568 152.716 240.716 153.279 240.705 153.985C240.672 157.949 240.683 160.577 240.65 164.607C240.639 165.325 239.424 165.921 237.945 165.921Z" fill="#2563EB"/>
<path d="M238 155.517L234.72 155.528C233.285 155.528 232.136 154.733 232.148 153.739L232.368 128.531C232.379 127.505 233.594 126.654 235.062 126.643L238.309 126.621C239.755 126.61 240.903 127.405 240.892 128.41C240.859 134.063 240.749 147.887 240.716 153.629C240.705 154.667 239.479 155.517 238 155.517Z" fill="#BFDBFE"/>
<path d="M236.322 173.561L235.251 173.583L235.361 160.687L236.443 160.676L236.322 173.561Z" fill="#2563EB"/>
<path d="M237.326 135.334L236.244 135.356L236.377 114.367L237.459 114.355L237.326 135.334Z" fill="#BFDBFE"/>
<path d="M244.646 125.919L244.635 124.186L244.723 115.507C244.734 114.889 245.949 114.381 247.417 114.37L250.652 114.348C252.099 114.337 253.247 114.812 253.236 115.419C253.225 117.053 253.159 125.82 253.159 125.82L244.646 125.919Z" fill="#2563EB"/>
<path d="M250.31 141.95L247.031 141.973C245.596 141.984 244.447 141.652 244.447 141.233L244.635 125.918C244.635 125.488 245.85 125.123 247.329 125.112L250.564 125.09C252.011 125.079 253.159 125.41 253.159 125.83C253.137 128.833 253.038 138.086 253.004 141.144C253.004 141.575 251.79 141.939 250.31 141.95Z" fill="#BFDBFE"/>
<path d="M249.316 120.365L248.245 120.376L248.356 107.491L249.438 107.469L249.316 120.365Z" fill="#2563EB"/>
<path d="M249.206 152.375L248.135 152.386L248.267 137.679L249.338 137.668L249.206 152.375Z" fill="#BFDBFE"/>
<path d="M226.516 148.609L223.237 148.62C221.801 148.62 220.653 148.068 220.664 147.361L220.918 122.805C220.929 122.087 222.144 121.491 223.612 121.48L226.847 121.469C228.294 121.458 229.442 122.021 229.431 122.728C229.387 127.266 229.254 142.68 229.21 147.284C229.221 148.002 227.996 148.598 226.516 148.609Z" fill="#BFDBFE"/>
<path d="M226.461 154.66L223.181 154.682C221.746 154.693 220.598 154.395 220.598 153.997L220.752 140.394C220.752 139.997 221.967 139.655 223.446 139.643L226.681 139.621C228.128 139.61 229.276 139.908 229.276 140.306C229.254 142.823 229.177 151.358 229.155 153.92C229.166 154.318 227.94 154.649 226.461 154.66Z" fill="#2563EB"/>
<path d="M225.599 129.948L224.517 129.959L224.627 117.074L225.709 117.062L225.599 129.948Z" fill="#BFDBFE"/>
<path d="M225.29 163.16L224.219 163.171L224.351 148.464L225.422 148.453L225.29 163.16Z" fill="#2563EB"/>
<path d="M214.977 141.959L211.698 141.981C210.263 141.992 209.114 141.638 209.114 141.197L209.258 128.841C209.258 128.389 210.472 128.002 211.952 127.991L215.198 127.969C216.645 127.958 217.793 128.3 217.793 128.753C217.771 131.204 217.705 138.613 217.682 141.108C217.682 141.561 216.457 141.947 214.977 141.959Z" fill="#BFDBFE"/>
<path d="M214.9 151.478L211.621 151.5C210.185 151.511 209.037 151.158 209.037 150.716L209.181 138.361C209.181 137.908 210.395 137.522 211.875 137.511L215.121 137.489C216.567 137.477 217.716 137.82 217.716 138.272C217.694 140.724 217.627 148.133 217.605 150.628C217.594 151.081 216.38 151.467 214.9 151.478Z" fill="#2563EB"/>
<path d="M213.95 135.932L212.868 135.943L212.979 123.058L214.061 123.047L213.95 135.932Z" fill="#BFDBFE"/>
<path d="M213.553 159.637L212.471 159.648L212.603 144.941L213.685 144.93L213.553 159.637Z" fill="#2563EB"/>
<path d="M203.294 151.245L200.015 151.256C198.58 151.256 197.431 150.704 197.442 149.997L197.564 140.071C197.575 139.353 198.79 138.757 200.258 138.746L203.504 138.735C204.951 138.724 206.099 139.287 206.088 139.994C206.066 142.378 206.022 147.513 206 149.931C206 150.637 204.785 151.234 203.294 151.245Z" fill="#BFDBFE"/>
<path d="M203.36 144.483L200.081 144.494C198.645 144.494 197.497 143.942 197.508 143.235L197.629 133.309C197.64 132.591 198.855 131.995 200.323 131.984L203.57 131.973C205.016 131.962 206.164 132.525 206.153 133.232C206.131 135.616 206.087 140.751 206.065 143.169C206.065 143.875 204.839 144.472 203.36 144.483Z" fill="#2563EB"/>
<path d="M202.058 158.885L200.976 158.896L201.097 146.01L202.168 145.988L202.058 158.885Z" fill="#BFDBFE"/>
<path d="M202.134 139.418L201.063 139.429L201.196 124.733L202.278 124.711L202.134 139.418Z" fill="#2563EB"/>
<path d="M191.702 151.555L188.422 151.566C186.987 151.566 185.839 151.014 185.85 150.308L185.993 137.809C186.004 137.091 187.219 136.495 188.687 136.484L191.934 136.473C193.38 136.462 194.528 137.025 194.517 137.732C194.495 140.558 194.429 147.371 194.407 150.242C194.407 150.959 193.181 151.555 191.702 151.555Z" fill="#BFDBFE"/>
<path d="M191.625 160.555L188.345 160.566C186.91 160.566 185.761 160.014 185.773 159.308L185.916 146.809C185.927 146.091 187.142 145.495 188.61 145.484L191.856 145.473C193.303 145.462 194.451 146.025 194.44 146.732C194.418 149.558 194.352 156.371 194.33 159.242C194.319 159.959 193.104 160.555 191.625 160.555Z" fill="#2563EB"/>
<path d="M190.773 144.147L189.691 144.158L189.813 131.273L190.895 131.262L190.773 144.147Z" fill="#BFDBFE"/>
<path d="M190.399 165.524L189.328 165.535L189.461 150.827L190.532 150.816L190.399 165.524Z" fill="#2563EB"/>
<path d="M180.032 160.29L176.752 160.301C175.317 160.301 174.169 159.749 174.18 159.042L174.279 151.379C174.29 150.661 175.505 150.065 176.973 150.054L180.219 150.043C181.666 150.032 182.814 150.595 182.803 151.302C182.781 153.256 182.748 156.988 182.737 158.976C182.726 159.682 181.511 160.279 180.032 160.29Z" fill="#BFDBFE"/>
<path d="M180.086 153.711L176.807 153.723C175.372 153.723 174.223 153.17 174.234 152.464L174.334 144.801C174.345 144.083 175.559 143.487 177.028 143.476L180.274 143.465C181.721 143.454 182.869 144.017 182.858 144.724C182.836 146.678 182.803 150.41 182.792 152.398C182.792 153.104 181.566 153.7 180.086 153.711Z" fill="#2563EB"/>
<path d="M178.717 166.106L177.724 166.117L177.823 154.788L178.817 154.777L178.717 166.106Z" fill="#BFDBFE"/>
<path d="M179.049 148.375L177.978 148.386L178.11 133.679L179.181 133.668L179.049 148.375Z" fill="#2563EB"/>
<path d="M282.663 30.0501C286.574 26.1392 286.574 19.7983 282.663 15.8874C278.752 11.9765 272.411 11.9765 268.5 15.8874C264.589 19.7983 264.589 26.1392 268.5 30.0501C272.411 33.961 278.752 33.961 282.663 30.0501Z" fill="#2563EB"/>
<path d="M275.584 30.8842C271.222 30.8842 267.667 27.3289 267.667 22.9675C267.667 18.6061 271.222 15.0508 275.584 15.0508C279.945 15.0508 283.5 18.6061 283.5 22.9675C283.5 27.3289 279.945 30.8842 275.584 30.8842ZM275.584 15.5366C271.487 15.5366 268.153 18.8711 268.153 22.9675C268.153 27.0639 271.487 30.3984 275.584 30.3984C279.68 30.3984 283.015 27.0639 283.015 22.9675C283.015 18.8711 279.68 15.5366 275.584 15.5366Z" fill="#BFDBFE"/>
<path d="M278.188 23.4532C277.979 23.1661 277.669 22.9674 277.283 22.8569C277.625 22.7134 277.89 22.5036 278.067 22.2386C278.244 21.9736 278.332 21.6755 278.332 21.3443C278.332 20.6928 278.122 20.207 277.691 19.8868C277.526 19.7543 277.316 19.6549 277.084 19.5776V18.5508H275.969V19.401C275.925 19.401 275.881 19.401 275.836 19.401H275.262V18.5508H274.147V19.401H272.646V20.4057H273.374V25.6063H272.646V26.611H274.147V27.3729H275.262V26.611H275.969V27.3729H277.084V26.4675C277.382 26.3792 277.647 26.2467 277.857 26.07C278.288 25.7056 278.509 25.1867 278.509 24.5132C278.509 24.0936 278.409 23.7403 278.188 23.4532ZM274.622 20.4057H275.836C276.267 20.4057 276.576 20.483 276.786 20.6487C276.985 20.8032 277.095 21.0682 277.095 21.4216C277.095 21.7418 276.985 21.9957 276.764 22.1724C276.543 22.349 276.245 22.4374 275.848 22.4374H274.622V20.4057ZM276.93 25.3192C276.709 25.5179 276.4 25.6063 276.013 25.6063H274.622V23.3538H276.113C276.874 23.3649 277.261 23.7513 277.261 24.5021C277.261 24.8555 277.15 25.1204 276.93 25.3192Z" fill="#0F172A"/>
<path d="M253.251 46.2127C257.677 46.1623 261.225 42.5329 261.175 38.1062C261.124 33.6794 257.495 30.1317 253.068 30.1822C248.641 30.2326 245.094 33.862 245.144 38.2887C245.194 42.7155 248.824 46.2632 253.251 46.2127Z" fill="#2563EB"/>
<path d="M253.157 44.5819C252.075 44.5819 251.015 44.3059 250.044 43.7648C248.553 42.9257 247.482 41.5676 247.018 39.9224C246.554 38.2772 246.764 36.5548 247.592 35.0642C248.431 33.5736 249.79 32.5026 251.435 32.0388C254.824 31.0892 258.358 33.0657 259.307 36.4554C259.771 38.1006 259.561 39.823 258.733 41.3136C257.894 42.8042 256.536 43.8752 254.891 44.339C254.317 44.5046 253.742 44.5819 253.157 44.5819ZM253.168 32.3038C252.638 32.3038 252.108 32.3701 251.567 32.5246C250.055 32.9552 248.796 33.949 248.023 35.3181C247.25 36.6873 247.062 38.2883 247.493 39.801C247.924 41.3136 248.917 42.5724 250.286 43.3453C251.656 44.1182 253.257 44.3059 254.769 43.8752C256.282 43.4446 257.541 42.4509 258.314 41.0818C259.086 39.7126 259.274 38.1116 258.844 36.5989C258.115 34.0042 255.741 32.3038 253.168 32.3038Z" fill="#BFDBFE"/>
<path d="M255.288 38.0105C255.056 37.8338 254.78 37.7455 254.46 37.7455C254.692 37.5578 254.846 37.348 254.935 37.1051C255.012 36.8622 255.023 36.6193 254.946 36.3653C254.802 35.8685 254.537 35.5372 254.14 35.3826C253.974 35.3164 253.797 35.2833 253.599 35.2722L253.378 34.4883L252.516 34.7312L252.704 35.3826C252.671 35.3937 252.638 35.3937 252.605 35.4047L252.163 35.5262L251.975 34.8747L251.114 35.1176L251.302 35.7691L250.143 36.1003L250.363 36.8732L250.927 36.7187L252.053 40.7267L251.49 40.8813L251.71 41.6542L252.87 41.3229L253.035 41.9081L253.897 41.6652L253.731 41.08L254.272 40.9255L254.438 41.5106L255.299 41.2677L255.1 40.5721C255.31 40.4396 255.487 40.274 255.608 40.0973C255.862 39.7219 255.917 39.2803 255.774 38.7503C255.674 38.4301 255.509 38.1872 255.288 38.0105ZM251.876 36.4426L252.815 36.1776C253.146 36.0893 253.411 36.0783 253.599 36.1555C253.786 36.2328 253.919 36.4095 253.996 36.6855C254.062 36.9395 254.04 37.1493 253.908 37.337C253.775 37.5247 253.565 37.6572 253.256 37.7345L252.307 37.9995L251.876 36.4426ZM254.725 39.7109C254.592 39.9096 254.383 40.0532 254.073 40.1305L253.002 40.4286L252.516 38.6951L253.665 38.3749C254.261 38.2203 254.636 38.4301 254.802 39.0153C254.879 39.2803 254.846 39.5232 254.725 39.7109Z" fill="#0F172A"/>
<path d="M38.5018 201.723H5.54306C2.61708 201.723 0.243164 199.349 0.243164 196.423V163.464C0.243164 160.538 2.61708 158.164 5.54306 158.164H38.5018C41.4278 158.164 43.8017 160.538 43.8017 163.464V196.423C43.8017 199.349 41.4278 201.723 38.5018 201.723Z" fill="#0F172A"/>
<path d="M38.5025 201.962H5.54379C2.4853 201.962 0.000976562 199.478 0.000976562 196.42V163.461C0.000976562 160.402 2.4853 157.918 5.54379 157.918H38.5025C41.561 157.918 44.0453 160.402 44.0453 163.461V196.42C44.0453 199.478 41.55 201.962 38.5025 201.962ZM5.54379 158.404C2.76134 158.404 0.486801 160.667 0.486801 163.461V196.42C0.486801 199.202 2.7503 201.477 5.54379 201.477H38.5025C41.285 201.477 43.5595 199.213 43.5595 196.42V163.461C43.5595 160.678 41.296 158.404 38.5025 158.404H5.54379Z" fill="#2563EB"/>
<path d="M14.6514 192.036V167.524H23.0539C25.8253 167.524 27.9342 168.076 29.3807 169.191C30.8271 170.306 31.5558 171.962 31.5558 174.16C31.5558 175.286 31.2577 176.291 30.6504 177.185C30.0432 178.079 29.1598 178.775 27.9894 179.272C29.3144 179.636 30.3413 180.31 31.059 181.303C31.7877 182.297 32.141 183.49 32.141 184.881C32.141 187.177 31.4013 188.955 29.9217 190.181C28.4421 191.417 26.3332 192.036 23.5839 192.036H14.6514ZM18.9134 177.847H23.087C24.412 177.847 25.4499 177.549 26.1897 176.942C26.9405 176.346 27.3049 175.496 27.3049 174.391C27.3049 173.177 26.9626 172.305 26.267 171.764C25.5714 171.223 24.5003 170.958 23.0429 170.958H18.9023V177.847H18.9134ZM18.9134 180.972V188.635H23.6502C24.9862 188.635 26.0351 188.304 26.7859 187.641C27.5367 186.979 27.9122 186.062 27.9122 184.881C27.9122 182.33 26.6093 181.027 24.0035 180.972H18.9134Z" fill="#2563EB"/>
<path d="M19.8746 190.582H17.9092V195.816H19.8746V190.582Z" fill="#2563EB"/>
<path d="M19.8746 164.071H17.9092V169.635H19.8746V164.071Z" fill="#2563EB"/>
<path d="M24.4566 164.071H22.4912V169.47H24.4566V164.071Z" fill="#2563EB"/>
<path d="M24.4566 189.266H22.4912V195.813H24.4566V189.266Z" fill="#2563EB"/>
<path d="M19.5985 188.84H11.8584V192.108H19.5985V188.84Z" fill="#2563EB"/>
<path d="M19.6531 167.559H11.9131V170.827H19.6531V167.559Z" fill="#2563EB"/>
<path d="M109.121 191.479C108.988 191.479 108.878 191.369 108.878 191.236V184.821C108.878 184.755 108.9 184.7 108.944 184.644L121.752 171.836C121.852 171.737 122.006 171.737 122.095 171.836C122.183 171.936 122.194 172.09 122.095 172.179L109.364 184.909V191.225C109.364 191.369 109.264 191.479 109.121 191.479Z" fill="#2563EB"/>
<path d="M122.239 174.754C123.752 174.754 124.978 173.528 124.978 172.016C124.978 170.503 123.752 169.277 122.239 169.277C120.727 169.277 119.501 170.503 119.501 172.016C119.501 173.528 120.727 174.754 122.239 174.754Z" fill="#0F172A"/>
<path d="M122.239 174.994C120.594 174.994 119.258 173.658 119.258 172.012C119.258 170.367 120.594 169.031 122.239 169.031C123.884 169.031 125.22 170.367 125.22 172.012C125.22 173.658 123.884 174.994 122.239 174.994ZM122.239 169.517C120.859 169.517 119.744 170.632 119.744 172.012C119.744 173.393 120.859 174.508 122.239 174.508C123.619 174.508 124.734 173.393 124.734 172.012C124.734 170.632 123.608 169.517 122.239 169.517Z" fill="#2563EB"/>
<path d="M122.239 191.47H43.8005C43.668 191.47 43.5576 191.36 43.5576 191.227C43.5576 191.095 43.668 190.984 43.8005 190.984H122.239C122.372 190.984 122.482 191.095 122.482 191.227C122.482 191.36 122.372 191.47 122.239 191.47Z" fill="#2563EB"/>
<path d="M122.24 193.969C123.753 193.969 124.979 192.743 124.979 191.23C124.979 189.718 123.753 188.492 122.24 188.492C120.728 188.492 119.502 189.718 119.502 191.23C119.502 192.743 120.728 193.969 122.24 193.969Z" fill="#0F172A"/>
<path d="M122.24 194.208C120.595 194.208 119.259 192.872 119.259 191.227C119.259 189.582 120.595 188.246 122.24 188.246C123.885 188.246 125.221 189.582 125.221 191.227C125.221 192.872 123.885 194.208 122.24 194.208ZM122.24 188.721C120.86 188.721 119.745 189.836 119.745 191.216C119.745 192.596 120.86 193.712 122.24 193.712C123.62 193.712 124.735 192.596 124.735 191.216C124.735 189.847 123.609 188.721 122.24 188.721Z" fill="#2563EB"/>
<path d="M96.5339 178.68H61.3779V201.734H96.5339V178.68Z" fill="#0F172A"/>
<path d="M96.5337 201.974H61.3777C61.2452 201.974 61.1348 201.864 61.1348 201.731V178.677C61.1348 178.544 61.2452 178.434 61.3777 178.434H96.5337C96.6662 178.434 96.7766 178.544 96.7766 178.677V201.731C96.7766 201.864 96.6662 201.974 96.5337 201.974ZM61.6206 201.488H96.2908V178.919H61.6206V201.488Z" fill="#2563EB"/>
<path d="M78.5823 184.221C78.6154 184.276 78.6596 184.331 78.7038 184.386C78.2179 184.872 77.8205 185.424 77.5223 186.021C77.4561 185.998 77.4009 185.976 77.3346 185.965C76.4403 185.756 75.5459 186.297 75.3361 187.191C75.1263 188.085 75.6674 188.98 76.5617 189.189C76.628 189.201 76.6942 189.212 76.7605 189.223C76.7605 189.896 76.8709 190.559 77.0807 191.221C77.0255 191.254 76.9592 191.276 76.904 191.32C76.1201 191.795 75.8772 192.822 76.363 193.606C76.8378 194.39 77.8646 194.633 78.6486 194.147C78.7038 194.114 78.759 194.07 78.8142 194.026C79.3 194.511 79.8521 194.909 80.4483 195.207C80.4262 195.273 80.4042 195.329 80.3931 195.395C80.1833 196.289 80.7244 197.183 81.6187 197.393C82.5131 197.603 83.4074 197.062 83.6172 196.168C83.6283 196.101 83.6393 196.035 83.6503 195.969C84.3239 195.969 84.9864 195.859 85.6488 195.649C85.682 195.704 85.7041 195.77 85.7482 195.825C86.223 196.609 87.2499 196.852 88.0338 196.366C88.8177 195.892 89.0607 194.865 88.5748 194.081C88.5417 194.026 88.4975 193.97 88.4534 193.915C88.9392 193.429 89.3367 192.877 89.6348 192.281C89.7011 192.303 89.7563 192.325 89.8225 192.336C90.7169 192.546 91.6112 192.005 91.821 191.111C92.0308 190.216 91.4898 189.322 90.5954 189.112C90.5292 189.101 90.4629 189.09 90.3967 189.079C90.3967 188.406 90.2863 187.743 90.0765 187.081C90.1317 187.047 90.1979 187.025 90.2531 186.981C91.0371 186.506 91.28 185.48 90.7942 184.696C90.3194 183.912 89.2925 183.669 88.5086 184.155C88.4534 184.188 88.3982 184.232 88.343 184.276C87.8571 183.79 87.3051 183.393 86.7088 183.095C86.7309 183.028 86.753 182.973 86.764 182.907C86.9738 182.013 86.4328 181.118 85.5384 180.908C84.6441 180.699 83.7497 181.24 83.5399 182.134C83.5289 182.2 83.5178 182.266 83.5068 182.333C82.8333 182.333 82.1708 182.443 81.5083 182.653C81.4752 182.598 81.4531 182.531 81.4089 182.476C80.9341 181.692 79.9073 181.449 79.1233 181.935C78.3504 182.421 78.0965 183.437 78.5823 184.221ZM86.1899 187.544C87.0842 188.991 86.6315 190.89 85.1741 191.784C83.7276 192.679 81.8285 192.226 80.9341 190.768C80.0398 189.322 80.4925 187.423 81.95 186.528C83.3964 185.645 85.2955 186.098 86.1899 187.544Z" fill="#2563EB"/>
<path d="M68.0043 190.461C68.0263 190.494 68.0484 190.527 68.0705 190.561C67.7834 190.848 67.5516 191.168 67.3749 191.521C67.3418 191.51 67.2976 191.499 67.2645 191.488C66.7455 191.367 66.2155 191.687 66.0941 192.206C65.9726 192.725 66.2928 193.255 66.8118 193.376C66.8559 193.387 66.8891 193.387 66.9332 193.398C66.9332 193.785 66.9995 194.182 67.1209 194.569C67.0878 194.58 67.0547 194.602 67.0216 194.624C66.5689 194.9 66.4253 195.507 66.7014 195.96C66.9774 196.413 67.5847 196.556 68.0374 196.28C68.0705 196.258 68.1036 196.236 68.1367 196.214C68.4238 196.501 68.744 196.733 69.0974 196.909C69.0863 196.943 69.0753 196.987 69.0642 197.02C68.9428 197.539 69.263 198.069 69.7819 198.19C70.3009 198.312 70.8309 197.991 70.9523 197.473C70.9634 197.428 70.9634 197.395 70.9744 197.351C71.3609 197.351 71.7584 197.285 72.1448 197.163C72.1558 197.196 72.1779 197.23 72.2 197.263C72.476 197.715 73.0833 197.859 73.536 197.583C73.9887 197.307 74.1323 196.7 73.8562 196.247C73.8341 196.214 73.8121 196.181 73.79 196.148C74.0771 195.86 74.3089 195.54 74.4856 195.187C74.5187 195.198 74.5629 195.209 74.596 195.22C75.115 195.342 75.6449 195.021 75.7664 194.502C75.8879 193.983 75.5677 193.453 75.0487 193.332C75.0045 193.321 74.9714 193.321 74.9272 193.31C74.9272 192.923 74.861 192.526 74.7395 192.139C74.7727 192.128 74.8058 192.106 74.8389 192.084C75.2916 191.808 75.4352 191.201 75.1591 190.748C74.8831 190.296 74.2758 190.152 73.8231 190.428C73.79 190.45 73.7569 190.472 73.7237 190.494C73.4367 190.207 73.1164 189.975 72.7631 189.799C72.7742 189.766 72.7852 189.721 72.7962 189.688C72.9177 189.169 72.5975 188.639 72.0786 188.518C71.5596 188.396 71.0296 188.717 70.9082 189.236C70.8971 189.28 70.8971 189.313 70.8861 189.357C70.4996 189.357 70.1021 189.423 69.7157 189.545C69.7046 189.512 69.6826 189.479 69.6605 189.445C69.3844 188.993 68.7772 188.849 68.3245 189.125C67.8607 189.401 67.7172 190.009 68.0043 190.461ZM72.454 192.404C72.9729 193.255 72.7079 194.37 71.8577 194.889C71.0075 195.408 69.8923 195.143 69.3734 194.293C68.8544 193.442 69.1194 192.327 69.9696 191.808C70.8198 191.289 71.935 191.554 72.454 192.404Z" fill="#2563EB"/>
<path d="M298.297 72.5308H221.758C221.625 72.5308 221.515 72.4203 221.515 72.2878V44.364C221.515 44.2315 221.625 44.1211 221.758 44.1211C221.89 44.1211 222 44.2315 222 44.364V72.0449H298.297C298.429 72.0449 298.54 72.1554 298.54 72.2878C298.54 72.4203 298.429 72.5308 298.297 72.5308Z" fill="white"/>
<path d="M295.415 53.3516H225.39V69.0967H295.415V53.3516Z" fill="#BFDBFE"/>
<path d="M228.679 65.0914C228.591 65.0914 228.502 65.0473 228.458 64.9589C228.392 64.8375 228.447 64.6939 228.568 64.6277L242.933 57.2962C243.011 57.252 243.11 57.263 243.187 57.3182L248.311 60.8736L270.283 51.0467C270.349 51.0136 270.427 51.0136 270.493 51.0467L279.381 55.4964L292.013 47.6238C292.123 47.5576 292.278 47.5907 292.344 47.7011C292.41 47.8115 292.377 47.9661 292.267 48.0324L279.514 55.9822C279.436 56.0264 279.348 56.0264 279.271 55.9933L270.36 51.5436L248.377 61.3815C248.3 61.4146 248.211 61.4036 248.134 61.3594L243.022 57.8041L228.789 65.0693C228.745 65.0804 228.712 65.0914 228.679 65.0914Z" fill="white"/>
<path d="M290.5 50.6491L290.125 50.351L292.09 47.8446L288.966 48.5071L288.866 48.0323L293.294 47.0938L290.5 50.6491Z" fill="white"/>
<path d="M183.739 31.3011V27.3152C183.739 26.2442 184.611 25.3719 185.682 25.3719H201.284C202.355 25.3719 203.227 26.2442 203.227 27.3152V31.3011H205.634V27.3152C205.634 24.9192 203.68 22.9648 201.284 22.9648H185.682C183.286 22.9648 181.332 24.9192 181.332 27.3152V31.3011H183.739Z" fill="white"/>
<path d="M183.95 33.0929H181.311C180.008 33.0929 178.948 32.033 178.948 30.7301C178.948 29.4272 180.008 28.3672 181.311 28.3672H183.95C185.253 28.3672 186.313 29.4272 186.313 30.7301C186.313 32.033 185.253 33.0929 183.95 33.0929Z" fill="#0F172A"/>
<path d="M183.95 33.3327H181.311C179.875 33.3327 178.705 32.1623 178.705 30.7269C178.705 29.2915 179.875 28.1211 181.311 28.1211H183.95C185.385 28.1211 186.556 29.2915 186.556 30.7269C186.567 32.1623 185.396 33.3327 183.95 33.3327ZM181.311 28.5959C180.14 28.5959 179.191 29.5454 179.191 30.7158C179.191 31.8862 180.14 32.8358 181.311 32.8358H183.95C185.12 32.8358 186.07 31.8862 186.07 30.7158C186.07 29.5454 185.12 28.5959 183.95 28.5959H181.311Z" fill="white"/>
<path d="M205.658 33.0929H203.019C201.716 33.0929 200.656 32.033 200.656 30.7301C200.656 29.4272 201.716 28.3672 203.019 28.3672H205.658C206.961 28.3672 208.021 29.4272 208.021 30.7301C208.021 32.033 206.961 33.0929 205.658 33.0929Z" fill="#0F172A"/>
<path d="M205.658 33.3327H203.019C201.583 33.3327 200.413 32.1623 200.413 30.7269C200.413 29.2915 201.583 28.1211 203.019 28.1211H205.658C207.093 28.1211 208.264 29.2915 208.264 30.7269C208.264 32.1623 207.093 33.3327 205.658 33.3327ZM203.019 28.5959C201.848 28.5959 200.899 29.5454 200.899 30.7158C200.899 31.8862 201.848 32.8358 203.019 32.8358H205.658C206.828 32.8358 207.778 31.8862 207.778 30.7158C207.778 29.5454 206.828 28.5959 205.658 28.5959H203.019Z" fill="white"/>
<path d="M228.226 72.294H167.995L171.838 30.2812H222.43L228.226 72.294Z" fill="#0F172A"/>
<path d="M228.227 72.5337H168.007C167.94 72.5337 167.874 72.5006 167.83 72.4564C167.786 72.4012 167.764 72.335 167.764 72.2687L171.595 30.256C171.606 30.1345 171.717 30.0352 171.838 30.0352H222.441C222.562 30.0352 222.662 30.1235 222.684 30.2449L228.47 72.2577C228.481 72.3239 228.459 72.4012 228.414 72.4454C228.359 72.5006 228.293 72.5337 228.227 72.5337ZM168.261 72.0479H227.94L222.22 30.521H172.059L168.261 72.0479Z" fill="white"/>
<path d="M224.693 72.5306C224.571 72.5306 224.472 72.4423 224.45 72.3208L221.513 49.1559C221.491 49.0234 221.59 48.9019 221.723 48.8798C221.855 48.8688 221.977 48.9571 221.999 49.0896L224.936 72.2546C224.958 72.3871 224.858 72.5086 224.726 72.5306C224.715 72.5306 224.704 72.5306 224.693 72.5306Z" fill="white"/>
<path d="M220.83 72.294H160.599L165.391 30.2812H216.987L220.83 72.294Z" fill="#0F172A"/>
<path d="M220.829 72.5337H160.609C160.542 72.5337 160.476 72.5006 160.432 72.4564C160.388 72.4012 160.366 72.335 160.377 72.2687L165.158 30.256C165.169 30.1345 165.279 30.0352 165.401 30.0352H217.008C217.13 30.0352 217.24 30.1345 217.251 30.256L221.083 72.2687C221.094 72.335 221.061 72.4012 221.017 72.4564C220.961 72.5006 220.895 72.5337 220.829 72.5337ZM160.874 72.0479H220.564L216.777 30.521H165.61L160.874 72.0479Z" fill="white"/>
<path d="M215.882 50.2173H163.59C163.457 50.2173 163.347 50.1069 163.347 49.9744C163.347 49.8419 163.457 49.7315 163.59 49.7315H215.617L214.977 40.7658C214.965 40.6333 215.065 40.5119 215.197 40.5008C215.33 40.4898 215.451 40.5892 215.462 40.7217L216.125 49.9523C216.125 50.0186 216.103 50.0848 216.059 50.14C216.003 50.1842 215.948 50.2173 215.882 50.2173Z" fill="white"/>
<path d="M195.677 49.125H186.005V53.5968H195.677V49.125Z" fill="#0F172A"/>
<path d="M195.677 53.8365H186.005C185.872 53.8365 185.762 53.7261 185.762 53.5936V49.1218C185.762 48.9893 185.872 48.8789 186.005 48.8789H195.677C195.809 48.8789 195.92 48.9893 195.92 49.1218V53.5936C195.92 53.7261 195.809 53.8365 195.677 53.8365ZM186.248 53.3507H195.434V49.3647H186.248V53.3507Z" fill="white"/>
</svg>
