<svg width="24" height="24" viewBox="0 0 24 24" fill="none" xmlns="http://www.w3.org/2000/svg">
<path d="M12 2.29663C12.3852 2.29663 12.7549 2.44923 13.0273 2.72144L20.5273 10.2214V10.2224C20.6628 10.3569 20.7707 10.5168 20.8438 10.6931C20.9168 10.8695 20.9538 11.0588 20.9531 11.2498V20.2498C20.9531 20.4362 20.8789 20.615 20.7471 20.7468C20.6152 20.8787 20.4365 20.9529 20.25 20.9529H3.75C3.56352 20.9529 3.38479 20.8787 3.25293 20.7468C3.12115 20.615 3.04688 20.4362 3.04688 20.2498V11.2498C3.04621 11.0588 3.08318 10.8695 3.15625 10.6931C3.22931 10.5168 3.33721 10.3569 3.47266 10.2224V10.2214L10.9727 2.72144C11.2451 2.44922 11.6148 2.29663 12 2.29663ZM19.5469 11.2302L12 3.68335L4.45312 11.2302V19.5466H19.5469V11.2302Z" fill="#94A3B8" stroke="#94A3B8" stroke-width="0.09375"/>
</svg>
