<svg width="1527" height="1370" viewBox="0 0 1527 1370" fill="none" xmlns="http://www.w3.org/2000/svg">
<g clip-path="url(#clip0_239_4085)">
<rect width="1527" height="1370" fill="#0D0D12"/>
<rect opacity="0.4" x="436" y="154.024" width="1091.4" height="545.698" fill="url(#paint0_radial_239_4085)"/>
<mask id="mask0_239_4085" style="mask-type:alpha" maskUnits="userSpaceOnUse" x="469" y="32" width="842" height="827">
<rect x="810.298" y="32" width="644.747" height="540.493" transform="rotate(39.1308 810.298 32)" fill="url(#paint1_radial_239_4085)"/>
</mask>
<g mask="url(#mask0_239_4085)">
</g>
<g clip-path="url(#clip1_239_4085)">
<g opacity="0.7">
<path opacity="0.11" d="M685.219 453.282C685.696 453.334 686.124 452.989 686.176 452.512C686.227 452.035 685.882 451.606 685.405 451.555C684.928 451.503 684.499 451.849 684.448 452.326C684.397 452.803 684.742 453.231 685.219 453.282Z" fill="white"/>
<path d="M687.511 458.332C687.869 458.37 688.19 458.112 688.229 457.754C688.267 457.396 688.009 457.075 687.651 457.037C687.293 456.998 686.972 457.257 686.934 457.614C686.895 457.972 687.154 458.293 687.511 458.332Z" fill="white"/>
<path d="M702.737 450.802C703.095 450.841 703.416 450.582 703.454 450.225C703.493 449.867 703.234 449.546 702.876 449.507C702.519 449.469 702.198 449.727 702.159 450.085C702.12 450.443 702.379 450.764 702.737 450.802Z" fill="white"/>
<path d="M666.133 445.984C666.49 446.022 666.812 445.764 666.85 445.406C666.889 445.048 666.63 444.727 666.272 444.689C665.915 444.65 665.593 444.909 665.555 445.266C665.516 445.624 665.775 445.945 666.133 445.984Z" fill="white"/>
<path opacity="0.11" d="M643.643 454.042C644.12 454.093 644.549 453.748 644.6 453.271C644.651 452.794 644.306 452.366 643.829 452.314C643.352 452.263 642.924 452.608 642.872 453.085C642.821 453.562 643.166 453.991 643.643 454.042Z" fill="white"/>
<path d="M636.469 443.661C636.707 443.687 636.921 443.515 636.947 443.276C636.972 443.038 636.8 442.824 636.562 442.798C636.323 442.773 636.109 442.945 636.084 443.183C636.058 443.422 636.23 443.636 636.469 443.661Z" fill="white"/>
<path d="M682.105 469.977C682.343 470.002 682.557 469.83 682.583 469.592C682.608 469.353 682.436 469.139 682.198 469.114C681.959 469.088 681.745 469.26 681.72 469.499C681.694 469.737 681.866 469.951 682.105 469.977Z" fill="white"/>
<path d="M776.228 480.12C776.466 480.146 776.68 479.974 776.706 479.735C776.732 479.497 776.559 479.283 776.321 479.257C776.082 479.232 775.868 479.404 775.843 479.642C775.817 479.881 775.99 480.095 776.228 480.12Z" fill="white"/>
<path d="M825.795 461.875C826.034 461.9 826.248 461.728 826.273 461.489C826.299 461.251 826.127 461.037 825.888 461.011C825.65 460.986 825.436 461.158 825.41 461.396C825.385 461.635 825.557 461.849 825.795 461.875Z" fill="white"/>
<path d="M839.241 495.206C839.479 495.232 839.693 495.06 839.719 494.821C839.744 494.583 839.572 494.369 839.334 494.343C839.095 494.318 838.881 494.49 838.856 494.728C838.83 494.967 839.002 495.181 839.241 495.206Z" fill="white"/>
<path d="M539.505 443.695C539.744 443.721 539.958 443.548 539.983 443.31C540.009 443.072 539.837 442.858 539.598 442.832C539.36 442.806 539.146 442.979 539.12 443.217C539.095 443.456 539.267 443.67 539.505 443.695Z" fill="white"/>
<path opacity="0.11" d="M535.544 419.686C535.783 419.711 535.997 419.539 536.022 419.3C536.048 419.062 535.876 418.848 535.637 418.822C535.399 418.797 535.185 418.969 535.159 419.208C535.134 419.446 535.306 419.66 535.544 419.686Z" fill="white"/>
<path opacity="0.11" d="M515.912 427.617C516.15 427.642 516.364 427.47 516.39 427.232C516.416 426.993 516.243 426.779 516.005 426.754C515.767 426.728 515.553 426.9 515.527 427.139C515.501 427.377 515.674 427.591 515.912 427.617Z" fill="white"/>
<path opacity="0.11" d="M527.368 455.055C527.606 455.081 527.82 454.908 527.846 454.67C527.871 454.432 527.699 454.218 527.461 454.192C527.222 454.166 527.008 454.339 526.983 454.577C526.957 454.815 527.129 455.03 527.368 455.055Z" fill="white"/>
<path opacity="0.11" d="M631.974 448.852C632.213 448.878 632.427 448.706 632.452 448.467C632.478 448.229 632.306 448.015 632.067 447.989C631.829 447.964 631.615 448.136 631.589 448.374C631.564 448.613 631.736 448.827 631.974 448.852Z" fill="white"/>
<path opacity="0.11" d="M679.573 485.428C679.811 485.454 680.025 485.282 680.051 485.043C680.076 484.805 679.904 484.591 679.666 484.565C679.427 484.54 679.213 484.712 679.188 484.95C679.162 485.189 679.334 485.403 679.573 485.428Z" fill="white"/>
<path opacity="0.11" d="M762.927 490.039C763.165 490.064 763.379 489.892 763.405 489.654C763.43 489.415 763.258 489.201 763.02 489.176C762.781 489.15 762.567 489.322 762.542 489.561C762.516 489.799 762.688 490.013 762.927 490.039Z" fill="white"/>
<path opacity="0.3" d="M560.531 435.044C560.769 435.069 560.983 434.897 561.009 434.659C561.034 434.42 560.862 434.206 560.624 434.181C560.385 434.155 560.171 434.328 560.146 434.566C560.12 434.804 560.292 435.018 560.531 435.044Z" fill="white"/>
<path d="M662.335 422.427C662.574 422.453 662.788 422.28 662.813 422.042C662.839 421.803 662.667 421.589 662.428 421.564C662.19 421.538 661.976 421.711 661.95 421.949C661.925 422.187 662.097 422.401 662.335 422.427Z" fill="white"/>
<path d="M728.915 428.726C729.154 428.752 729.368 428.58 729.393 428.341C729.419 428.103 729.247 427.889 729.008 427.863C728.77 427.838 728.556 428.01 728.53 428.248C728.505 428.487 728.677 428.701 728.915 428.726Z" fill="white"/>
<path d="M628.7 458.984C628.938 459.009 629.152 458.837 629.178 458.599C629.203 458.36 629.031 458.146 628.793 458.121C628.554 458.095 628.34 458.267 628.315 458.506C628.289 458.744 628.461 458.958 628.7 458.984Z" fill="white"/>
<path opacity="0.3" d="M598.478 455.727C598.717 455.753 598.931 455.58 598.956 455.342C598.982 455.104 598.81 454.89 598.571 454.864C598.333 454.838 598.119 455.011 598.093 455.249C598.068 455.487 598.24 455.701 598.478 455.727Z" fill="white"/>
<path opacity="0.11" d="M565.966 425.149C566.204 425.175 566.418 425.002 566.444 424.764C566.47 424.526 566.297 424.312 566.059 424.286C565.821 424.26 565.607 424.433 565.581 424.671C565.555 424.909 565.728 425.123 565.966 425.149Z" fill="white"/>
<path opacity="0.3" d="M668.995 433.628C669.233 433.654 669.447 433.481 669.473 433.243C669.498 433.005 669.326 432.791 669.088 432.765C668.849 432.739 668.635 432.912 668.61 433.15C668.584 433.388 668.756 433.602 668.995 433.628Z" fill="white"/>
<path opacity="0.3" d="M635.157 467.978C635.395 468.004 635.609 467.832 635.635 467.593C635.66 467.355 635.488 467.141 635.25 467.115C635.011 467.09 634.797 467.262 634.772 467.5C634.746 467.739 634.918 467.953 635.157 467.978Z" fill="white"/>
<path opacity="0.3" d="M582.454 466.668C582.692 466.694 582.906 466.522 582.932 466.283C582.958 466.045 582.785 465.831 582.547 465.805C582.309 465.78 582.095 465.952 582.069 466.19C582.043 466.429 582.216 466.643 582.454 466.668Z" fill="white"/>
<path opacity="0.3" d="M573.051 436.395C573.289 436.421 573.503 436.249 573.529 436.01C573.555 435.772 573.382 435.558 573.144 435.532C572.905 435.507 572.691 435.679 572.666 435.917C572.64 436.156 572.813 436.37 573.051 436.395Z" fill="white"/>
<path opacity="0.3" d="M841.721 464.028C841.959 464.054 842.173 463.882 842.199 463.643C842.225 463.405 842.052 463.191 841.814 463.165C841.576 463.14 841.362 463.312 841.336 463.55C841.31 463.789 841.483 464.003 841.721 464.028Z" fill="white"/>
<path opacity="0.11" d="M774.119 438.837C774.357 438.863 774.571 438.69 774.597 438.452C774.623 438.214 774.45 438 774.212 437.974C773.974 437.948 773.76 438.121 773.734 438.359C773.708 438.597 773.881 438.811 774.119 438.837Z" fill="white"/>
<path opacity="0.11" d="M828.064 481.335C828.302 481.36 828.516 481.188 828.542 480.95C828.568 480.711 828.395 480.497 828.157 480.472C827.919 480.446 827.705 480.618 827.679 480.857C827.653 481.095 827.826 481.309 828.064 481.335Z" fill="white"/>
<path opacity="0.3" d="M718.415 473.454C718.893 473.505 719.321 473.16 719.372 472.683C719.424 472.206 719.079 471.777 718.602 471.726C718.125 471.675 717.696 472.02 717.645 472.497C717.593 472.974 717.938 473.402 718.415 473.454Z" fill="white"/>
<path opacity="0.11" d="M745.286 463.247C745.763 463.298 746.191 462.953 746.242 462.476C746.294 461.999 745.949 461.571 745.472 461.519C744.995 461.468 744.566 461.813 744.515 462.29C744.463 462.767 744.809 463.196 745.286 463.247Z" fill="white"/>
<path d="M746.698 448.115C747.056 448.154 747.377 447.895 747.416 447.537C747.454 447.18 747.195 446.858 746.838 446.82C746.48 446.781 746.159 447.04 746.12 447.398C746.082 447.755 746.34 448.077 746.698 448.115Z" fill="white"/>
<path d="M712.027 490.237C712.385 490.275 712.706 490.016 712.745 489.659C712.783 489.301 712.525 488.98 712.167 488.941C711.809 488.903 711.488 489.162 711.45 489.519C711.411 489.877 711.67 490.198 712.027 490.237Z" fill="white"/>
<path d="M854.429 514.313C854.786 514.351 855.108 514.093 855.146 513.735C855.185 513.377 854.926 513.056 854.568 513.017C854.211 512.979 853.889 513.238 853.851 513.595C853.812 513.953 854.071 514.274 854.429 514.313Z" fill="white"/>
<path d="M575.028 476.785C575.385 476.823 575.707 476.565 575.745 476.207C575.784 475.849 575.525 475.528 575.167 475.489C574.809 475.451 574.488 475.71 574.45 476.067C574.411 476.425 574.67 476.746 575.028 476.785Z" fill="white"/>
<path d="M518.683 460.671C519.041 460.71 519.362 460.451 519.401 460.093C519.439 459.736 519.181 459.415 518.823 459.376C518.465 459.338 518.144 459.596 518.106 459.954C518.067 460.312 518.326 460.633 518.683 460.671Z" fill="white"/>
<path d="M513.203 442.61C513.561 442.649 513.882 442.39 513.92 442.032C513.959 441.675 513.7 441.353 513.343 441.315C512.985 441.276 512.664 441.535 512.625 441.893C512.587 442.25 512.845 442.572 513.203 442.61Z" fill="white"/>
<path d="M725.049 454.518C725.407 454.557 725.728 454.298 725.767 453.94C725.805 453.583 725.547 453.261 725.189 453.223C724.831 453.184 724.51 453.443 724.472 453.801C724.433 454.158 724.692 454.48 725.049 454.518Z" fill="white"/>
<path d="M646.485 478.371C646.842 478.41 647.164 478.151 647.202 477.794C647.241 477.436 646.982 477.115 646.624 477.076C646.267 477.038 645.945 477.296 645.907 477.654C645.868 478.012 646.127 478.333 646.485 478.371Z" fill="white"/>
<path d="M753.281 508.658C753.639 508.697 753.96 508.438 753.999 508.08C754.037 507.722 753.779 507.401 753.421 507.363C753.063 507.324 752.742 507.583 752.703 507.941C752.665 508.298 752.924 508.619 753.281 508.658Z" fill="white"/>
<path d="M870.849 491.623C871.207 491.662 871.528 491.403 871.567 491.045C871.605 490.687 871.346 490.366 870.989 490.328C870.631 490.289 870.31 490.548 870.271 490.906C870.233 491.263 870.491 491.584 870.849 491.623Z" fill="white"/>
<path d="M883.768 468.995C884.125 469.034 884.447 468.775 884.485 468.417C884.524 468.06 884.265 467.739 883.907 467.7C883.55 467.661 883.228 467.92 883.19 468.278C883.151 468.636 883.41 468.957 883.768 468.995Z" fill="white"/>
<path opacity="0.3" d="M782.272 452.386C782.749 452.437 783.178 452.092 783.229 451.615C783.281 451.138 782.935 450.709 782.458 450.658C781.981 450.607 781.553 450.952 781.502 451.429C781.45 451.906 781.795 452.334 782.272 452.386Z" fill="white"/>
<path d="M785.572 421.729C786.049 421.78 786.477 421.435 786.529 420.958C786.58 420.481 786.235 420.053 785.758 420.001C785.281 419.95 784.852 420.295 784.801 420.772C784.75 421.249 785.095 421.677 785.572 421.729Z" fill="white"/>
<path d="M803.481 464.277C803.839 464.315 804.16 464.057 804.199 463.699C804.237 463.341 803.979 463.02 803.621 462.982C803.263 462.943 802.942 463.202 802.903 463.559C802.865 463.917 803.124 464.238 803.481 464.277Z" fill="white"/>
<path opacity="0.3" d="M826.238 449.696C826.715 449.747 827.144 449.402 827.195 448.925C827.246 448.448 826.901 448.02 826.424 447.968C825.947 447.917 825.519 448.262 825.467 448.739C825.416 449.216 825.761 449.645 826.238 449.696Z" fill="white"/>
<path opacity="0.3" d="M865.674 484.952C866.151 485.003 866.579 484.658 866.63 484.181C866.682 483.704 866.337 483.276 865.86 483.224C865.383 483.173 864.954 483.518 864.903 483.995C864.851 484.472 865.196 484.901 865.674 484.952Z" fill="white"/>
<path opacity="0.3" d="M815.068 480.373C815.545 480.425 815.974 480.079 816.025 479.602C816.077 479.125 815.731 478.697 815.254 478.646C814.777 478.594 814.349 478.939 814.298 479.416C814.246 479.893 814.591 480.322 815.068 480.373Z" fill="white"/>
<path opacity="0.3" d="M566.469 461.014C566.946 461.066 567.375 460.721 567.426 460.244C567.478 459.767 567.132 459.338 566.655 459.287C566.178 459.235 565.75 459.58 565.699 460.058C565.647 460.535 565.992 460.963 566.469 461.014Z" fill="white"/>
<path opacity="0.3" d="M534.051 433.498C534.528 433.55 534.957 433.205 535.008 432.728C535.06 432.251 534.714 431.822 534.237 431.771C533.76 431.719 533.332 432.064 533.281 432.542C533.229 433.019 533.574 433.447 534.051 433.498Z" fill="white"/>
<path opacity="0.11" d="M849.37 470.096C849.847 470.147 850.276 469.802 850.327 469.325C850.378 468.848 850.033 468.419 849.556 468.368C849.079 468.317 848.651 468.662 848.599 469.139C848.548 469.616 848.893 470.044 849.37 470.096Z" fill="white"/>
<path opacity="0.3" d="M597.37 425.474C597.847 425.525 598.276 425.18 598.327 424.703C598.379 424.226 598.033 423.798 597.556 423.746C597.079 423.695 596.651 424.04 596.6 424.517C596.548 424.994 596.893 425.422 597.37 425.474Z" fill="white"/>
<path opacity="0.11" d="M586.644 415.582C587.121 415.634 587.549 415.289 587.601 414.811C587.652 414.334 587.307 413.906 586.83 413.855C586.353 413.803 585.925 414.148 585.873 414.625C585.822 415.102 586.167 415.531 586.644 415.582Z" fill="white"/>
<path opacity="0.3" d="M580.218 442.844C580.695 442.895 581.124 442.55 581.175 442.073C581.227 441.596 580.881 441.168 580.404 441.116C579.927 441.065 579.499 441.41 579.448 441.887C579.396 442.364 579.741 442.793 580.218 442.844Z" fill="white"/>
<path d="M607.243 445.317C607.601 445.355 607.922 445.096 607.96 444.739C607.999 444.381 607.74 444.06 607.383 444.021C607.025 443.983 606.704 444.241 606.665 444.599C606.627 444.957 606.885 445.278 607.243 445.317Z" fill="white"/>
<path opacity="0.11" d="M848.724 337.526C849.201 337.578 849.63 337.233 849.681 336.755C849.732 336.278 849.387 335.85 848.91 335.799C848.433 335.747 848.005 336.092 847.953 336.569C847.902 337.046 848.247 337.475 848.724 337.526Z" fill="white"/>
<path d="M851.017 342.577C851.374 342.615 851.696 342.357 851.734 341.999C851.773 341.641 851.514 341.32 851.156 341.281C850.799 341.243 850.477 341.502 850.439 341.859C850.4 342.217 850.659 342.538 851.017 342.577Z" fill="white"/>
<path d="M866.24 335.046C866.598 335.085 866.919 334.826 866.957 334.468C866.996 334.111 866.737 333.789 866.379 333.751C866.022 333.712 865.701 333.971 865.662 334.329C865.624 334.687 865.882 335.008 866.24 335.046Z" fill="white"/>
<path d="M829.636 330.228C829.994 330.266 830.315 330.007 830.353 329.65C830.392 329.292 830.133 328.971 829.775 328.932C829.418 328.894 829.097 329.153 829.058 329.51C829.02 329.868 829.278 330.189 829.636 330.228Z" fill="white"/>
<path opacity="0.11" d="M807.148 338.286C807.625 338.337 808.054 337.992 808.105 337.515C808.157 337.038 807.812 336.61 807.335 336.558C806.857 336.507 806.429 336.852 806.378 337.329C806.326 337.806 806.671 338.234 807.148 338.286Z" fill="white"/>
<path d="M799.972 327.906C800.21 327.932 800.424 327.76 800.45 327.521C800.476 327.283 800.303 327.069 800.065 327.043C799.827 327.018 799.613 327.19 799.587 327.428C799.561 327.667 799.734 327.881 799.972 327.906Z" fill="white"/>
<path d="M845.612 354.223C845.851 354.249 846.065 354.076 846.09 353.838C846.116 353.6 845.944 353.386 845.705 353.36C845.467 353.334 845.253 353.507 845.227 353.745C845.202 353.983 845.374 354.197 845.612 354.223Z" fill="white"/>
<path d="M939.731 364.365C939.969 364.391 940.183 364.219 940.209 363.98C940.235 363.742 940.062 363.528 939.824 363.502C939.586 363.477 939.372 363.649 939.346 363.887C939.32 364.126 939.493 364.34 939.731 364.365Z" fill="white"/>
<path d="M989.299 346.119C989.537 346.145 989.751 345.973 989.777 345.734C989.802 345.496 989.63 345.282 989.392 345.256C989.153 345.231 988.939 345.403 988.914 345.641C988.888 345.88 989.06 346.094 989.299 346.119Z" fill="white"/>
<path d="M1002.74 379.451C1002.98 379.477 1003.19 379.304 1003.22 379.066C1003.24 378.828 1003.07 378.614 1002.83 378.588C1002.59 378.562 1002.38 378.735 1002.35 378.973C1002.33 379.211 1002.5 379.425 1002.74 379.451Z" fill="white"/>
<path d="M703.008 327.939C703.247 327.965 703.461 327.792 703.486 327.554C703.512 327.316 703.34 327.102 703.101 327.076C702.863 327.05 702.649 327.223 702.623 327.461C702.598 327.699 702.77 327.913 703.008 327.939Z" fill="white"/>
<path opacity="0.11" d="M699.047 303.929C699.286 303.955 699.5 303.783 699.525 303.544C699.551 303.306 699.379 303.092 699.14 303.066C698.902 303.041 698.688 303.213 698.662 303.451C698.637 303.69 698.809 303.904 699.047 303.929Z" fill="white"/>
<path opacity="0.11" d="M679.413 311.859C679.651 311.885 679.865 311.713 679.891 311.474C679.917 311.236 679.744 311.022 679.506 310.996C679.268 310.971 679.054 311.143 679.028 311.381C679.002 311.62 679.175 311.834 679.413 311.859Z" fill="white"/>
<path opacity="0.11" d="M690.871 339.3C691.109 339.326 691.323 339.153 691.349 338.915C691.374 338.677 691.202 338.463 690.964 338.437C690.725 338.411 690.511 338.584 690.486 338.822C690.46 339.06 690.632 339.274 690.871 339.3Z" fill="white"/>
<path opacity="0.11" d="M795.48 333.097C795.718 333.123 795.932 332.951 795.958 332.712C795.983 332.474 795.811 332.26 795.573 332.234C795.334 332.209 795.12 332.381 795.095 332.619C795.069 332.858 795.241 333.072 795.48 333.097Z" fill="white"/>
<path opacity="0.11" d="M843.076 369.673C843.314 369.699 843.528 369.527 843.554 369.288C843.58 369.05 843.407 368.836 843.169 368.81C842.931 368.785 842.716 368.957 842.691 369.195C842.665 369.434 842.838 369.648 843.076 369.673Z" fill="white"/>
<path opacity="0.11" d="M926.432 374.286C926.67 374.312 926.884 374.139 926.91 373.901C926.936 373.663 926.763 373.449 926.525 373.423C926.287 373.397 926.073 373.57 926.047 373.808C926.021 374.046 926.194 374.26 926.432 374.286Z" fill="white"/>
<path opacity="0.3" d="M724.032 319.285C724.27 319.311 724.484 319.139 724.51 318.9C724.535 318.662 724.363 318.448 724.125 318.422C723.886 318.397 723.672 318.569 723.647 318.807C723.621 319.046 723.793 319.26 724.032 319.285Z" fill="white"/>
<path d="M825.84 306.671C826.079 306.696 826.293 306.524 826.319 306.286C826.344 306.047 826.172 305.833 825.933 305.808C825.695 305.782 825.481 305.954 825.455 306.193C825.43 306.431 825.602 306.645 825.84 306.671Z" fill="white"/>
<path d="M892.418 312.971C892.657 312.997 892.871 312.824 892.896 312.586C892.922 312.348 892.75 312.134 892.511 312.108C892.273 312.082 892.059 312.255 892.033 312.493C892.008 312.731 892.18 312.946 892.418 312.971Z" fill="white"/>
<path d="M792.205 343.228C792.443 343.254 792.657 343.082 792.683 342.843C792.709 342.605 792.536 342.391 792.298 342.365C792.06 342.34 791.846 342.512 791.82 342.75C791.794 342.989 791.967 343.203 792.205 343.228Z" fill="white"/>
<path opacity="0.3" d="M761.984 339.972C762.222 339.998 762.436 339.825 762.462 339.587C762.487 339.349 762.315 339.135 762.077 339.109C761.838 339.083 761.624 339.256 761.599 339.494C761.573 339.732 761.745 339.946 761.984 339.972Z" fill="white"/>
<path opacity="0.11" d="M729.469 309.392C729.707 309.417 729.921 309.245 729.947 309.007C729.973 308.768 729.8 308.554 729.562 308.529C729.324 308.503 729.11 308.675 729.084 308.914C729.058 309.152 729.231 309.366 729.469 309.392Z" fill="white"/>
<path opacity="0.3" d="M832.5 317.872C832.738 317.898 832.952 317.725 832.978 317.487C833.004 317.249 832.831 317.035 832.593 317.009C832.355 316.983 832.141 317.156 832.115 317.394C832.089 317.632 832.262 317.846 832.5 317.872Z" fill="white"/>
<path opacity="0.3" d="M798.664 352.224C798.903 352.25 799.117 352.078 799.142 351.839C799.168 351.601 798.996 351.387 798.757 351.361C798.519 351.336 798.305 351.508 798.279 351.746C798.254 351.985 798.426 352.199 798.664 352.224Z" fill="white"/>
<path opacity="0.3" d="M745.959 350.912C746.198 350.938 746.412 350.765 746.437 350.527C746.463 350.289 746.291 350.075 746.052 350.049C745.814 350.023 745.6 350.196 745.574 350.434C745.549 350.673 745.721 350.887 745.959 350.912Z" fill="white"/>
<path opacity="0.3" d="M736.556 320.639C736.795 320.665 737.009 320.492 737.034 320.254C737.06 320.016 736.887 319.802 736.649 319.776C736.411 319.75 736.197 319.923 736.171 320.161C736.145 320.399 736.318 320.613 736.556 320.639Z" fill="white"/>
<path opacity="0.3" d="M1005.22 348.273C1005.46 348.299 1005.68 348.127 1005.7 347.888C1005.73 347.65 1005.56 347.436 1005.32 347.41C1005.08 347.385 1004.86 347.557 1004.84 347.795C1004.81 348.034 1004.99 348.248 1005.22 348.273Z" fill="white"/>
<path opacity="0.11" d="M937.624 323.082C937.863 323.108 938.077 322.935 938.102 322.697C938.128 322.459 937.956 322.245 937.717 322.219C937.479 322.193 937.265 322.366 937.239 322.604C937.214 322.842 937.386 323.056 937.624 323.082Z" fill="white"/>
<path opacity="0.11" d="M991.57 365.579C991.808 365.605 992.022 365.433 992.048 365.194C992.073 364.956 991.901 364.742 991.662 364.716C991.424 364.691 991.21 364.863 991.184 365.101C991.159 365.34 991.331 365.554 991.57 365.579Z" fill="white"/>
<path opacity="0.3" d="M881.921 357.699C882.398 357.75 882.826 357.405 882.878 356.928C882.929 356.451 882.584 356.022 882.107 355.971C881.63 355.92 881.202 356.265 881.15 356.742C881.099 357.219 881.444 357.647 881.921 357.699Z" fill="white"/>
<path opacity="0.11" d="M908.791 347.491C909.268 347.542 909.696 347.197 909.748 346.72C909.799 346.243 909.454 345.815 908.977 345.763C908.5 345.712 908.072 346.057 908.02 346.534C907.969 347.011 908.314 347.439 908.791 347.491Z" fill="white"/>
<path d="M910.204 332.359C910.561 332.398 910.882 332.139 910.921 331.781C910.96 331.423 910.701 331.102 910.343 331.064C909.985 331.025 909.664 331.284 909.626 331.642C909.587 331.999 909.846 332.32 910.204 332.359Z" fill="white"/>
<path d="M875.533 374.48C875.89 374.519 876.212 374.26 876.25 373.903C876.289 373.545 876.03 373.224 875.672 373.185C875.315 373.147 874.993 373.405 874.955 373.763C874.916 374.121 875.175 374.442 875.533 374.48Z" fill="white"/>
<path d="M1017.93 398.556C1018.29 398.595 1018.61 398.336 1018.65 397.979C1018.69 397.621 1018.43 397.3 1018.07 397.261C1017.72 397.223 1017.39 397.481 1017.36 397.839C1017.32 398.197 1017.58 398.518 1017.93 398.556Z" fill="white"/>
<path d="M738.533 361.029C738.891 361.067 739.212 360.808 739.25 360.451C739.289 360.093 739.03 359.772 738.673 359.733C738.315 359.695 737.994 359.953 737.955 360.311C737.917 360.669 738.175 360.99 738.533 361.029Z" fill="white"/>
<path d="M682.189 344.916C682.546 344.955 682.868 344.696 682.906 344.338C682.945 343.981 682.686 343.66 682.328 343.621C681.971 343.583 681.649 343.841 681.611 344.199C681.572 344.557 681.831 344.878 682.189 344.916Z" fill="white"/>
<path d="M676.708 326.855C677.066 326.894 677.387 326.635 677.426 326.277C677.464 325.92 677.206 325.598 676.848 325.56C676.49 325.521 676.169 325.78 676.131 326.138C676.092 326.495 676.351 326.817 676.708 326.855Z" fill="white"/>
<path d="M888.555 338.762C888.913 338.801 889.234 338.542 889.272 338.184C889.311 337.826 889.052 337.505 888.694 337.467C888.337 337.428 888.016 337.687 887.977 338.045C887.938 338.402 888.197 338.724 888.555 338.762Z" fill="white"/>
<path d="M809.99 362.614C810.348 362.653 810.669 362.394 810.708 362.036C810.746 361.679 810.487 361.357 810.13 361.319C809.772 361.28 809.451 361.539 809.412 361.897C809.374 362.254 809.632 362.576 809.99 362.614Z" fill="white"/>
<path d="M916.784 392.9C917.142 392.938 917.463 392.679 917.502 392.322C917.54 391.964 917.282 391.643 916.924 391.604C916.566 391.566 916.245 391.824 916.206 392.182C916.168 392.54 916.427 392.861 916.784 392.9Z" fill="white"/>
<path d="M1034.35 375.867C1034.71 375.905 1035.03 375.647 1035.07 375.289C1035.11 374.931 1034.85 374.61 1034.49 374.571C1034.14 374.533 1033.82 374.792 1033.78 375.149C1033.74 375.507 1034 375.828 1034.35 375.867Z" fill="white"/>
<path d="M1047.27 353.24C1047.63 353.279 1047.95 353.02 1047.99 352.662C1048.03 352.305 1047.77 351.983 1047.41 351.945C1047.05 351.906 1046.73 352.165 1046.7 352.523C1046.66 352.88 1046.92 353.202 1047.27 353.24Z" fill="white"/>
<path opacity="0.3" d="M945.78 336.627C946.257 336.678 946.685 336.333 946.737 335.856C946.788 335.379 946.443 334.951 945.966 334.899C945.489 334.848 945.061 335.193 945.009 335.67C944.958 336.147 945.303 336.576 945.78 336.627Z" fill="white"/>
<path d="M949.077 305.974C949.554 306.025 949.983 305.68 950.034 305.203C950.085 304.726 949.74 304.297 949.263 304.246C948.786 304.195 948.358 304.54 948.306 305.017C948.255 305.494 948.6 305.922 949.077 305.974Z" fill="white"/>
<path d="M966.984 348.521C967.342 348.559 967.663 348.301 967.702 347.943C967.74 347.585 967.482 347.264 967.124 347.225C966.766 347.187 966.445 347.446 966.407 347.803C966.368 348.161 966.627 348.482 966.984 348.521Z" fill="white"/>
<path opacity="0.3" d="M989.741 333.94C990.218 333.991 990.647 333.646 990.698 333.169C990.749 332.692 990.404 332.264 989.927 332.212C989.45 332.161 989.022 332.506 988.971 332.983C988.919 333.46 989.264 333.888 989.741 333.94Z" fill="white"/>
<path opacity="0.3" d="M1029.18 369.196C1029.66 369.247 1030.08 368.902 1030.14 368.425C1030.19 367.948 1029.84 367.52 1029.36 367.468C1028.89 367.417 1028.46 367.762 1028.41 368.239C1028.36 368.716 1028.7 369.144 1029.18 369.196Z" fill="white"/>
<path opacity="0.3" d="M978.571 364.617C979.049 364.668 979.477 364.323 979.528 363.846C979.58 363.369 979.235 362.941 978.758 362.889C978.281 362.838 977.852 363.183 977.801 363.66C977.749 364.137 978.094 364.565 978.571 364.617Z" fill="white"/>
<path opacity="0.3" d="M729.97 345.258C730.447 345.31 730.876 344.965 730.927 344.488C730.978 344.01 730.633 343.582 730.156 343.531C729.679 343.479 729.251 343.824 729.199 344.301C729.148 344.778 729.493 345.207 729.97 345.258Z" fill="white"/>
<path opacity="0.3" d="M697.557 317.743C698.034 317.795 698.462 317.45 698.514 316.972C698.565 316.495 698.22 316.067 697.743 316.016C697.266 315.964 696.837 316.309 696.786 316.786C696.735 317.263 697.08 317.692 697.557 317.743Z" fill="white"/>
<path opacity="0.11" d="M1012.88 354.339C1013.35 354.391 1013.78 354.046 1013.83 353.569C1013.88 353.092 1013.54 352.663 1013.06 352.612C1012.58 352.56 1012.16 352.906 1012.1 353.383C1012.05 353.86 1012.4 354.288 1012.88 354.339Z" fill="white"/>
<path opacity="0.3" d="M760.873 309.719C761.351 309.77 761.779 309.425 761.83 308.948C761.882 308.471 761.537 308.043 761.06 307.991C760.583 307.94 760.154 308.285 760.103 308.762C760.051 309.239 760.396 309.667 760.873 309.719Z" fill="white"/>
<path opacity="0.11" d="M750.149 299.826C750.626 299.878 751.055 299.532 751.106 299.055C751.157 298.578 750.812 298.15 750.335 298.099C749.858 298.047 749.43 298.392 749.379 298.869C749.327 299.346 749.672 299.775 750.149 299.826Z" fill="white"/>
<path opacity="0.3" d="M743.721 327.089C744.199 327.14 744.627 326.795 744.678 326.318C744.73 325.841 744.385 325.413 743.908 325.361C743.431 325.31 743.002 325.655 742.951 326.132C742.899 326.609 743.244 327.038 743.721 327.089Z" fill="white"/>
<path d="M770.748 329.561C771.106 329.6 771.427 329.341 771.466 328.984C771.504 328.626 771.246 328.305 770.888 328.266C770.53 328.228 770.209 328.486 770.17 328.844C770.132 329.202 770.391 329.523 770.748 329.561Z" fill="white"/>
<path opacity="0.11" d="M1068.45 429.628C1068.93 429.68 1069.36 429.335 1069.41 428.858C1069.46 428.381 1069.12 427.952 1068.64 427.901C1068.16 427.849 1067.73 428.194 1067.68 428.672C1067.63 429.149 1067.98 429.577 1068.45 429.628Z" fill="white"/>
<path d="M1070.74 434.678C1071.1 434.716 1071.42 434.458 1071.46 434.1C1071.5 433.742 1071.24 433.421 1070.88 433.383C1070.53 433.344 1070.21 433.603 1070.17 433.96C1070.13 434.318 1070.39 434.639 1070.74 434.678Z" fill="white"/>
<path d="M1085.97 427.149C1086.33 427.188 1086.65 426.929 1086.69 426.572C1086.73 426.214 1086.47 425.893 1086.11 425.854C1085.75 425.816 1085.43 426.074 1085.39 426.432C1085.35 426.79 1085.61 427.111 1085.97 427.149Z" fill="white"/>
<path d="M1049.37 422.33C1049.72 422.368 1050.05 422.11 1050.08 421.752C1050.12 421.394 1049.86 421.073 1049.51 421.034C1049.15 420.996 1048.83 421.255 1048.79 421.612C1048.75 421.97 1049.01 422.291 1049.37 422.33Z" fill="white"/>
<path opacity="0.11" d="M1026.88 430.387C1027.35 430.438 1027.78 430.093 1027.83 429.616C1027.88 429.139 1027.54 428.711 1027.06 428.659C1026.59 428.608 1026.16 428.953 1026.11 429.43C1026.05 429.907 1026.4 430.335 1026.88 430.387Z" fill="white"/>
<path d="M1019.7 420.007C1019.94 420.033 1020.15 419.861 1020.18 419.622C1020.2 419.384 1020.03 419.17 1019.79 419.144C1019.55 419.119 1019.34 419.291 1019.31 419.529C1019.29 419.768 1019.46 419.982 1019.7 420.007Z" fill="white"/>
<path d="M1065.34 446.322C1065.58 446.347 1065.79 446.175 1065.82 445.937C1065.84 445.698 1065.67 445.484 1065.43 445.459C1065.19 445.433 1064.98 445.605 1064.95 445.844C1064.93 446.082 1065.1 446.296 1065.34 446.322Z" fill="white"/>
<path d="M1159.46 456.466C1159.7 456.492 1159.91 456.32 1159.94 456.081C1159.96 455.843 1159.79 455.629 1159.55 455.603C1159.31 455.578 1159.1 455.75 1159.07 455.988C1159.05 456.227 1159.22 456.441 1159.46 456.466Z" fill="white"/>
<path d="M1209.03 438.221C1209.26 438.246 1209.48 438.074 1209.5 437.836C1209.53 437.597 1209.36 437.383 1209.12 437.358C1208.88 437.332 1208.67 437.504 1208.64 437.743C1208.62 437.981 1208.79 438.195 1209.03 438.221Z" fill="white"/>
<path d="M1222.47 471.551C1222.71 471.577 1222.92 471.404 1222.95 471.166C1222.97 470.928 1222.8 470.714 1222.56 470.688C1222.32 470.662 1222.11 470.835 1222.08 471.073C1222.06 471.311 1222.23 471.525 1222.47 471.551Z" fill="white"/>
<path d="M922.736 420.041C922.975 420.067 923.189 419.894 923.214 419.656C923.24 419.418 923.068 419.204 922.829 419.178C922.591 419.152 922.377 419.325 922.351 419.563C922.326 419.801 922.498 420.015 922.736 420.041Z" fill="white"/>
<path opacity="0.11" d="M918.775 396.031C919.014 396.057 919.228 395.885 919.253 395.646C919.279 395.408 919.107 395.194 918.868 395.168C918.63 395.143 918.416 395.315 918.39 395.553C918.365 395.792 918.537 396.006 918.775 396.031Z" fill="white"/>
<path opacity="0.11" d="M899.143 403.964C899.382 403.99 899.596 403.817 899.621 403.579C899.647 403.341 899.475 403.126 899.236 403.101C898.998 403.075 898.784 403.248 898.758 403.486C898.733 403.724 898.905 403.938 899.143 403.964Z" fill="white"/>
<path opacity="0.11" d="M910.599 431.401C910.837 431.427 911.051 431.254 911.077 431.016C911.103 430.778 910.93 430.564 910.692 430.538C910.454 430.512 910.24 430.685 910.214 430.923C910.188 431.161 910.361 431.375 910.599 431.401Z" fill="white"/>
<path opacity="0.11" d="M1015.21 425.197C1015.44 425.223 1015.66 425.051 1015.68 424.812C1015.71 424.574 1015.54 424.36 1015.3 424.334C1015.06 424.309 1014.85 424.481 1014.82 424.719C1014.79 424.958 1014.97 425.172 1015.21 425.197Z" fill="white"/>
<path opacity="0.11" d="M1062.8 461.773C1063.04 461.799 1063.25 461.626 1063.28 461.388C1063.31 461.15 1063.13 460.936 1062.89 460.91C1062.66 460.884 1062.44 461.057 1062.42 461.295C1062.39 461.533 1062.56 461.748 1062.8 461.773Z" fill="white"/>
<path opacity="0.11" d="M1146.16 466.387C1146.4 466.413 1146.61 466.24 1146.64 466.002C1146.66 465.764 1146.49 465.55 1146.25 465.524C1146.01 465.498 1145.8 465.671 1145.78 465.909C1145.75 466.147 1145.92 466.361 1146.16 466.387Z" fill="white"/>
<path opacity="0.3" d="M943.762 411.39C944 411.415 944.214 411.243 944.24 411.005C944.265 410.766 944.093 410.552 943.855 410.527C943.616 410.501 943.402 410.673 943.377 410.912C943.351 411.15 943.523 411.364 943.762 411.39Z" fill="white"/>
<path d="M1045.57 398.772C1045.8 398.797 1046.02 398.625 1046.04 398.387C1046.07 398.148 1045.9 397.934 1045.66 397.909C1045.42 397.883 1045.21 398.055 1045.18 398.294C1045.16 398.532 1045.33 398.746 1045.57 398.772Z" fill="white"/>
<path d="M1112.15 405.074C1112.39 405.1 1112.6 404.928 1112.63 404.689C1112.65 404.451 1112.48 404.237 1112.24 404.211C1112 404.186 1111.79 404.358 1111.76 404.596C1111.74 404.835 1111.91 405.049 1112.15 405.074Z" fill="white"/>
<path d="M1011.93 435.33C1012.17 435.355 1012.38 435.183 1012.41 434.945C1012.43 434.706 1012.26 434.492 1012.02 434.467C1011.79 434.441 1011.57 434.613 1011.55 434.852C1011.52 435.09 1011.69 435.304 1011.93 435.33Z" fill="white"/>
<path opacity="0.3" d="M981.712 432.073C981.95 432.099 982.164 431.926 982.19 431.688C982.215 431.45 982.043 431.235 981.805 431.21C981.566 431.184 981.352 431.357 981.327 431.595C981.301 431.833 981.473 432.047 981.712 432.073Z" fill="white"/>
<path opacity="0.11" d="M949.199 401.495C949.438 401.521 949.652 401.348 949.677 401.11C949.703 400.871 949.531 400.657 949.292 400.632C949.054 400.606 948.84 400.779 948.814 401.017C948.789 401.255 948.961 401.469 949.199 401.495Z" fill="white"/>
<path opacity="0.3" d="M1052.23 409.972C1052.46 409.997 1052.68 409.825 1052.7 409.587C1052.73 409.348 1052.56 409.134 1052.32 409.109C1052.08 409.083 1051.87 409.255 1051.84 409.494C1051.82 409.732 1051.99 409.946 1052.23 409.972Z" fill="white"/>
<path opacity="0.3" d="M1018.39 444.324C1018.63 444.35 1018.84 444.177 1018.87 443.939C1018.89 443.701 1018.72 443.487 1018.48 443.461C1018.24 443.435 1018.03 443.608 1018.01 443.846C1017.98 444.085 1018.15 444.299 1018.39 444.324Z" fill="white"/>
<path opacity="0.3" d="M965.685 443.011C965.923 443.037 966.137 442.864 966.163 442.626C966.189 442.388 966.016 442.174 965.778 442.148C965.54 442.122 965.326 442.295 965.3 442.533C965.274 442.771 965.447 442.985 965.685 443.011Z" fill="white"/>
<path opacity="0.3" d="M956.28 412.738C956.518 412.764 956.732 412.591 956.758 412.353C956.783 412.115 956.611 411.901 956.373 411.875C956.134 411.849 955.92 412.022 955.895 412.26C955.869 412.498 956.041 412.712 956.28 412.738Z" fill="white"/>
<path opacity="0.3" d="M1224.95 440.373C1225.19 440.399 1225.4 440.226 1225.43 439.988C1225.46 439.75 1225.28 439.536 1225.05 439.51C1224.81 439.484 1224.59 439.657 1224.57 439.895C1224.54 440.133 1224.71 440.347 1224.95 440.373Z" fill="white"/>
<path opacity="0.11" d="M1157.35 415.183C1157.59 415.209 1157.8 415.037 1157.83 414.798C1157.86 414.56 1157.68 414.346 1157.45 414.32C1157.21 414.294 1156.99 414.467 1156.97 414.705C1156.94 414.944 1157.11 415.158 1157.35 415.183Z" fill="white"/>
<path opacity="0.11" d="M1211.3 457.681C1211.54 457.706 1211.75 457.534 1211.78 457.295C1211.8 457.057 1211.63 456.843 1211.39 456.817C1211.15 456.792 1210.94 456.964 1210.91 457.203C1210.89 457.441 1211.06 457.655 1211.3 457.681Z" fill="white"/>
<path opacity="0.3" d="M1101.65 449.801C1102.13 449.852 1102.56 449.507 1102.61 449.03C1102.66 448.553 1102.31 448.124 1101.84 448.073C1101.36 448.022 1100.93 448.367 1100.88 448.844C1100.83 449.321 1101.17 449.749 1101.65 449.801Z" fill="white"/>
<path opacity="0.11" d="M1128.52 439.593C1129 439.644 1129.42 439.299 1129.48 438.822C1129.53 438.345 1129.18 437.917 1128.71 437.865C1128.23 437.814 1127.8 438.159 1127.75 438.636C1127.7 439.113 1128.04 439.542 1128.52 439.593Z" fill="white"/>
<path d="M1129.93 424.461C1130.29 424.5 1130.61 424.241 1130.65 423.883C1130.69 423.526 1130.43 423.204 1130.07 423.166C1129.71 423.127 1129.39 423.386 1129.35 423.744C1129.32 424.101 1129.57 424.423 1129.93 424.461Z" fill="white"/>
<path d="M1095.26 466.583C1095.62 466.621 1095.94 466.362 1095.98 466.005C1096.02 465.647 1095.76 465.326 1095.4 465.287C1095.04 465.249 1094.72 465.507 1094.68 465.865C1094.64 466.223 1094.9 466.544 1095.26 466.583Z" fill="white"/>
<path d="M1237.66 490.659C1238.02 490.697 1238.34 490.438 1238.38 490.081C1238.42 489.723 1238.16 489.402 1237.8 489.363C1237.44 489.325 1237.12 489.584 1237.08 489.941C1237.05 490.299 1237.3 490.62 1237.66 490.659Z" fill="white"/>
<path d="M958.261 453.131C958.619 453.169 958.94 452.91 958.978 452.553C959.017 452.195 958.758 451.874 958.401 451.835C958.043 451.797 957.722 452.056 957.683 452.413C957.645 452.771 957.903 453.092 958.261 453.131Z" fill="white"/>
<path d="M901.915 437.018C902.272 437.057 902.594 436.798 902.632 436.441C902.671 436.083 902.412 435.762 902.054 435.723C901.696 435.685 901.375 435.943 901.337 436.301C901.298 436.659 901.557 436.98 901.915 437.018Z" fill="white"/>
<path d="M896.434 418.957C896.792 418.996 897.113 418.737 897.152 418.379C897.19 418.022 896.931 417.7 896.574 417.662C896.216 417.623 895.895 417.882 895.856 418.24C895.818 418.597 896.077 418.919 896.434 418.957Z" fill="white"/>
<path d="M1108.28 430.862C1108.64 430.9 1108.96 430.642 1109 430.284C1109.03 429.926 1108.78 429.605 1108.42 429.567C1108.06 429.528 1107.74 429.787 1107.7 430.144C1107.66 430.502 1107.92 430.823 1108.28 430.862Z" fill="white"/>
<path d="M1029.72 454.716C1030.08 454.755 1030.4 454.496 1030.44 454.138C1030.47 453.781 1030.22 453.459 1029.86 453.421C1029.5 453.382 1029.18 453.641 1029.14 453.999C1029.1 454.356 1029.36 454.678 1029.72 454.716Z" fill="white"/>
<path d="M1136.51 485.002C1136.87 485.04 1137.19 484.781 1137.23 484.424C1137.27 484.066 1137.01 483.745 1136.65 483.706C1136.29 483.668 1135.97 483.927 1135.93 484.284C1135.89 484.642 1136.15 484.963 1136.51 485.002Z" fill="white"/>
<path d="M1254.08 467.969C1254.44 468.007 1254.76 467.749 1254.8 467.391C1254.84 467.033 1254.58 466.712 1254.22 466.674C1253.86 466.635 1253.54 466.894 1253.5 467.252C1253.46 467.609 1253.72 467.93 1254.08 467.969Z" fill="white"/>
<path d="M1267 445.341C1267.36 445.38 1267.68 445.121 1267.72 444.763C1267.76 444.406 1267.5 444.085 1267.14 444.046C1266.78 444.007 1266.46 444.266 1266.42 444.624C1266.38 444.982 1266.64 445.303 1267 445.341Z" fill="white"/>
<path opacity="0.3" d="M1165.5 428.727C1165.98 428.778 1166.4 428.433 1166.46 427.956C1166.51 427.479 1166.16 427.051 1165.69 426.999C1165.21 426.948 1164.78 427.293 1164.73 427.77C1164.68 428.247 1165.02 428.676 1165.5 428.727Z" fill="white"/>
<path d="M1168.8 398.076C1169.28 398.127 1169.71 397.782 1169.76 397.305C1169.81 396.828 1169.47 396.4 1168.99 396.348C1168.51 396.297 1168.08 396.642 1168.03 397.119C1167.98 397.596 1168.33 398.024 1168.8 398.076Z" fill="white"/>
<path d="M1186.71 440.623C1187.07 440.661 1187.39 440.403 1187.43 440.045C1187.47 439.687 1187.21 439.366 1186.85 439.327C1186.5 439.289 1186.18 439.548 1186.14 439.905C1186.1 440.263 1186.36 440.584 1186.71 440.623Z" fill="white"/>
<path opacity="0.3" d="M1209.47 426.042C1209.95 426.093 1210.37 425.748 1210.43 425.271C1210.48 424.794 1210.13 424.366 1209.66 424.314C1209.18 424.263 1208.75 424.608 1208.7 425.085C1208.65 425.562 1208.99 425.991 1209.47 426.042Z" fill="white"/>
<path opacity="0.3" d="M1248.91 461.3C1249.38 461.352 1249.81 461.007 1249.86 460.53C1249.92 460.052 1249.57 459.624 1249.09 459.573C1248.62 459.521 1248.19 459.866 1248.14 460.343C1248.08 460.82 1248.43 461.249 1248.91 461.3Z" fill="white"/>
<path opacity="0.3" d="M1198.3 456.718C1198.78 456.769 1199.2 456.424 1199.26 455.947C1199.31 455.47 1198.96 455.042 1198.49 454.99C1198.01 454.939 1197.58 455.284 1197.53 455.761C1197.48 456.238 1197.82 456.667 1198.3 456.718Z" fill="white"/>
<path opacity="0.3" d="M949.701 437.359C950.178 437.411 950.606 437.066 950.657 436.588C950.709 436.111 950.364 435.683 949.887 435.632C949.41 435.58 948.981 435.925 948.93 436.402C948.878 436.879 949.223 437.308 949.701 437.359Z" fill="white"/>
<path opacity="0.3" d="M917.285 409.847C917.762 409.898 918.19 409.553 918.242 409.076C918.293 408.599 917.948 408.17 917.471 408.119C916.994 408.068 916.566 408.413 916.514 408.89C916.463 409.367 916.808 409.795 917.285 409.847Z" fill="white"/>
<path opacity="0.11" d="M1232.6 446.441C1233.08 446.492 1233.51 446.147 1233.56 445.67C1233.61 445.193 1233.26 444.764 1232.79 444.713C1232.31 444.662 1231.88 445.007 1231.83 445.484C1231.78 445.961 1232.12 446.389 1232.6 446.441Z" fill="white"/>
<path opacity="0.3" d="M980.606 401.821C981.083 401.872 981.511 401.527 981.563 401.05C981.614 400.573 981.269 400.145 980.792 400.093C980.315 400.042 979.887 400.387 979.835 400.864C979.784 401.341 980.129 401.769 980.606 401.821Z" fill="white"/>
<path opacity="0.11" d="M969.877 391.93C970.354 391.982 970.783 391.637 970.834 391.16C970.885 390.683 970.54 390.254 970.063 390.203C969.586 390.152 969.158 390.497 969.107 390.974C969.055 391.451 969.4 391.879 969.877 391.93Z" fill="white"/>
<path opacity="0.3" d="M963.45 419.189C963.927 419.24 964.355 418.895 964.406 418.418C964.458 417.941 964.113 417.513 963.636 417.461C963.159 417.41 962.73 417.755 962.679 418.232C962.627 418.709 962.972 419.137 963.45 419.189Z" fill="white"/>
<path d="M990.474 421.662C990.832 421.701 991.153 421.442 991.192 421.085C991.23 420.727 990.971 420.406 990.614 420.367C990.256 420.329 989.935 420.587 989.896 420.945C989.858 421.303 990.117 421.624 990.474 421.662Z" fill="white"/>
</g>
</g>
</g>
<defs>
<radialGradient id="paint0_radial_239_4085" cx="0" cy="0" r="1" gradientTransform="matrix(545.698 272.849 -545.698 272.849 981.698 426.873)" gradientUnits="userSpaceOnUse">
<stop stop-color="#7877C6"/>
<stop offset="0.7" stop-opacity="0"/>
</radialGradient>
<radialGradient id="paint1_radial_239_4085" cx="0" cy="0" r="1" gradientTransform="matrix(322.373 270.246 -322.373 270.246 1132.67 302.246)" gradientUnits="userSpaceOnUse">
<stop/>
<stop offset="1" stop-opacity="0"/>
</radialGradient>
<clipPath id="clip0_239_4085">
<rect width="1527" height="1370" fill="white"/>
</clipPath>
<clipPath id="clip1_239_4085">
<rect width="644.747" height="540.493" fill="white" transform="translate(810.298 32) rotate(39.1308)"/>
</clipPath>
</defs>
</svg>
