<svg width="805" height="925" viewBox="0 0 805 925" fill="none" xmlns="http://www.w3.org/2000/svg">
<g clip-path="url(#clip0_239_4085)">
<rect width="805" height="925" fill="#0D0D12"/>
<rect opacity="0.4" x="179" y="-290.976" width="1091.4" height="545.698" fill="url(#paint0_radial_239_4085)"/>
<mask id="mask0_239_4085" style="mask-type:alpha" maskUnits="userSpaceOnUse" x="212" y="-413" width="842" height="827">
<rect x="553.298" y="-413" width="644.747" height="540.493" transform="rotate(39.1308 553.298 -413)" fill="url(#paint1_radial_239_4085)"/>
</mask>
<g mask="url(#mask0_239_4085)">
</g>
<g clip-path="url(#clip1_239_4085)">
<g opacity="0.7">
<path opacity="0.11" d="M428.219 8.2824C428.696 8.33379 429.124 7.98873 429.176 7.51168C429.227 7.03462 428.882 6.60624 428.405 6.55485C427.928 6.50345 427.499 6.84851 427.448 7.32557C427.397 7.80262 427.742 8.231 428.219 8.2824Z" fill="white"/>
<path d="M430.511 13.3318C430.869 13.3704 431.19 13.1117 431.229 12.754C431.267 12.3963 431.009 12.0751 430.651 12.0366C430.293 11.998 429.972 12.2567 429.934 12.6144C429.895 12.9721 430.154 13.2933 430.511 13.3318Z" fill="white"/>
<path d="M445.737 5.80248C446.095 5.84101 446.416 5.5823 446.454 5.22461C446.493 4.86692 446.234 4.54568 445.876 4.50715C445.519 4.46862 445.198 4.72737 445.159 5.08506C445.12 5.44275 445.379 5.76394 445.737 5.80248Z" fill="white"/>
<path d="M409.133 0.983872C409.49 1.02241 409.812 0.763648 409.85 0.405959C409.889 0.0482693 409.63 -0.272919 409.272 -0.311454C408.915 -0.349988 408.593 -0.0912746 408.555 0.266415C408.516 0.624104 408.775 0.945338 409.133 0.983872Z" fill="white"/>
<path opacity="0.11" d="M386.643 9.04192C387.12 9.09331 387.549 8.74826 387.6 8.2712C387.651 7.79415 387.306 7.36576 386.829 7.31437C386.352 7.26298 385.924 7.60803 385.872 8.08509C385.821 8.56214 386.166 8.99053 386.643 9.04192Z" fill="white"/>
<path d="M425.105 24.9768C425.343 25.0025 425.557 24.8301 425.583 24.5918C425.608 24.3535 425.436 24.1394 425.198 24.1137C424.959 24.0881 424.745 24.2605 424.72 24.4988C424.694 24.7371 424.866 24.9511 425.105 24.9768Z" fill="white"/>
<path d="M519.228 35.1203C519.466 35.146 519.68 34.9736 519.706 34.7353C519.732 34.497 519.559 34.283 519.321 34.2573C519.082 34.2316 518.868 34.404 518.843 34.6423C518.817 34.8806 518.99 35.0947 519.228 35.1203Z" fill="white"/>
<path d="M568.795 16.8745C569.034 16.9002 569.248 16.7278 569.273 16.4895C569.299 16.2511 569.127 16.0371 568.888 16.0115C568.65 15.9858 568.436 16.1582 568.41 16.3965C568.385 16.6348 568.557 16.8488 568.795 16.8745Z" fill="white"/>
<path d="M582.241 50.2063C582.479 50.232 582.693 50.0596 582.719 49.8212C582.744 49.5829 582.572 49.3689 582.334 49.3432C582.095 49.3176 581.881 49.4899 581.856 49.7283C581.83 49.9666 582.002 50.1806 582.241 50.2063Z" fill="white"/>
<path opacity="0.11" d="M270.368 10.0552C270.606 10.0808 270.82 9.90844 270.846 9.67011C270.871 9.43179 270.699 9.21779 270.461 9.19212C270.222 9.16644 270.008 9.33881 269.983 9.57714C269.957 9.81546 270.129 10.0295 270.368 10.0552Z" fill="white"/>
<path opacity="0.11" d="M374.974 3.85237C375.213 3.87805 375.427 3.70568 375.452 3.46735C375.478 3.22903 375.306 3.01503 375.067 2.98936C374.829 2.96368 374.615 3.13605 374.589 3.37438C374.564 3.6127 374.736 3.8267 374.974 3.85237Z" fill="white"/>
<path opacity="0.11" d="M422.573 40.4285C422.811 40.4541 423.025 40.2817 423.051 40.0434C423.076 39.8051 422.904 39.5911 422.666 39.5654C422.427 39.5397 422.213 39.7121 422.188 39.9504C422.162 40.1888 422.334 40.4028 422.573 40.4285Z" fill="white"/>
<path opacity="0.11" d="M505.927 45.0388C506.165 45.0645 506.379 44.8921 506.405 44.6538C506.43 44.4154 506.258 44.2014 506.02 44.1758C505.781 44.1501 505.567 44.3225 505.542 44.5608C505.516 44.7991 505.688 45.0131 505.927 45.0388Z" fill="white"/>
<path d="M371.7 13.9836C371.938 14.0093 372.152 13.8369 372.178 13.5986C372.203 13.3603 372.031 13.1463 371.793 13.1206C371.554 13.0949 371.34 13.2673 371.315 13.5056C371.289 13.7439 371.461 13.9579 371.7 13.9836Z" fill="white"/>
<path opacity="0.3" d="M341.478 10.727C341.717 10.7527 341.931 10.5803 341.956 10.342C341.982 10.1037 341.81 9.88967 341.571 9.86399C341.333 9.83832 341.119 10.0107 341.093 10.249C341.068 10.4873 341.24 10.7013 341.478 10.727Z" fill="white"/>
<path opacity="0.3" d="M378.157 22.9783C378.395 23.0039 378.609 22.8315 378.635 22.5932C378.66 22.3549 378.488 22.1409 378.25 22.1152C378.011 22.0895 377.797 22.2619 377.772 22.5002C377.746 22.7386 377.918 22.9526 378.157 22.9783Z" fill="white"/>
<path opacity="0.3" d="M325.454 21.6683C325.692 21.694 325.906 21.5216 325.932 21.2833C325.958 21.0449 325.785 20.831 325.547 20.8053C325.309 20.7796 325.095 20.952 325.069 21.1903C325.043 21.4286 325.216 21.6426 325.454 21.6683Z" fill="white"/>
<path opacity="0.3" d="M584.721 19.0284C584.959 19.0541 585.173 18.8817 585.199 18.6434C585.225 18.4051 585.052 18.1911 584.814 18.1654C584.576 18.1397 584.362 18.3121 584.336 18.5504C584.31 18.7887 584.483 19.0028 584.721 19.0284Z" fill="white"/>
<path opacity="0.11" d="M571.064 36.3346C571.302 36.3603 571.516 36.1879 571.542 35.9496C571.568 35.7112 571.395 35.4972 571.157 35.4715C570.919 35.4459 570.705 35.6183 570.679 35.8566C570.653 36.0949 570.826 36.3089 571.064 36.3346Z" fill="white"/>
<path opacity="0.3" d="M461.415 28.4536C461.893 28.505 462.321 28.1599 462.372 27.6829C462.424 27.2058 462.079 26.7774 461.602 26.726C461.125 26.6746 460.696 27.0197 460.645 27.4968C460.593 27.9738 460.938 28.4022 461.415 28.4536Z" fill="white"/>
<path opacity="0.11" d="M488.286 18.247C488.763 18.2984 489.191 17.9533 489.242 17.4763C489.294 16.9992 488.949 16.5708 488.472 16.5194C487.995 16.4681 487.566 16.8131 487.515 17.2902C487.463 17.7672 487.809 18.1956 488.286 18.247Z" fill="white"/>
<path d="M489.698 3.11522C490.056 3.15375 490.377 2.89502 490.416 2.53733C490.454 2.17964 490.195 1.85843 489.838 1.81989C489.48 1.78136 489.159 2.0401 489.12 2.39779C489.082 2.75547 489.34 3.07668 489.698 3.11522Z" fill="white"/>
<path d="M455.027 45.2366C455.385 45.2752 455.706 45.0165 455.745 44.6588C455.783 44.3011 455.525 43.9799 455.167 43.9414C454.809 43.9028 454.488 44.1615 454.45 44.5192C454.411 44.8769 454.67 45.1981 455.027 45.2366Z" fill="white"/>
<path d="M597.429 69.3127C597.786 69.3512 598.108 69.0925 598.146 68.7348C598.185 68.3771 597.926 68.0559 597.568 68.0174C597.211 67.9789 596.889 68.2376 596.851 68.5953C596.812 68.953 597.071 69.2742 597.429 69.3127Z" fill="white"/>
<path d="M318.028 31.7847C318.385 31.8233 318.707 31.5646 318.745 31.2069C318.784 30.8492 318.525 30.528 318.167 30.4894C317.809 30.4509 317.488 30.7096 317.45 31.0673C317.411 31.425 317.67 31.7462 318.028 31.7847Z" fill="white"/>
<path d="M261.683 15.6714C262.041 15.7099 262.362 15.4511 262.401 15.0935C262.439 14.7358 262.181 14.4146 261.823 14.376C261.465 14.3375 261.144 14.5962 261.106 14.9539C261.067 15.3116 261.326 15.6328 261.683 15.6714Z" fill="white"/>
<path d="M468.049 9.51817C468.407 9.55671 468.728 9.29799 468.767 8.94031C468.805 8.58262 468.547 8.26138 468.189 8.22285C467.831 8.18431 467.51 8.44307 467.472 8.80076C467.433 9.15845 467.692 9.47964 468.049 9.51817Z" fill="white"/>
<path d="M389.485 33.3714C389.842 33.41 390.164 33.1513 390.202 32.7936C390.241 32.4359 389.982 32.1147 389.624 32.0761C389.267 32.0376 388.945 32.2963 388.907 32.654C388.868 33.0117 389.127 33.3329 389.485 33.3714Z" fill="white"/>
<path d="M496.281 63.658C496.639 63.6966 496.96 63.4378 496.999 63.0802C497.037 62.7225 496.779 62.4013 496.421 62.3627C496.063 62.3242 495.742 62.5829 495.703 62.9406C495.665 63.2983 495.924 63.6195 496.281 63.658Z" fill="white"/>
<path d="M613.849 46.623C614.207 46.6616 614.528 46.4028 614.567 46.0451C614.605 45.6875 614.346 45.3662 613.989 45.3277C613.631 45.2892 613.31 45.5479 613.271 45.9056C613.233 46.2633 613.491 46.5845 613.849 46.623Z" fill="white"/>
<path d="M626.768 23.9953C627.125 24.0339 627.447 23.7751 627.485 23.4175C627.524 23.0598 627.265 22.7386 626.907 22.7C626.55 22.6615 626.228 22.9202 626.19 23.2779C626.151 23.6356 626.41 23.9568 626.768 23.9953Z" fill="white"/>
<path opacity="0.3" d="M525.272 7.38557C525.749 7.43696 526.178 7.09188 526.229 6.61483C526.281 6.13777 525.935 5.70939 525.458 5.658C524.981 5.60661 524.553 5.95166 524.502 6.42872C524.45 6.90577 524.795 7.33418 525.272 7.38557Z" fill="white"/>
<path d="M546.481 19.2768C546.839 19.3154 547.16 19.0566 547.199 18.699C547.237 18.3413 546.979 18.0201 546.621 17.9815C546.263 17.943 545.942 18.2017 545.903 18.5594C545.865 18.9171 546.124 19.2383 546.481 19.2768Z" fill="white"/>
<path opacity="0.3" d="M569.238 4.69597C569.715 4.74737 570.144 4.40231 570.195 3.92525C570.246 3.4482 569.901 3.01982 569.424 2.96842C568.947 2.91703 568.519 3.26209 568.467 3.73914C568.416 4.2162 568.761 4.64458 569.238 4.69597Z" fill="white"/>
<path opacity="0.3" d="M608.674 39.952C609.151 40.0033 609.579 39.6583 609.63 39.1812C609.682 38.7042 609.337 38.2758 608.86 38.2244C608.383 38.173 607.954 38.5181 607.903 38.9951C607.851 39.4722 608.196 39.9006 608.674 39.952Z" fill="white"/>
<path opacity="0.3" d="M558.068 35.3731C558.545 35.4245 558.974 35.0795 559.025 34.6024C559.077 34.1253 558.731 33.6969 558.254 33.6455C557.777 33.5942 557.349 33.9392 557.298 34.4163C557.246 34.8933 557.591 35.3217 558.068 35.3731Z" fill="white"/>
<path opacity="0.3" d="M309.469 16.0143C309.946 16.0657 310.375 15.7207 310.426 15.2436C310.478 14.7666 310.132 14.3382 309.655 14.2868C309.178 14.2354 308.75 14.5804 308.699 15.0575C308.647 15.5346 308.992 15.9629 309.469 16.0143Z" fill="white"/>
<path opacity="0.11" d="M592.37 25.0957C592.847 25.147 593.276 24.802 593.327 24.3249C593.378 23.8479 593.033 23.4195 592.556 23.3681C592.079 23.3167 591.651 23.6618 591.599 24.1388C591.548 24.6159 591.893 25.0443 592.37 25.0957Z" fill="white"/>
<path d="M350.243 0.316514C350.601 0.355048 350.922 0.0962912 350.96 -0.261398C350.999 -0.619088 350.74 -0.940278 350.383 -0.978812C350.025 -1.01735 349.704 -0.758633 349.665 -0.400944C349.627 -0.0432539 349.885 0.27798 350.243 0.316514Z" fill="white"/>
<path d="M701.261 8.1307C701.619 8.16923 701.94 7.9105 701.978 7.55281C702.017 7.19512 701.758 6.87393 701.401 6.8354C701.043 6.79686 700.722 7.05558 700.683 7.41327C700.645 7.77096 700.903 8.09217 701.261 8.1307Z" fill="white"/>
<path d="M772.718 9.71616C773.076 9.75469 773.397 9.49596 773.436 9.13827C773.474 8.78058 773.216 8.45938 772.858 8.42084C772.5 8.38231 772.179 8.64104 772.14 8.99873C772.102 9.35642 772.361 9.67763 772.718 9.71616Z" fill="white"/>
</g>
</g>
</g>
<defs>
<radialGradient id="paint0_radial_239_4085" cx="0" cy="0" r="1" gradientTransform="matrix(545.698 272.849 -545.698 272.849 724.698 -18.1268)" gradientUnits="userSpaceOnUse">
<stop stop-color="#7877C6"/>
<stop offset="0.7" stop-opacity="0"/>
</radialGradient>
<radialGradient id="paint1_radial_239_4085" cx="0" cy="0" r="1" gradientTransform="matrix(322.373 270.246 -322.373 270.246 875.672 -142.754)" gradientUnits="userSpaceOnUse">
<stop/>
<stop offset="1" stop-opacity="0"/>
</radialGradient>
<clipPath id="clip0_239_4085">
<rect width="805" height="925" fill="white"/>
</clipPath>
<clipPath id="clip1_239_4085">
<rect width="644.747" height="540.493" fill="white" transform="translate(553.298 -413) rotate(39.1308)"/>
</clipPath>
</defs>
</svg>
