<svg width="24" height="24" viewBox="0 0 24 24" fill="none" xmlns="http://www.w3.org/2000/svg">
<path d="M13.2657 23.9264C16.9722 23.9264 19.2523 22.6105 19.2523 20.3404V15.4386C20.8293 14.0625 21.7434 11.8527 21.7434 9.43191C21.7434 3.77679 18.047 0 12.5525 0C7.07819 0 3.4119 3.68638 3.4119 9.22097C3.4119 9.53237 3.42195 9.79354 3.45208 10.0547L2.22663 12.2645C1.87507 12.8672 1.71436 13.4598 1.71436 14.0022C1.71436 15.0369 2.34717 15.8907 3.42195 16.1719V18.1005C3.42195 19.9085 4.70766 20.8125 6.34493 20.6317L8.51458 20.4107L7.36949 19.1752V20.3404C7.36949 22.6005 9.60945 23.9264 13.2657 23.9264ZM13.2657 22.3091C10.5536 22.3091 8.90632 21.4453 8.90632 20.0591V18.9141C8.90632 18.7734 8.836 18.7233 8.71547 18.7333L6.134 19.0245C5.43088 19.0948 5.03914 18.7835 5.03914 17.9799V14.9766C5.03914 14.8862 4.97886 14.8259 4.84828 14.8259H4.38623C3.73333 14.8259 3.35164 14.4945 3.35164 13.9821C3.35164 13.7109 3.44203 13.3895 3.62284 13.0681L5.11949 10.3761C5.05922 9.98434 5.02909 9.59263 5.02909 9.19089C5.02909 4.65067 8.03243 1.61719 12.5525 1.61719C17.0927 1.61719 20.1262 4.73103 20.1262 9.43191C20.1262 11.6819 19.182 13.6507 17.6251 14.6451L17.6351 20.0591C17.6351 21.4453 15.9878 22.3091 13.2657 22.3091Z" fill="#94A3B8"/>
<path d="M6.50537 7.68359C6.50537 9.43135 7.72077 10.6066 9.52881 10.6066C11.3067 10.6166 12.502 9.55187 12.502 7.98493C12.502 7.33203 12.271 6.76953 11.8591 6.42801C11.6784 6.27734 11.5478 6.20703 11.377 6.20703C11.1058 6.20703 10.915 6.39787 10.915 6.63894C10.915 6.9202 11.0857 7.02065 11.2665 7.20144C11.4574 7.38225 11.5579 7.64341 11.5579 7.96484C11.5579 8.98941 10.7643 9.65232 9.53886 9.65232C8.29332 9.65232 7.45961 8.87893 7.45961 7.67354C7.45961 6.95034 7.85136 6.28739 8.47413 5.92578L8.00203 5.08203C7.09801 5.60435 6.50537 6.61886 6.50537 7.68359ZM7.771 5.25279C7.771 6.37779 8.56453 7.14118 9.7297 7.14118C9.99086 7.14118 10.2118 6.9202 10.2118 6.65904C10.2118 6.39787 9.99086 6.18694 9.7297 6.18694C9.12703 6.18694 8.72524 5.81529 8.72524 5.25279C8.72524 4.65011 9.21743 4.21819 9.90046 4.21819C10.2621 4.21819 10.6438 4.34877 10.9652 4.59989L11.5177 3.8164C11.0556 3.46484 10.4931 3.26394 9.90046 3.26394C8.68506 3.26394 7.771 4.1077 7.771 5.25279ZM10.252 5.1222C10.242 5.4135 10.4329 5.63448 10.7141 5.63448C10.9953 5.63448 11.1862 5.43359 11.1962 5.15234C11.2364 4.31863 11.8391 3.71596 12.6829 3.71596C13.175 3.71596 13.617 3.97711 13.7978 4.38894C13.8681 4.52958 14.0088 4.52958 14.2297 4.4693C14.3302 4.43917 14.4507 4.43917 14.5913 4.43917C15.4351 4.43917 16.0879 5.09208 16.0879 5.96596C16.0879 8.09542 12.9841 7.72377 12.9841 10.0039C12.9841 11.0285 13.7978 11.7516 14.9731 11.7516C15.0534 11.7516 15.1337 11.7516 15.2341 11.7516C15.3848 12.6858 15.9875 13.3086 16.7308 13.3086C17.8157 13.3086 18.569 12.0932 18.569 10.3856C18.569 9.73272 18.5288 9.2907 18.4886 8.8689L17.5243 9.15013C17.5545 9.55187 17.6148 9.90347 17.6148 10.3756C17.6148 11.4804 17.2129 12.3544 16.7308 12.3544C16.319 12.3544 16.0277 11.832 16.0277 11.0787C16.0277 10.9481 15.9373 10.8878 15.8167 10.8878C15.6762 10.8878 15.5053 10.8978 15.3848 10.8978C14.4306 10.8978 13.9384 10.5865 13.9384 9.9939C13.9384 8.34654 17.0522 8.80855 17.0522 5.96596C17.0522 4.54966 16.0177 3.47489 14.6817 3.47489C14.5712 3.47489 14.4607 3.48493 14.3503 3.50502C13.9384 3.04296 13.3357 2.76172 12.6829 2.76172C11.3067 2.76172 10.3022 3.73605 10.252 5.1222ZM15.7565 9.69253C15.7565 9.9537 15.9474 10.1445 16.2186 10.1747C17.8659 10.2751 19.0009 9.2907 19.0009 7.72377C19.0009 6.38783 18.0165 5.37332 16.5802 5.24274L16.4395 6.21708C17.3938 6.1568 18.0467 6.76953 18.0467 7.72377C18.0467 8.69807 17.3335 9.30081 16.2386 9.22041C15.9774 9.20035 15.7565 9.43135 15.7565 9.69253ZM13.4965 10.2048C13.2152 10.3153 12.8536 10.3756 12.5221 10.3756C11.6784 10.3756 10.8748 10.024 10.6639 9.53181L9.87033 10.1847C10.3927 10.8878 11.367 11.3298 12.4518 11.3298C12.8938 11.3298 13.3759 11.2494 13.8079 11.1088L13.4965 10.2048ZM11.7989 6.94029L12.1103 7.85435C13.3357 7.65346 13.9987 6.90011 13.9987 5.67466C13.9987 5.42354 13.7777 5.20256 13.5165 5.20256C13.2553 5.20256 13.0445 5.4135 13.0445 5.67466C13.0445 6.47823 12.6728 6.84989 11.7989 6.94029Z" fill="#94A3B8"/>
</svg>
