<svg width="16" height="16" viewBox="0 0 16 16" fill="none" xmlns="http://www.w3.org/2000/svg">
<path d="M13.7318 7.33622C13.7052 7.21733 13.6501 7.10672 13.5711 7.01394C13.4922 6.92115 13.3918 6.849 13.2787 6.80372L10.08 5.52434L10.7418 1.11122C10.7661 0.952747 10.739 0.790661 10.6644 0.648734C10.5899 0.506807 10.4718 0.392509 10.3275 0.322605C10.1832 0.252702 10.0203 0.230872 9.86274 0.260317C9.70515 0.289763 9.56114 0.368934 9.45183 0.486218L2.45183 7.98622C2.36862 8.07533 2.30839 8.18338 2.27636 8.30101C2.24432 8.41864 2.24144 8.54231 2.26798 8.66131C2.29451 8.7803 2.34965 8.89104 2.42862 8.98392C2.5076 9.0768 2.60802 9.14902 2.7212 9.19434L5.91995 10.4737L5.25808 14.8887C5.23378 15.0472 5.26091 15.2093 5.33547 15.3512C5.41004 15.4931 5.52812 15.6074 5.6724 15.6773C5.81669 15.7472 5.97957 15.7691 6.13717 15.7396C6.29476 15.7102 6.43877 15.631 6.54808 15.5137L13.5481 8.01372C13.6316 7.92435 13.6921 7.81589 13.7241 7.69779C13.7561 7.5797 13.7588 7.45557 13.7318 7.33622ZM7.09995 12.7218L7.49183 10.1112C7.51687 9.94413 7.48476 9.77348 7.40071 9.62692C7.31665 9.48036 7.18557 9.36648 7.0287 9.30372L4.2962 8.21059L8.89995 3.27809L8.50808 5.88872C8.48304 6.05581 8.51515 6.22645 8.5992 6.37301C8.68326 6.51957 8.81434 6.63346 8.9712 6.69622L11.7037 7.78934L7.09995 12.7218Z" fill="#C7C7CC"/>
</svg>
