<svg width="24" height="24" viewBox="0 0 24 24" fill="none" xmlns="http://www.w3.org/2000/svg">
<path d="M12 2.29688C13.6933 2.29774 15.3574 2.74142 16.8262 3.58398C18.2947 4.42651 19.5176 5.63852 20.373 7.09961L20.375 7.10254C20.3845 7.11638 20.3934 7.13034 20.4023 7.14551C20.4107 7.15974 20.4192 7.1772 20.4277 7.19434L20.4287 7.19727C21.2658 8.65935 21.7053 10.3152 21.7031 12L21.6953 12.3984C21.6143 14.3872 20.9231 16.3067 19.7109 17.8936C18.4178 19.5862 16.6032 20.8069 14.5479 21.3662C12.4925 21.9255 10.3104 21.7923 8.33789 20.9883C6.48869 20.2345 4.91943 18.9304 3.8418 17.2568L3.63281 16.917L3.57422 16.791C3.55893 16.7474 3.54847 16.7022 3.54199 16.6562C3.52904 16.5643 3.53418 16.4707 3.55762 16.3809C3.58107 16.291 3.62246 16.2068 3.67871 16.1328C3.73485 16.059 3.80459 15.9967 3.88477 15.9502H3.88574L11.2734 11.6494L11.2969 11.6357V3C11.2969 2.81355 11.3711 2.63478 11.5029 2.50293C11.6018 2.40404 11.7272 2.33757 11.8623 2.31055L12 2.29688ZM9.09668 2.82324C9.20737 2.83858 9.31285 2.88011 9.4043 2.94434C9.49598 3.00884 9.57112 3.09499 9.62305 3.19434C9.67491 3.29359 9.70246 3.40364 9.70312 3.51562V10.2656C9.70315 10.389 9.67102 10.5103 9.60938 10.6172C9.54766 10.7241 9.45847 10.8133 9.35156 10.875L3.50195 14.2549C3.39513 14.3165 3.27371 14.3486 3.15039 14.3486C3.04877 14.3489 2.94752 14.3262 2.85547 14.2832C2.7533 14.2361 2.6638 14.165 2.59473 14.0762C2.52569 13.9874 2.47849 13.8831 2.45801 13.7725C2.03832 11.5 2.44341 9.15219 3.59961 7.15137C4.75588 5.15052 6.5881 3.62746 8.7666 2.85645C8.87224 2.81926 8.98574 2.80794 9.09668 2.82324ZM8.22852 4.61035C6.86755 5.30637 5.72516 6.36443 4.92676 7.66797C4.12828 8.97181 3.70446 10.4711 3.70312 12L3.70508 12.2109C3.7065 12.2824 3.70912 12.3548 3.71484 12.4268L3.7207 12.501L3.78516 12.4639L8.27344 9.87305L8.29688 9.85938V4.5752L8.22852 4.61035Z" fill="#94A3B8" stroke="#94A3B8" stroke-width="0.09375"/>
</svg>
