<svg width="32" height="32" viewBox="0 0 32 32" fill="none" xmlns="http://www.w3.org/2000/svg">
<path d="M26.3112 18.2448V8.30839C26.3112 6.94456 25.7266 6.50295 24.6225 6.04833C23.0899 5.42487 18.1412 3.54148 16.6085 3.09986C16.2577 3.00894 15.8811 2.90503 15.5174 2.90503C15.1537 2.90503 14.777 2.98296 14.4393 3.09986C12.8936 3.6324 7.94487 5.41188 6.41219 6.04833C5.32112 6.51594 4.72363 6.94456 4.72363 8.30839V18.2448C4.72363 22.9858 7.25646 24.7393 14.6471 28.8828C14.9848 29.0646 15.3096 29.1426 15.5174 29.1426C15.7252 29.1426 16.0629 29.0646 16.3876 28.8828C23.7653 24.7263 26.3112 22.9858 26.3112 18.2448ZM15.2446 26.7396C15.0887 26.7006 14.9199 26.6097 14.7121 26.4798C8.72421 22.83 6.78886 21.7778 6.78886 17.7642V8.71105C6.78886 8.26943 6.86679 8.08759 7.23048 7.9577C9.24375 7.26928 13.0365 5.89247 14.9978 5.11313C15.1017 5.07416 15.1797 5.04819 15.2446 5.0352V26.7396Z" fill="#2E90FA"/>
</svg>
