<svg width="24" height="24" viewBox="0 0 24 24" fill="none" xmlns="http://www.w3.org/2000/svg">
<path d="M1.19629 5.85669C5.74408 3.63604 9.03282 4.68489 12.2188 5.70532C13.7371 6.19159 15.221 6.66705 16.8291 6.77368C18.4388 6.8804 20.1719 6.61795 22.1914 5.63013C22.2986 5.57771 22.4179 5.55269 22.5371 5.55884C22.6262 5.56349 22.7134 5.5853 22.7939 5.62231L22.873 5.66528C22.9736 5.72914 23.0562 5.81752 23.1133 5.92212C23.1705 6.02713 23.2003 6.14533 23.1992 6.26489V17.509C23.199 17.6405 23.1625 17.7696 23.0928 17.8811C23.023 17.9926 22.9229 18.0822 22.8047 18.1399C20.8254 19.1062 19.085 19.4533 17.4902 19.4534C15.4211 19.4534 13.5897 18.8681 11.7852 18.2913C10.2646 17.805 8.77952 17.3285 7.1709 17.2219C5.56076 17.1153 3.82792 17.3787 1.80859 18.3665C1.70153 18.4187 1.58285 18.4429 1.46387 18.4368C1.34487 18.4306 1.22903 18.3944 1.12793 18.3313C1.02675 18.2681 0.942603 18.1798 0.884766 18.0754C0.827066 17.9712 0.796858 17.8538 0.796875 17.7346V6.49146C0.79676 6.35891 0.833784 6.22869 0.904297 6.11646C0.957343 6.0321 1.02802 5.96034 1.11035 5.90552L1.19629 5.85669ZM11.7891 7.0481C8.85312 6.10946 6.058 5.21481 2.23438 6.92603L2.20703 6.93774V16.6575L2.27148 16.6311C3.61772 16.0832 5.05631 15.7974 6.50977 15.7903C8.57888 15.7903 10.4103 16.3756 12.2148 16.9524C15.1507 17.891 17.946 18.7856 21.7695 17.0745L21.7969 17.0618V7.34595L21.7324 7.37134C17.7312 8.94986 14.7239 7.98637 11.7891 7.0481ZM19.5 9.79712C19.6865 9.79712 19.8652 9.87131 19.9971 10.0032C20.1289 10.135 20.2031 10.3138 20.2031 10.5002V15.0002C20.2031 15.1867 20.1289 15.3655 19.9971 15.4973C19.8652 15.6291 19.6864 15.7034 19.5 15.7034C19.3136 15.7034 19.1348 15.6291 19.0029 15.4973C18.8711 15.3655 18.7969 15.1867 18.7969 15.0002V10.5002C18.7969 10.3138 18.8711 10.135 19.0029 10.0032C19.1348 9.87131 19.3135 9.79712 19.5 9.79712ZM12 9.04712C12.7832 9.04712 13.5341 9.35854 14.0879 9.91235C14.6417 10.4662 14.9531 11.2171 14.9531 12.0002C14.9531 12.5843 14.7795 13.1553 14.4551 13.6409C14.1306 14.1264 13.6694 14.5053 13.1299 14.7288C12.5904 14.9522 11.9966 15.0107 11.4238 14.8967C10.851 14.7828 10.3251 14.5011 9.91211 14.0881C9.49914 13.6752 9.21748 13.1492 9.10352 12.5764C8.98959 12.0037 9.0481 11.4099 9.27148 10.8704C9.49497 10.3308 9.87383 9.86965 10.3594 9.54517C10.845 9.22067 11.4159 9.04712 12 9.04712ZM4.5 8.29712C4.68648 8.29712 4.86521 8.37131 4.99707 8.50317C5.12889 8.63503 5.20312 8.81379 5.20312 9.00024V13.5002C5.20309 13.6867 5.1289 13.8655 4.99707 13.9973C4.86521 14.1291 4.68645 14.2034 4.5 14.2034C4.31355 14.2034 4.13479 14.1291 4.00293 13.9973C3.8711 13.8655 3.79691 13.6867 3.79688 13.5002V9.00024C3.79688 8.81379 3.87111 8.63503 4.00293 8.50317C4.13479 8.37131 4.31352 8.29712 4.5 8.29712ZM12.5918 10.5706C12.3092 10.4536 11.9982 10.423 11.6982 10.4827C11.3982 10.5424 11.1226 10.6902 10.9062 10.9065C10.69 11.1228 10.5421 11.3985 10.4824 11.6985C10.4228 11.9985 10.4542 12.3095 10.5713 12.592C10.6884 12.8746 10.8863 13.1164 11.1406 13.2864C11.395 13.4563 11.6941 13.5471 12 13.5471C12.4102 13.5471 12.8037 13.384 13.0938 13.094C13.3838 12.8039 13.5468 12.4105 13.5469 12.0002C13.5469 11.6943 13.4561 11.3952 13.2861 11.1409C13.1162 10.8865 12.8745 10.6876 12.5918 10.5706Z" fill="#94A3B8" stroke="#94A3B8" stroke-width="0.09375"/>
</svg>
