<svg width="50" height="50" viewBox="0 0 50 50" fill="none" xmlns="http://www.w3.org/2000/svg">
<rect width="50" height="50" rx="25" fill="#2775CA"/>
<path fill-rule="evenodd" clip-rule="evenodd" d="M30.0773 9.41751C29.5761 9.26042 29.1663 9.55229 29.1663 10.0686V11.3383C29.1663 11.6844 29.4323 12.0784 29.7634 12.1975C35.0823 14.1093 38.8886 19.1263 38.8886 25.0001C38.8886 30.8738 35.0823 35.8906 29.7634 37.8025C29.4002 37.9331 29.1663 38.2822 29.1663 38.6619V39.9314C29.1663 40.4476 29.5761 40.7396 30.0773 40.5825C36.799 38.475 41.6663 32.2953 41.6663 25.0001C41.6663 17.7048 36.799 11.525 30.0773 9.41751ZM20.833 10.0686C20.833 9.55229 20.4233 9.26042 19.9222 9.41751C13.2004 11.525 8.33301 17.7047 8.33301 25.0001C8.33301 32.2954 13.2004 38.475 19.9222 40.5825C20.4233 40.7396 20.833 40.4476 20.833 39.9314V38.6618C20.833 38.3156 20.5671 37.9215 20.2359 37.8024C14.9171 35.8906 11.1108 30.8737 11.1108 25.0001C11.1108 19.1264 14.9171 14.1093 20.2359 12.1975C20.5671 12.0784 20.833 11.6844 20.833 11.3383V10.0686ZM25.6942 14.0965H24.3053C23.9218 14.0965 23.6108 14.4015 23.6108 14.7779V16.8892C20.8575 17.2733 19.0775 19.0714 19.0775 21.3782C19.0775 24.3641 20.9169 25.5226 24.7993 26.0354C27.4332 26.4587 28.183 27.0154 28.183 28.4864C28.183 29.9568 26.9108 30.9374 25.1175 30.9374C22.6928 30.9374 21.895 29.8961 21.6007 28.5484C21.5309 28.2292 21.2523 27.9958 20.9196 27.9958H19.3354C18.9364 27.9958 18.6244 28.3485 18.693 28.7343C19.0964 31.0027 20.5809 32.667 23.6108 33.0704V35.2221C23.6108 35.5985 23.9217 35.9036 24.3053 35.9036H25.6942C26.0776 35.9036 26.3886 35.5985 26.3886 35.2221V33.0693C29.2568 32.6222 31.0894 30.6629 31.0894 28.2411C31.0894 25.0548 29.1137 23.9852 25.2988 23.4729C22.4832 23.0717 21.9387 22.4253 21.9387 21.133C21.9387 19.9077 22.892 19.0383 24.7314 19.0383C26.3951 19.0383 27.3519 19.6081 27.7472 20.922C27.8354 21.2153 28.1028 21.4226 28.4144 21.4226H29.8753C30.2826 21.4226 30.5998 21.0551 30.5127 20.6645C30.0503 18.5881 28.6242 17.3422 26.3886 16.9491V14.7779C26.3886 14.4015 26.0776 14.0965 25.6942 14.0965Z" fill="white"/>
</svg>
